<?xml version="1.0" encoding="UTF-8"?>
<svg xmlns="http://www.w3.org/2000/svg" width="211" height="40" viewBox="0 0 211 40" fill="none">
  <g clip-path="url(#clip0_253_572)">
    <path d="M39.622 11.7447L24.4203 0.034729H29.4631C30.0144 0.034729 30.551 0.218501 30.992 0.556642L44.3192 10.8258C45.9511 12.0828 46.87 13.9941 46.8406 16.0523C46.8406 16.4419 46.7818 16.8242 46.7009 17.2064L39.6146 11.7521L39.622 11.7447ZM20.4876 4.21739L40.4085 19.5587H40.3865L28.0958 29.0266L16.4667 20.0659C16.0477 19.7425 15.5331 19.566 15.0039 19.566H9.92439L27.6474 33.2167C27.9194 33.4151 28.2943 33.4151 28.5589 33.2167L44.3045 21.0877L44.3192 21.073C45.3116 20.2864 45.2454 18.7501 44.2457 17.9783L38.5194 13.5677L22.7076 1.37994C20.3774 -0.413675 17.1356 -0.413675 14.8127 1.37994L1.00041 12.0167C0.382931 12.4871 0.0227374 13.2222 0.0227374 14.0014V17.3093L17.0033 4.23209C18.0251 3.44554 19.4585 3.43819 20.4876 4.21739ZM8.29249 28.1886L0.140352 21.9036C0.0668427 22.2785 0.00803558 22.6608 0.000684683 23.0577C-0.0287189 25.116 0.890143 27.0272 2.52204 28.2842L15.8492 38.5534C16.2903 38.8915 16.8269 39.0753 17.3782 39.0753H22.4209L8.29249 28.1886ZM29.8453 34.878C28.8235 35.6645 27.3901 35.6719 26.361 34.8927L6.44007 19.5513H6.46212L18.7528 10.0907L30.3819 19.0515C30.8009 19.3749 31.3155 19.5513 31.8447 19.5513H36.9242L19.2086 5.89339C18.9366 5.69492 18.5617 5.69492 18.2971 5.89339L2.54409 18.0297L2.52939 18.0444C1.53702 18.831 1.60318 20.3673 2.61025 21.1391L9.09374 26.1304L24.1484 37.7301C26.4786 39.5237 29.7203 39.5237 32.0432 37.7301L45.8482 27.0934C46.4657 26.6156 46.8259 25.8878 46.8259 25.1086V21.8007L29.8453 34.878Z" fill="url(#paint0_linear_253_572)"></path>
    <path d="M74.0009 5.048L71.0973 8.81901H62.2541V10.7082H73.1849L70.4504 14.244H62.2541V19.5587H57.748V5.048H74.0082H74.0009Z" fill="white"></path>
    <path d="M77.9931 19.5513L80.7056 15.8244H84.3517C85.2191 15.8244 86.2408 15.8244 86.9318 15.8685C86.5422 15.3466 85.9321 14.4571 85.4543 13.7662L82.8521 9.929L76.0452 19.5587H70.7305L80.0293 6.44468C80.6395 5.59932 81.5289 4.82013 82.9329 4.82013C84.337 4.82013 85.1676 5.53317 85.7924 6.44468L94.8561 19.5587H77.9858L77.9931 19.5513Z" fill="white"></path>
    <path d="M101.015 19.5513H96.5234V5.048H101.015V19.5513Z" fill="white"></path>
    <path d="M124.392 19.5513H118.387L115.152 15.7141H108.257V19.5513H103.766V12.1343H116.387C117.776 12.1343 118.857 11.5021 118.857 10.5097C118.857 9.38503 117.923 8.81901 116.387 8.81901H103.766L106.691 5.048H116.012C119.305 5.048 123.473 6.09183 123.473 10.2304C123.473 12.4871 122.062 14.3469 119.68 14.8247C120.18 15.1922 120.724 15.7141 121.717 16.7359L124.385 19.5513H124.392Z" fill="white"></path>
    <path d="M144.843 15.8465H137.256V19.5513H132.787V12.1343H145.276C146.666 12.1343 147.467 11.458 147.467 10.4656C147.467 9.47324 146.666 8.81901 145.276 8.81901H132.787L135.757 5.048H144.865C149.356 5.048 151.973 7.26062 151.973 10.4877C151.973 13.7147 149.349 15.8465 144.843 15.8465Z" fill="white"></path>
    <path d="M169.974 15.8244L167.07 19.5513H154.258V5.048H158.749V15.8244H169.981H169.974Z" fill="white"></path>
    <path d="M176.892 19.5513L179.604 15.8244H183.25C184.118 15.8244 185.139 15.8244 185.83 15.8685C185.441 15.3466 184.831 14.4571 184.353 13.7662L181.751 9.929L174.944 19.5587H169.629L178.928 6.44468C179.538 5.59932 180.427 4.82013 181.831 4.82013C183.235 4.82013 184.066 5.53317 184.691 6.44468L193.755 19.5587H176.884L176.892 19.5513Z" fill="white"></path>
    <path d="M210.998 5.048L202.39 14.7585V19.5513H197.884V14.7365L189.041 5.048H194.811L198.281 9.08364C198.737 9.60556 199.95 10.9287 200.251 11.3624C200.53 10.9508 201.03 10.3186 202.074 9.06159L205.367 5.048H211.005H210.998Z" fill="white"></path>
    <path d="M60.9541 34.2899C59.1016 34.2899 57.7344 33.0623 57.7344 31.4377C57.7344 29.8132 59.0943 28.6958 60.9541 28.6958H64.4898L63.8944 29.4677H60.9541C59.8588 29.4677 58.6385 30.0852 58.6385 31.4818C58.6385 32.8785 59.8661 33.5327 61.4466 33.5327H64.4898L63.8944 34.2899H60.9541Z" fill="white"></path>
    <path d="M70.9013 34.3854C68.402 34.3854 67.1523 33.4886 67.1523 31.4965C67.1523 29.5044 68.4093 28.615 70.9013 28.615C73.3932 28.615 74.6503 29.5044 74.6503 31.4965C74.6503 33.4886 73.3932 34.3854 70.9013 34.3854ZM70.9013 29.3721C68.9239 29.3721 68.0492 29.9234 68.0492 31.4965C68.0492 33.0696 68.9166 33.6283 70.9013 33.6283C72.886 33.6283 73.7534 33.0696 73.7534 31.4965C73.7534 29.9234 72.886 29.3721 70.9013 29.3721Z" fill="white"></path>
    <path d="M77.752 34.2899V28.6958H78.6561V33.5254H83.3166L82.7212 34.2825H77.752V34.2899Z" fill="white"></path>
    <path d="M86.123 34.2899V28.6958H87.0272V33.5254H91.6877L91.0922 34.2825H86.123V34.2899Z" fill="white"></path>
    <path d="M94.4971 34.2899V28.6958H100.429L99.8339 29.4677H95.3939V31.151H100.165L99.6428 31.82H95.3866V33.5327H100.459L99.8633 34.2899H94.4824H94.4971Z" fill="white"></path>
    <path d="M106.339 34.2899C104.486 34.2899 103.119 33.0623 103.119 31.4377C103.119 29.8132 104.479 28.6958 106.339 28.6958H109.875L109.279 29.4677H106.339C105.244 29.4677 104.023 30.0852 104.023 31.4818C104.023 32.8785 105.251 33.5327 106.831 33.5327H109.875L109.279 34.2899H106.339Z" fill="white"></path>
    <path d="M115.165 34.2899V29.4677H112.195L112.805 28.6958H119.274L118.679 29.4677H116.069V34.2899H115.158H115.165Z" fill="white"></path>
    <path d="M122.055 34.2899V28.6958H122.959V34.2899H122.055Z" fill="white"></path>
    <path d="M125.833 28.7032H126.943L130.016 33.3342L133.147 28.7032H134.206L130.589 34.0252C130.464 34.209 130.28 34.3707 129.994 34.3707C129.729 34.3707 129.523 34.2164 129.398 34.0252L125.818 28.7032H125.833Z" fill="white"></path>
    <path d="M137.06 34.2899V28.6958H142.992L142.396 29.4677H137.956V31.151H142.727L142.205 31.82H137.949V33.5327H143.021L142.426 34.2899H137.045H137.06Z" fill="white"></path>
  </g>
  <defs>
    <linearGradient id="paint0_linear_253_572" x1="8.57182" y1="34.4075" x2="38.2768" y2="4.70255" gradientUnits="userSpaceOnUse">
      <stop stop-color="#499AEA"></stop>
      <stop offset="1" stop-color="#F07452"></stop>
    </linearGradient>
    <clipPath id="clip0_253_572">
      <rect width="211" height="39.0406" fill="white" transform="translate(0 0.0347137)"></rect>
    </clipPath>
  </defs>
</svg>
