<?xml version="1.0" encoding="utf-8"?>
<!-- Generator: Adobe Illustrator 27.0.1, SVG Export Plug-In . SVG Version: 6.00 Build 0)  -->
<svg version="1.1" id="Layer_1" xmlns="http://www.w3.org/2000/svg" xmlns:xlink="http://www.w3.org/1999/xlink" x="0px" y="0px"
	 viewBox="0 0 50 31.5" style="enable-background:new 0 0 50 31.5;" xml:space="preserve">
<style type="text/css">
	.st0{fill:#FFFFFF;}
</style>
<g>
	<path class="st0" d="M0,0c4.9,0,9.8,0,14.6,0c2,0,3.9,0.2,5.7,1.2c2.3,1.2,3.6,3.2,3.8,5.7c0.1,0.9,0,1.9-0.1,2.8
		c-0.3,1.8-1.4,3.1-3,4c-0.2,0.1-0.3,0.2-0.5,0.3c0.5,0.3,1,0.5,1.5,0.8c2,1.3,3,3.2,3.1,5.5c0.2,2.5-0.4,4.7-2,6.7
		c-1.4,1.8-3.3,2.7-5.5,3c-1.2,0.2-2.4,0.3-3.6,0.3c-4.7,0-9.4,0-14.1,0C0,20.2,0,10.1,0,0z M6.2,25.1c1.2,0,2.4,0,3.5,0
		c1.8,0,3.6,0,5.4-0.1c1.9-0.1,3.2-1.2,3.5-3c0.1-0.7,0.1-1.4,0.1-2.1c-0.1-1-0.7-1.8-1.5-2.3c-0.8-0.5-1.8-0.6-2.7-0.6
		c-2.6,0-5.3,0-7.9,0c-0.1,0-0.2,0-0.3,0C6.2,19.7,6.2,22.4,6.2,25.1z M6.1,12c0.1,0,0.2,0,0.3,0c2.4,0,4.9,0,7.3,0
		c0.8,0,1.5-0.2,2.3-0.4c0.8-0.2,1.4-0.7,1.8-1.5c0.3-0.7,0.4-1.5,0.2-2.3c-0.2-1.1-0.8-1.9-2-2.2c-0.6-0.1-1.1-0.3-1.7-0.3
		c-2.7-0.1-5.3-0.1-8-0.1c-0.1,0-0.1,0-0.2,0.1C6.1,7.5,6.1,9.7,6.1,12z"/>
	<path class="st0" d="M49.8,20.8c-5.5,0-11,0-16.4,0c-0.1,2.8,1.4,4.9,4.2,5.4c1.6,0.3,3.2,0.2,4.6-0.8c0.5-0.3,0.8-0.9,1.2-1.3
		c0.1-0.1,0.3-0.3,0.5-0.3c1.9,0,3.7,0,5.6,0c0,0,0.1,0,0.3,0.1c-0.3,0.7-0.4,1.4-0.8,2c-1.7,2.9-4.2,4.6-7.5,5.1
		c-2.5,0.4-4.9,0.2-7.3-0.7c-4-1.6-6.2-4.5-6.6-8.8c-0.2-2.2-0.2-4.5,0.5-6.6c1.2-3.8,3.7-6.2,7.6-7.1c3.2-0.7,6.3-0.4,9.2,1.1
		c1.6,0.9,2.8,2.3,3.7,3.9C49.5,14.6,50.2,18.5,49.8,20.8z M33.4,16.9c3.4,0,6.8,0,10.2,0c0-2.6-1.7-4.4-4.4-4.7
		C36,11.9,33.9,13.6,33.4,16.9z"/>
	<path class="st0" d="M31.9,1.4c4.4,0,8.8,0,13.1,0c0,1.2,0,2.5,0,3.7c-4.4,0-8.7,0-13.1,0C31.9,3.9,31.9,2.7,31.9,1.4z"/>
</g>
</svg>
