<svg width="36" height="36" viewBox="0 0 36 36" fill="none" xmlns="http://www.w3.org/2000/svg">
<path fill-rule="evenodd" clip-rule="evenodd" d="M3.43934 3.43934C4.02513 2.85355 4.97487 2.85355 5.56066 3.43934L18 15.8787L30.4395 3.43933C31.0253 2.85355 31.975 2.85356 32.5608 3.43935C33.1466 4.02514 33.1466 4.97488 32.5608 5.56067L20.1213 18L32.5607 30.4393C33.1464 31.0251 33.1464 31.9749 32.5607 32.5607C31.9749 33.1464 31.0251 33.1464 30.4393 32.5607L18 20.1213L5.56067 32.5608C4.97488 33.1466 4.02514 33.1466 3.43935 32.5608C2.85356 31.975 2.85355 31.0253 3.43933 30.4395L15.8787 18L3.43934 5.56066C2.85355 4.97487 2.85355 4.02513 3.43934 3.43934Z" fill="white"/>
</svg>
