<?xml version="1.0" encoding="utf-8"?>
<!-- Generator: Adobe Illustrator 27.3.1, SVG Export Plug-In . SVG Version: 6.00 Build 0)  -->
<svg version="1.1" id="Layer_1" xmlns="http://www.w3.org/2000/svg" xmlns:xlink="http://www.w3.org/1999/xlink" x="0px" y="0px"
	 viewBox="0 0 53.7 41.1" style="enable-background:new 0 0 53.7 41.1;" xml:space="preserve">
<style type="text/css">
	.st0{fill:#FFFFFF;}
</style>
<path class="st0" d="M53.7,27.4c0,1.4,0,2.9,0,4.3c-0.1,0.7-0.1,1.5-0.2,2.2c0,0.2-0.2,0.5-0.4,0.7c-3.7,2.7-7.7,4.8-12.1,6.2
	c-1.2,0.4-1.2,0.4-1.9-0.7c-0.8-1.2-1.5-2.4-2.2-3.6c0.9-0.4,1.6-0.7,2.3-1c0.7-0.4,1.5-0.8,2.2-1.2c-0.8-0.9-0.9-1-1.9-0.6
	c-8.5,3.6-17,3.6-25.6,0c-0.9-0.4-1.2-0.3-1.8,0.6c1.5,0.7,3,1.4,4.6,2.2c-1,1.5-1.9,3-2.8,4.4C13.8,41,13.5,41,13.4,41
	c-4.7-1.5-9-3.6-12.9-6.5c-0.1-0.1-0.3-0.3-0.3-0.5c-0.4-4.3-0.2-8.6,0.6-12.9C2,14.9,4.5,9.2,8,4c0.1-0.2,0.4-0.4,0.6-0.5
	c3.3-1.5,6.8-2.6,10.3-3.2c0.3-0.1,0.5,0,0.6,0.3c0.3,0.7,0.7,1.4,1,2.1C20.7,3,20.9,3.1,21.3,3c1.5-0.2,3-0.4,4.4-0.4
	c2.3,0,4.5,0.2,6.7,0.4c0.4,0,0.6,0,0.7-0.4c0.3-0.7,0.7-1.4,1-2.1c0.1-0.3,0.3-0.3,0.6-0.3c3.6,0.7,7,1.7,10.3,3.2
	c0.3,0.1,0.5,0.3,0.7,0.5c0.9,1.5,1.9,3,2.8,4.6c2.6,4.9,4.3,10.2,4.9,15.8C53.6,25.4,53.6,26.4,53.7,27.4z M40.6,22.6
	c0-0.2,0-0.5-0.1-0.8c-0.1-0.4-0.1-0.7-0.3-1.1c-1.2-3.4-5.1-4.5-7.6-2.1c-2.3,2.2-2.3,6.1,0,8.3c1.9,1.8,4.6,1.7,6.4-0.1
	C40.2,25.7,40.6,24.3,40.6,22.6z M22.9,22.7c-0.1-0.7-0.2-1.3-0.4-2c-1.1-3.3-5-4.5-7.5-2.2c-2.4,2.1-2.5,6.2-0.1,8.4
	c1.9,1.7,4.5,1.7,6.3-0.1C22.3,25.6,22.8,24.3,22.9,22.7z"/>
</svg>
