<?xml version="1.0" encoding="utf-8"?>
<!-- Generator: Adobe Illustrator 27.0.1, SVG Export Plug-In . SVG Version: 6.00 Build 0)  -->
<svg version="1.1" id="Layer_1" xmlns="http://www.w3.org/2000/svg" xmlns:xlink="http://www.w3.org/1999/xlink" x="0px" y="0px"
	 viewBox="0 0 40.1 30.5" style="enable-background:new 0 0 40.1 30.5;" xml:space="preserve">
<style type="text/css">
	.st0{fill:#FFFFFF;}
</style>
<path class="st0" d="M40.1,20.3c0,1.1,0,2.1,0,3.2c-0.1,0.5-0.1,1.1-0.2,1.6c0,0.2-0.1,0.4-0.3,0.5c-2.8,2-5.8,3.6-9,4.7
	c-0.9,0.3-0.9,0.3-1.5-0.5c-0.6-0.9-1.1-1.8-1.7-2.7c0.6-0.3,1.2-0.5,1.7-0.8c0.6-0.3,1.1-0.6,1.6-0.9c-0.6-0.7-0.7-0.7-1.4-0.4
	c-6.4,2.7-12.7,2.7-19.1,0c-0.7-0.3-0.9-0.2-1.4,0.5c1.1,0.5,2.2,1.1,3.4,1.7c-0.7,1.1-1.4,2.2-2.1,3.3c-0.1,0.1-0.3,0.1-0.4,0.1
	c-3.5-1.1-6.7-2.7-9.6-4.9c-0.1-0.1-0.2-0.2-0.2-0.4C-0.1,22,0,18.8,0.6,15.6C1.5,11,3.3,6.7,6,2.8c0.1-0.2,0.3-0.3,0.4-0.4
	c2.5-1.1,5-1.9,7.7-2.4c0.2,0,0.3,0,0.4,0.2c0.2,0.5,0.5,1,0.8,1.5c0.1,0.3,0.3,0.4,0.6,0.3C17,2,18.1,1.8,19.2,1.8
	c1.7,0,3.4,0.2,5,0.3c0.3,0,0.4,0,0.5-0.3c0.2-0.5,0.5-1.1,0.8-1.6C25.7,0,25.8,0,26,0c2.7,0.5,5.2,1.3,7.7,2.4
	c0.2,0.1,0.4,0.2,0.5,0.4c0.7,1.1,1.4,2.3,2.1,3.5c2,3.7,3.2,7.6,3.7,11.8C40,18.8,40,19.5,40.1,20.3z M30.3,16.7
	c0-0.2,0-0.4-0.1-0.6c0-0.3-0.1-0.5-0.2-0.8c-0.9-2.5-3.8-3.3-5.7-1.6c-1.7,1.6-1.7,4.6,0,6.2c1.4,1.3,3.4,1.3,4.7-0.1
	C30,19,30.3,17.9,30.3,16.7z M17.1,16.8c-0.1-0.5-0.2-1-0.3-1.5c-0.8-2.5-3.7-3.3-5.6-1.7c-1.8,1.6-1.8,4.7-0.1,6.3
	c1.4,1.3,3.4,1.2,4.7-0.1C16.6,19,17,17.9,17.1,16.8z"/>
</svg>
