<?xml version="1.0" encoding="utf-8"?>
<!-- Generator: Adobe Illustrator 27.0.1, SVG Export Plug-In . SVG Version: 6.00 Build 0)  -->
<svg version="1.1" id="Layer_1" xmlns="http://www.w3.org/2000/svg" xmlns:xlink="http://www.w3.org/1999/xlink" x="0px" y="0px"
	 viewBox="0 0 269.6 29.5" style="enable-background:new 0 0 269.6 29.5;" xml:space="preserve">
<style type="text/css">
	.st0{fill:#542D4F;}
	.st1{fill:#2C7C64;}
	.st2{fill:#513351;}
	.st3{fill:#54274C;}
	.st4{fill:#532F50;}
	.st5{fill:#955088;}
	.st6{fill:#542C4F;}
	.st7{fill:#552C50;}
	.st8{fill:#984E89;}
	.st9{fill:#8D477E;}
	.st10{fill:#874C7D;}
	.st11{fill:#53254A;}
	.st12{fill:#503250;}
	.st13{fill:#4C334E;}
	.st14{fill:#523051;}
	.st15{fill:#522C4E;}
	.st16{fill:#35685F;}
	.st17{fill:#8C457D;}
	.st18{fill:#3F4C54;}
	.st19{fill:#5F5A6E;}
	.st20{fill:#8A457B;}
	.st21{fill:#7A537A;}
	.st22{fill:#5E4C67;}
	.st23{fill:#7F4073;}
	.st24{fill:#774570;}
	.st25{fill:#66335C;}
	.st26{fill:#52284B;}
	.st27{fill:#77597C;}
	.st28{fill:#44505A;}
	.st29{fill:#715676;}
	.st30{fill:#66325C;}
	.st31{fill:#4A374F;}
	.st32{fill:#47344B;}
	.st33{fill:#723867;}
	.st34{fill:#316057;}
	.st35{fill:#66355C;}
	.st36{fill:#604161;}
	.st37{fill:#6F3463;}
	.st38{fill:#3F5E5E;}
	.st39{fill:#724B71;}
	.st40{fill:#904F84;}
	.st41{fill:#52264A;}
	.st42{fill:#47324A;}
	.st43{fill:#653A60;}
	.st44{fill:#45384C;}
	.st45{fill:#39635E;}
	.st46{fill:#435059;}
	.st47{fill:#733867;}
	.st48{fill:#327262;}
	.st49{fill:#70436B;}
	.st50{fill:#2D7F67;}
	.st51{fill:#4C3D54;}
	.st52{fill:#336E61;}
	.st53{fill:#3F565B;}
	.st54{fill:#804A79;}
	.st55{fill:#494456;}
	.st56{fill:#288466;}
	.st57{fill:#4D3A53;}
	.st58{fill:#4B3F54;}
	.st59{fill:#336E60;}
	.st60{fill:#2B7C64;}
	.st61{fill:#572E52;}
	.st62{fill:#552B4F;}
	.st63{fill:#474D5A;}
	.st64{fill:#4E3A53;}
	.st65{fill:#4F3953;}
	.st66{fill:#5D2550;}
	.st67{fill:#566B73;}
	.st68{fill:#8D437C;}
	.st69{fill:#59274F;}
	.st70{fill:#4A4055;}
	.st71{fill:#2D7A64;}
	.st72{fill:#41525A;}
	.st73{fill:#5C2952;}
	.st74{fill:#4A4658;}
	.st75{fill:#2D7E67;}
	.st76{fill:#484B59;}
	.st77{fill:#695C76;}
	.st78{fill:#785077;}
	.st79{fill:#553052;}
	.st80{fill:#703665;}
	.st81{fill:#7B3D6F;}
	.st82{fill:#552A4C;}
	.st83{fill:#7B3C6E;}
	.st84{fill:#522F50;}
	.st85{fill:#542D50;}
	.st86{fill:#455B61;}
	.st87{fill:#3E5E5F;}
	.st88{fill:#503D57;}
	.st89{fill:#523151;}
	.st90{fill:#307362;}
	.st91{fill:#2C7D65;}
	.st92{fill:#37675F;}
	.st93{fill:#2F7763;}
</style>
<g>
	<rect x="0" width="269.6" height="29.5"/>
	<path d="M214.8,29.5c15.2,0.1,30.3,0,45.5,0c1.2,0,2.4,0,3.5,0c3.1-0.2,4.6-1,5.1-3.1v-4.1c-0.2-1.8-0.5-3.7-0.6-5.5
		c0.2-2.5-0.5-4.9-0.7-7.3c-0.6-7-1.5-7.7-8.7-7.8c-24.7-0.4-49.5-0.2-74.2-0.7C127.4-0.1,70.1,1.2,12.8,0.2C8.6,0.1,4.3,0.1,0,0
		v28.7C71.6,28.7,143.2,29.1,214.8,29.5z"/>
	<g>
		<path d="M269.1,23.1c0-0.5-0.1-0.9-0.1-1.4l0,4.1C269.1,25.1,269.1,24.2,269.1,23.1z"/>
		<path class="st0" d="M128.1,17.7c-1.6-0.1-2.1,1.1-2.3,2.2c-0.5,3.6-2.6,4.3-5.8,4.1c-7.8-0.5-15.7,0.5-23.5-0.7
			c-0.2-0.2-0.3-0.4-0.5-0.5c-0.2-0.7-0.1-1.4,0.6-1.8c3-1.3,6-0.7,9.3,0.2c-1.4-0.5-2.7-0.7-2.4-2.2c0.1-0.6,0.7-0.8,1.3-0.6
			c-0.4-0.5-0.9,0-1.4-0.2c-1-0.2-2.3-0.4-2.5-1.5c-0.2-1.5,1.3-1.8,2.3-2.1c2.2-0.8,4.6-0.6,6.9-0.6c1.3,0,2.6-0.1,3.9-0.6
			c1.7-0.7,3.6-1.1,5.5-1.2c1.4-0.1,2.9,0,4.3,0c1.8,0.1,3.6-0.2,5.2,0.7c0.8,0.7,1.6,1.4,0.7,2.6c-3.1,1.2-6,0.3-8.7-0.1
			c2.9,1.4,6.7-0.2,9.9,1.4c0.7,0,1.3,0.2,1.6,1c-0.3,0.4-0.7,0.7-1.2,0.8C130.2,18.8,129.1,18.5,128.1,17.7z"/>
		<path class="st1" d="M168.8,21.9c-0.2,0-0.5-0.1-0.7-0.1c-2.2,0.1-4.3-0.1-6.2-1.2c-2.5-2.8-6.2-4.3-8.8-7.1
			c-0.9-1.8-4.5-2.1-3.1-5.3c6.4-1.6,12.9-0.4,19.3-0.8c2.2-0.1,4.4-0.1,6.6,0c1.4,0.1,3,0,3.7,1.7c-3.4,3-7.5,1.2-11.3,1.6
			c-0.9,0-1.8,0.1-2.7,0.3c-1.9,0.7-4-1.4-5.8,0.3c1.1,1.5,2.7,2,4.4,2.2c3.3,2.1,7.4,2.7,10.5,5c-1.5-2.4,0.2-2.5,2-2.8
			c2.8-0.6,5.8,0.5,8.4-1.2c2.7,1.6,4.4,3.4,1.1,6.1c-4.5,1.4-9.1,2-13.8,0.6C171,20.9,170.2,23.1,168.8,21.9z"/>
		<path class="st2" d="M58.3,22.5c-1.8,0-3.5,0-5.3-0.1c-2.4-2-0.1-2.3,1.1-3.1c0.3-0.2,0.6-0.4,0.9-0.6c1.1-2.4-1.5-3.3-2.1-5.1
			c-0.3-0.7,0-1.3,0.6-1.6c6.3-2.3,12.7-1,19.1-0.9c1.3,0-0.3-0.2-0.1-0.6c1-2.4,3.2-2,5.1-2.2c1.9,0.7,3.2,2,2.6,3.9
			c-0.5,1.7-2.5,1-3.9,1.2c-6.1,0.9-12.3,0.1-17.1,0.5c7.5,0.7,16.3-1.2,25.1-0.3c0.5,0.3,0.7,0.7,0.7,1.3c-1.6,1.8-3.8,1.4-5.8,1.4
			c-5.4,0.1-10.7,0.9-15.1,0.8c1.5-0.4,3.8-0.3,6.1,0c2.6,0.8,6.2,0,6.8,4.1c-0.2,0.2-0.4,0.5-0.7,0.6c-1.8,0.7-3.5,0.4-5-0.7
			c-1.5-1.1-1.7-0.6-2.8,0.7c-0.9,1.1-3.4,0-5.1,0.5C61.7,23,60,22.4,58.3,22.5z"/>
		<path class="st3" d="M255.6,20.7c0.1,3-1.7,3.5-4.2,3.5c-8.4,0-16.7-0.1-25-0.8c-0.3-0.4-0.3-0.9,0.1-1.3c1.7-1.6,3.8-1.7,5.9-1.3
			c2.4,1.1,4.8-0.3,7.4,0c-1.6-0.4-3.1,0.3-4.5-0.3c-2.6-2.7,1.5-2.3,1.7-3.6c1-1.1,2.2-1.6,3.7-1.7c1,0,1.9,0.1,2.7,0.7
			c1,0.5,0.2,3.2,2.9,2.1c1.8-0.7,4.2-0.6,6.2,1.5c-1.5,1.1-2.7,0.9-3.9,0.5C250.6,21.4,253.4,18.4,255.6,20.7z"/>
		<path class="st4" d="M161.8,20.1c2.2,0.2,4.3,0.5,6.2,1.7c-0.8,1.1-1.8,0.8-2.8,0.7c-4.1-0.4-8.3-0.3-12.4-0.5
			c-3.8,0-7.7-0.2-11.5,0.1c-3.6,0.3-4.8-1.2-4.4-4.5c3-3.1,6.6-0.6,9.9-0.9c2.3,0.8,4.7,0.4,7,0.5
			C156.9,17.2,159.7,17.7,161.8,20.1z"/>
		<path class="st5" d="M39,6.5c3.2,0,6.3,0,9.5,0C52,7.6,55.6,6.6,59.1,7c1,0.1,2.8-0.8,2.6,1.5c-3.9,2.1-8.2,0.9-12.3,1.1
			C38.8,9.7,28.2,9.3,17.6,9.9c-0.8,0.2-1.5,0.2-2.3,0.2c-2.4-0.5-4.8-0.4-7.2-0.6C7.3,9.4,6.6,9.2,6,8.7C5.6,8,5.6,7.4,6,6.7
			l0.1,0.1c6.1-1.1,12.3-0.4,18.4-0.5C29.4,6.2,34.2,5.7,39,6.5z"/>
		<path class="st6" d="M218.4,22.5c-1.1,1.6-2.7,0.9-4.1,0.9c-8.7,0-17.4,0.2-26-0.7c-0.3-0.4-0.3-0.8,0.1-1.2
			c0.4-0.3,0.8-0.5,1.2-0.6c1.9-0.3,3.8-0.5,5.5,0.7c-0.2-0.9-1.9-1.1-1.4-2.3c0.4-0.9,1.4-1.1,2.3-1c3,0.5,6.1-0.3,9,1.5
			c2.3,1.5,5.1,0.8,7.7,0.3c1-0.3,2-0.6,3.1-0.8c0.6-0.1,1.3,0,1.8,0.3C218.3,20.5,217.5,21.7,218.4,22.5z"/>
		<path class="st7" d="M146.7,17.6c-3.3,0.6-6.5-1.1-9.8,0c-0.1-0.2-0.1-0.5,0-0.7c-0.2-0.4-0.3-0.8-0.1-1.2
			c0.5-0.9,1.2-1.7,2.2-2.2c2.7-0.9,5.5-0.4,8.6-0.5c-0.9-1.3-2.8-2.2-2-4.1c0.7-0.8,1.5-0.9,2.4-0.7c0.7,0.2,1.1,0.8,1.4,1.4
			c2.2,0.3,3.3,1.9,4.5,3.5C153.1,16.7,151.5,17.7,146.7,17.6z"/>
		<path class="st8" d="M148.4,8.8c-0.9,0.1-1.7,0.1-2.6,0.2c-2.1,1.4-4.4,1.3-6.7,0.7c-0.9-0.4-1.7-0.9-1.5-1.9
			c0.3-1.6,1.8-1.2,2.9-1.2c10.1-0.1,20.3-0.2,30.4-0.1c4.7,0,9.4-0.5,14,0.3c4.4,0,8.7,0,13.1,0c-0.2,2.1-1.9,2-3.3,2.1
			c-2.2,0.2-4.4,0.1-6.6,0.1c-11.6-1-23.3-0.7-34.9-0.7C151.6,8.3,150,8.1,148.4,8.8z"/>
		<path class="st9" d="M61.8,8.3c-2.5-1.8-5.3-0.5-8-0.9c-1.8-0.3-3.8,0.7-5.3-0.9c11.5-0.1,23-0.1,34.6-0.2c1.9,0,3.6,0.3,3.5,2.7
			c-0.5,0.8-1.2,1.5-2.3,1.1c-2.7-0.7-5.4-1.6-8.4-1.4C71.2,9.2,66.4,10.8,61.8,8.3z"/>
		<path class="st10" d="M184.9,6.7c-14.2,0.1-28.5,0.2-42.7,0.3c-1.2,0-2.6-0.3-3.4,0.3c-1.3,1,0.1,1.2,0.8,1.5
			c0.7,1.9,0.3,3.7-0.9,5.3c-0.1,1-0.4,1.8-1.6,1.6c-1-1.1-0.6-2.2-0.2-3.4c0.1-6.6-1.1-6,6.2-6c12.4,0,24.7,0,37.1,0
			C181.8,6.2,183.4,5.9,184.9,6.7z"/>
		<path class="st11" d="M58.3,22.5c2.6-0.3,5.7,0,7.8-1.2c3.9-2.2,7.2,0.3,10.8,0.1c2.5-2,5.4-0.9,8.2-1.4c1.4,0.1,1.6,1.5,2.5,2.2
			c-0.2,0.2-0.4,0.6-0.5,0.6C77.4,23.2,67.8,23.8,58.3,22.5z"/>
		<path class="st12" d="M6,6.7c0.1,0.6,0.2,1.2,0.2,1.8c1.8,2.1,0.4,4.8,1.6,7c2.9,1.9,5.8,0.8,8.5-0.4c1.6-0.7,3-1.6,4.9-1
			c2.5,1.4,2.5,2.6-0.3,3.4c-1.2,0.4-2.4,0.8-3.6,1.3c-2.7,2.3-6.1,2.6-9.4,3.1c-1.2,0.1-2.6,0.1-2.5-1.6C5.4,15.6,4.5,11.1,6,6.7z"
			/>
		<path class="st13" d="M38.9,22.3c-7.6-0.1-15.2-0.1-22.8-0.2c1-2.4,3.3-2,5.1-2.3c1.7-0.4,3.4-0.6,4.6-2.1
			c1.5-0.5,2.9,0.2,4.4,0.1c2.4,0.2,4.7,1,6.8,2.1C37.9,20.5,39,20.9,38.9,22.3z"/>
		<path class="st14" d="M255.6,20.7c-2.6,0-5.3,0-8.1,0c0.9-1.7,2.6-0.3,3.8-1.8c-2.1,0-4-0.3-5.7,0.1c-2.7,0.6-2.3-1.3-2.5-2.7
			c2.8-2.1,5.9-1.1,8.9-1c0.7,0.1,1.4,0.3,2.1,0.6c1,0.5,2.5,0.4,2.3,2.2C256.4,19,256.4,20,255.6,20.7z"/>
		<path class="st15" d="M25.6,18.1c0.9,2.8-1.4,2.5-2.7,2.6c-2.3,0.2-4.6,0.8-6.8,1.5c-2.8,0.7-5.4-0.7-8.2-0.4
			c2.9-1.2,5.9-2.4,8.8-3.6C19.7,17.2,22.6,16.3,25.6,18.1z"/>
		<path class="st16" d="M38.9,22.3c-0.6-0.5-1.2-1.1-1.8-1.6c0.5-1.4,1-2.7,2.6-3.1c1.2-0.1,2.1,0.7,3.2,1.1
			c0.7,0.3,1.3,0.7,2.1-0.4c2-2.7,5.4-2.3,7.5,0.5c-0.4,1.2-0.6,2.4-1.3,3.5l-0.4,0.1l-0.4,0c-0.9-1-1.8-1.1-2.7,0
			C44.8,22.4,41.8,22.4,38.9,22.3z"/>
		<path class="st17" d="M188.2,7.7c3.2-0.5,6.7,1,9.7-1c5.9,0,11.8,0,17.7,0c0.3,1.3-0.3,2-1.4,2.5c-2.3,0.8-4.7,0.5-7,0.6
			c-6.2-0.3-12.5,1.1-18.6-0.6C188.1,8.7,188,8.3,188.2,7.7z"/>
		<path class="st18" d="M168.8,21.9c1.8-1.7,3.7-2,6.2-1.1c2.6,0.9,5.5,0.5,8.1-1.1c0.6-0.4,1.7,0.2,2.5,0.3
			c0.2,0.2,0.3,0.4,0.3,0.6c0,0.2,0,0.3-0.1,0.3c-0.6,0.4-0.8,1.1-1.1,1.7C179.4,22.5,174,23.6,168.8,21.9z"/>
		<path class="st19" d="M234.2,6.6c6.5,0,12.9,0,19.4,0c0.3,0.6,0.1,1.1-0.3,1.6c-0.3,0.3-0.6,0.6-0.9,0.8c-0.9,0.5-1.9,0.8-3,0.8
			c-3.2,0-6.4,0-9.5-0.8C238.1,8,235.2,9.7,234.2,6.6z"/>
		<path class="st20" d="M39,6.5c-11,0.1-21.9,0.2-32.9,0.3C6.8,5.6,8,5.9,8.9,6C19,6.3,29,5.3,39,6.5z"/>
		<path class="st21" d="M95.4,7.2c0.5-0.1,1-0.1,1.6-0.2c3.5-0.7,7.1-0.2,10.7-0.3c0.5,0,0.9,0.2,1.3,0.6c0.1,0.8-0.2,1.3-0.8,1.8
			c-1.1,0.7-2.2,0.4-3.3,0.2c-3.7-0.7-6.1,0.4-6.9,4.3c-0.2,0.4-0.5,0.7-0.9,1c-0.5,0.1-0.9,0.1-1.3,0C95.3,14.3,95,14,95,13.5
			C95.2,11.4,94.5,9.2,95.4,7.2z"/>
		<path class="st22" d="M108.6,7.2c-3.9,0-7.8-0.1-11.7-0.1c2.2-1.7,4.8-0.8,7.1-0.8c6.2-0.1,12.5,0.1,18.7,0.1
			c0.3,0.3,0.5,0.6,0.6,1c0,0.4-0.1,0.8-0.2,1.2c-0.3,0.5-0.8,0.8-1.5,1c-0.6,0.1-1.2-0.1-1.7-0.4c-0.3-0.3-0.6-0.5-0.9-0.8
			C115.7,7.6,111.9,9.4,108.6,7.2z"/>
		<path class="st23" d="M259.9,7.3c4.9-1.1,1.7,3,2.7,4.3c-1.9,0-0.5,3.6-3.1,2.7c-1.4-1.6-2.1-3.5-2.1-5.7
			C257.7,7.3,258.4,6.5,259.9,7.3z"/>
		<path class="st24" d="M226.4,22.5c0,0.3,0,0.6-0.1,0.9c-1.8-5.6-1.6-11.1,0-16.7c2.3,2.9,0.5,6.4,1.7,9.5
			C228.5,18.5,228.3,20.7,226.4,22.5z"/>
		<path class="st25" d="M122.8,7.1c0-0.2,0-0.5,0-0.7c1.3-0.1,2.6-0.2,4-0.2c6.3,0,7.4,1.7,4.9,7.9c-0.2-0.1-0.3-0.2-0.5-0.4
			c-0.6-1-1-2.1-0.9-3.3c0.1-0.9,0.1-1.7-1-1.9c-1-0.2-1.9-0.3-2.9-0.4C125.1,8.2,123.8,8.1,122.8,7.1z"/>
		<path class="st26" d="M262.6,24.1c-6.7,1.2-3.6-4.3-4.7-6.9c0.4-0.6,0.9-0.7,1.6-0.5c1.2,0.6,0.5,2.2,1.6,2.8
			c0.3,0.3,0.5,0.6,0.7,0.9C262.3,21.6,263,22.7,262.6,24.1z"/>
		<path class="st27" d="M227.2,16.3c-1.9-3.1-0.5-6.4-0.9-9.7c0.6,0,1.2,0,1.8,0c0.7,0.4,1.4,0.9,1.4,1.8c-0.2,2-0.7,3.9-0.9,5.9
			C228.3,15.2,227.9,15.9,227.2,16.3z"/>
		<path class="st28" d="M131,16.7c-3.6,0.3-7.2,0-10.7-1.6c3.2,0,6.4,0,9.5,0c0.4-0.3,0.7-0.2,1.1,0.1C131,15.6,131,16.1,131,16.7z"
			/>
		<path class="st0" d="M95.4,7.2c0,2.3,0,4.7,0.1,7c2.3,2.7,0.3,5.7,0.7,8.6c0.1,0.1,0.2,0.3,0.3,0.4c-1.4,0.8-1.9,0-1.9-1.2
			c0-4.9,0.1-9.8,0.2-14.7c0-0.1,0.2-0.2,0.3-0.2C95.1,7.1,95.3,7.2,95.4,7.2z"/>
		<path class="st29" d="M228.9,8.4c-0.3-0.6-0.6-1.2-0.9-1.8c2.1,0,4.1,0,6.2,0c1.7,1.9,4.5-0.3,6.2,1.7
			C236.6,10.4,232.8,10.4,228.9,8.4z"/>
		<path class="st30" d="M87.5,22.2c-1.1,0-1.8-0.6-1.8-1.7c-0.3-0.3-0.5-0.6-0.7-1c-0.3-1.6,0.1-3.2,0.3-4.8
			c0.2-1.2,0.1-2.5,1.4-3.3C88.1,15,87.5,18.6,87.5,22.2z"/>
		<path class="st31" d="M152.8,22c4.2-2.1,8.3,0.2,12.4,0.5C161,22.6,156.9,23.4,152.8,22z"/>
		<path class="st32" d="M92.5,13.4c0,0.3,0.2,0.6,0.1,0.8c-0.3,1.7,1.1,4.6-1,4.7c-2.2,0.1-1.3-2.9-1.4-4.6c0.3-0.5,0.6-1,1.3-1.2
			C91.9,13,92.2,13.1,92.5,13.4z"/>
		<path class="st33" d="M218.4,22.5c-1-0.6-0.8-1.7-0.9-2.6c-1.1-1-1.8-2.2-1.7-3.7c0-0.4,0.1-0.8,0.2-1.1c0.1-0.5,0.3-1.1,0.5-1.6
			c0.2-0.7,0.3-1.4,0.7-2.1c0.1-0.1,0.3-0.2,0.4-0.3C218.9,14.8,218.5,18.7,218.4,22.5z"/>
		<path class="st2" d="M128.1,17.7c1.2,0,2.4,0,3.6,0c1.1,1.5,1.2,2.9-0.5,4.1c-1.1,0.4-2.1,0.3-3-0.5
			C128.1,20,128.1,18.8,128.1,17.7z"/>
		<path class="st34" d="M221.1,13.8c-0.2-2.4-0.9-5,2.2-6.5c-0.2,2.5-0.4,4.8-0.6,7.2C221.8,15.1,221.5,14.3,221.1,13.8z"/>
		<path class="st35" d="M130.8,21.2c1.3-0.9,0.7-2.3,0.8-3.5c0.3,0,0.7,0,1,0c0.3,2.2,2.6,4.7-0.9,6.3
			C130.9,23.2,129.8,22.5,130.8,21.2z"/>
		<path class="st36" d="M259.9,14.4c1.8-1.1-0.2-2.6,0.4-3.8c1.6-1.3,0.8,2.2,2.4,1c1.9,2-1.2,2.9-1,4.5c0.3,0.3,0.3,0.6,0.2,0.9
			c-0.3,0.2-0.6,0.3-0.9,0.3c-0.3-0.2-0.5-0.4-0.7-0.7c-0.3-0.4-0.6-0.9-0.7-1.4C259.6,15,259.7,14.7,259.9,14.4z"/>
		<path class="st37" d="M259.9,7.3c-1.1,0.1-1.8,0.6-1.8,1.8c-1.9,0.4-3.8,1.1-5.3-0.8c0.3-0.5,0.6-1.1,0.8-1.6
			C255.8,6.7,258,5.7,259.9,7.3z"/>
		<path class="st38" d="M92.5,13.4c-0.2,0-0.4,0-0.6,0c-1-0.6-0.9-2-1.8-2.6c-0.2-1.4,0.1-3,1.6-2.9c2.1,0.1,0.7,2,0.9,3
			C92.9,11.6,92.6,12.5,92.5,13.4z"/>
		<path class="st39" d="M86.7,11.5c-0.3,1.2-0.7,2.5-1,3.7c-0.3,0.3-0.5,0.3-0.8,0c0-0.3,0-0.6,0-0.9c-0.3-0.3-0.5-0.6-0.7-1
			c-0.3-0.8-0.2-1.6,0-2.5c0.2-0.4,0.4-0.7,0.7-1C85.4,9.6,86,9.3,86.6,9C86.6,9.8,86.7,10.6,86.7,11.5z"/>
		<path class="st40" d="M214.8,8.4c0.3-0.6,0.6-1.2,0.9-1.8c3.4,0.3,1.6,2.8,1.9,4.4c0,0-0.1,0-0.1,0c-0.5,0.6-1.1,0.6-1.8,0.3
			C214.8,10.5,214.2,9.7,214.8,8.4z"/>
		<path class="st41" d="M130.8,21.2c0.3,0.9,0.6,1.8,0.9,2.7c-1.4-0.7-5.1,1.8-3.6-2.7C129,21.2,129.9,21.2,130.8,21.2z"/>
		<path class="st42" d="M221.1,13.8c0.5,0.3,1.1,0.5,1.6,0.8c0,1.5,0,3.1,0,4.9C220.6,17.7,221.1,15.7,221.1,13.8z"/>
		<path class="st43" d="M261.7,17c0-0.3,0-0.6,0-0.9c1.3,1.2,2.1,2.6,1.7,4.5c-0.8,0.8-1.7,0.6-2.6,0c0-0.3,0-0.6,0-0.9
			C260.6,18.7,260.9,17.8,261.7,17z"/>
		<path class="st44" d="M260.8,16.2c0,0.3,0,0.6,0,0.9c-0.3,0.3-0.6,0.3-0.9,0c-0.7,0-1.3,0.1-2,0.1c-0.5,0.3-1,0.5-1.5,0.8
			c-0.6-1.1-1.7-0.9-2.7-1C255.7,13.6,258.3,15.2,260.8,16.2z"/>
		<path class="st45" d="M51.2,22.4c0.1-1.2-0.4-2.6,0.9-3.5c1.2-0.6,2,0,2.6,0.9c-0.3,1.1-3,0.6-1.7,2.7
			C52.4,22.4,51.8,22.4,51.2,22.4z"/>
		<path class="st46" d="M47.7,22.4c0.1-0.9-0.3-2.3,1.1-2.2c1.1,0,1.4,1.2,1.5,2.2C49.5,22.4,48.6,22.4,47.7,22.4z"/>
		<path class="st2" d="M184.8,22.7c-0.5-1-0.7-1.8,0.9-1.8c1.3-0.9,2.1-0.4,2.7,0.9c0,0.3,0,0.6,0,0.9
			C187.1,22.7,186,22.7,184.8,22.7z"/>
		<path class="st47" d="M260.8,20.6c0.9,0,1.7,0,2.6,0c0.1,1.2,0.8,2.7-0.8,3.5C262,23,261.4,21.8,260.8,20.6z"/>
		<path class="st48" d="M90.1,10.7c1.8,0.1,1.8,1.3,1.8,2.6c-0.6,0.3-1.1,0.6-1.7,0.9C90.2,13.1,90.1,11.9,90.1,10.7z"/>
		<path class="st49" d="M130.9,15.1c-0.4,0-0.7-0.1-1.1-0.1c-0.3-0.6-0.6-1.1-0.9-1.7c-0.1-0.2-0.2-0.3-0.3-0.5
			c0.1-0.2,0.2-0.4,0.2-0.6c0.3-0.2,0.7-0.3,1.1-0.4c1.3,0.2,1,1.6,1.6,2.2c0,0,0.1,0,0.1,0C131.5,14.5,131.2,14.8,130.9,15.1z"/>
		<path class="st4" d="M136.9,12.2c0.1,1.1,0.2,2.3,0.2,3.4c-0.1,0.4-0.1,0.8-0.2,1.3C136,15.4,135.9,13.8,136.9,12.2z"/>
		<path class="st50" d="M97.3,14.3c0.3-6.5,1.9-7.4,10.5-5.4c0.7-0.5,1.6-0.8,2.4-0.8c1.8,0,3.8-0.7,5.2,1.2
			c1.5,2.1-0.7,3.4-1.3,4.9c-1,1.2-2.3,0.7-3.6,0.8c-2.7-0.9-5.5-0.4-8.2,0C100.5,15.3,98.7,15.8,97.3,14.3z"/>
		<path class="st51" d="M97.3,14.3c4.4,0.5,8.9-1,13.2,0.8c-3,0.2-6.1-0.5-8.9,1.3c1.6,1.2,3.4,1.5,5.4,1.9
			c-0.9,0.2-1.9,0.5-2.8,0.7c0.2,1.8,2.2,1,3.3,2.3c-4,0-7.5,0-11,0c-0.8-0.8-0.4-1.7-0.4-2.5c0.6-1.4-0.1-3.2,1.2-4.5L97.3,14.3z"
			/>
		<path class="st52" d="M114,14.2c-0.1-0.3-0.4-0.5-0.3-0.8c0.3-4.5,0.3-4.5-5.5-4.5c-0.1,0-0.3,0-0.4,0c0.3-0.3,0.6-0.6,0.9-0.9
			c3.8-0.7,7.6-0.8,11.5,0c0,0.3,0,0.6,0,0.8c1.1,1.7-0.8,2.9-0.9,4.4C117.5,13.6,115.8,13.9,114,14.2z"/>
		<path class="st53" d="M119.3,13.2c-3.5-2.2,1.5-2.7,0.9-4.4c0.6,0,1.2,0,1.7,0c0.4,0.3,1,0.5,1.2,1c0.2,0.7,0.6,1.3,1,1.9
			c0.1,0.6,0.1,1.1-0.4,1.5C122.2,13.2,120.7,13.2,119.3,13.2z"/>
		<path class="st54" d="M96.4,18.7c0,0.9,0,1.7,0.1,2.6c-0.1,0.5-0.1,1-0.2,1.5c-1.6-2.7-0.4-5.7-0.7-8.6c0.3,0,0.6,0,0.8,0
			C97,15.7,97,17.2,96.4,18.7z"/>
		<path class="st55" d="M123.7,13.2c0-0.6,0-1.2,0-1.8c0.3-0.3,0.7-0.5,1.1-0.5c1.5,0.1,3,0.2,4.1,1.4c0,0.3,0,0.6,0.1,0.9
			C127.2,13.3,125.5,13.3,123.7,13.2z"/>
		<path class="st56" d="M184.8,14.7c-0.2,1.8,0.6,4.2-2.9,1.8c-1.3-0.9-4.6,0.7-7,0.2c0,1.8,1.9,1.5,2.4,4
			c-4.9-2.6-9.8-3.5-13.7-6.6c-2.2,0-3.5-1.9-5.3-2.7c-0.2-0.8-0.7-1.6,0.8-1.8c2.2-0.2,4.2,0.4,6.3,0.9c0.9,0.3,1.5,0.1,1.8-0.9
			c4.1,0,8.3-0.1,12.4-0.1c0.3-0.3,0.7-0.3,1.1-0.2c1.6,1.1,3.2,2.3,4.5,3.8C185.3,13.6,185.3,14.2,184.8,14.7z"/>
		<path class="st57" d="M184.8,14.7c-0.1-0.5-0.1-1.1-0.2-1.6c3.9-3.7,8.5-2.4,12.9-1.6c0.5,0.3,0.7,0.7,0.7,1.2
			c-2.5,2-5.5,1.1-7.9,1.6c2.4,0.4,5.3-1.2,8.1-0.2c0.1,2.7,0,2.7-2.7,3.4c-1.9,0.5-4.2,0-5.4,2.1c-0.2,0.8-0.5,1.5-1.1,2.1
			c-0.3,0-0.6,0-0.9,0c-0.9-0.3-1.8-0.6-2.7-0.9c0-0.3,0-0.6,0-0.9C189.3,17.6,185.4,16.4,184.8,14.7z"/>
		<path class="st58" d="M146.7,17.6c3-0.6,5.8-1.4,7.1-4.5c2.3,2.8,6.6,3.3,8,7.1c-3.2-1.6-6.6-1.9-10.1-1.7
			C150,18.4,148.2,19.1,146.7,17.6z"/>
		<path class="st10" d="M180.3,9.4c-0.3,0-0.5,0-0.8,0.1c-2-1.5-4.2-0.8-6.3-0.7c-7.9,0.4-15.9-0.9-23.8,0.8
			c-0.3-0.3-0.6-0.5-0.9-0.8c1.3-1.5,3-0.9,4.6-0.9c11.8-0.1,23.5-0.1,35.3-0.2c0,0.3,0,0.6,0,0.9C185.8,10.4,183,9.8,180.3,9.4z"/>
		<path class="st59" d="M158.2,11.3c2.1,0.1,3.6,1.7,5.3,2.7C160.7,15.1,159.6,12.8,158.2,11.3z"/>
		<path class="st60" d="M167.1,9.6c0,0.9,2,1.5,0.8,2.4c-1.1,0.7-2-0.4-2.6-1.5C165.7,9.7,166.3,9.6,167.1,9.6z"/>
		<path class="st56" d="M54.8,19.7c-0.9-0.3-1.8-0.6-2.6-0.9c-1.3-3.3-4.6,1.1-5.8-2.4c-0.7,1.8,1.3,2.7,0,3.7
			c-1.1,0.8-2.2,0.4-3.2-0.1c-1.1-0.6-2.2-1.3-3.3-2c-2.9,0.3-5.2-1.1-7.4-2.8c-2.2-1.5-4-3.7-7.3-3.1c-1.9,0.4-2.7-1.4-2.2-3.3
			c2.6,0,5.2,0,7.8,0c1.9-0.1,3.8,2.1,5.8,0C40.6,9,44.8,8.4,49,9.1c2,0.5,3.5,1.5,4,3.6c0.3,0.3,0.6,0.6,0.8,0.9
			C53.7,15.7,57.2,17.3,54.8,19.7L54.8,19.7z"/>
		<path class="st61" d="M53,12.7c-1.2-0.9-2.4-1.8-3.6-2.7c-0.5-0.5-0.5-1.1,0-1.6c4.1-0.1,8.2-0.1,12.4-0.2c5,0,10,0.1,15,0.1
			c0.3,0.1,0.4,0.3,0.3,0.4C77,9,76.9,9,76.8,9c-1.2,0.4-2.4,0.9-3.7,1.3c0.7,0.3,1.3,0.5,2.6,1.1C67.8,12.9,60.3,11,53,12.7z"/>
		<path class="st62" d="M84.9,15.2c0.3,0,0.5,0,0.8,0c1,1.5-0.3,3,0,4.5c-1.4,1-3,0.8-4.5,0.3c-3.4-1-7-1.4-10.5-2
			c-2.9,0-5.8,0-8.7,0C69.5,15.6,77.1,15,84.9,15.2z"/>
		<path class="st63" d="M76.8,9c0-0.2,0-0.4,0-0.6c2.7,0.2,5.8-1.5,8,1.5c0,0.3-0.1,0.6-0.1,0.9c-1.1,0.9-1,1.8,0.1,2.6
			c0,0.3,0,0.6,0,0.9c-8.8,0-17.6,0.1-26.4,0.1c7-1.1,14.1-0.5,21.2-2.3C79.1,10.9,78.9,9.3,76.8,9z"/>
		<path class="st64" d="M70.7,17.9c5.1-0.6,10.1,0.3,15,1.7c0,0.3,0,0.6,0,0.9c-2.8,1.5-5.9,0.7-8.8,0.9
			C75.6,18.9,72.7,19.1,70.7,17.9z"/>
		<path class="st45" d="M54.8,19.7c0.4-2.1-1.6-3.9-0.9-6.1c0.9,1.2,2,2.4,2.8,3.7C58,19.6,56.4,19.7,54.8,19.7z"/>
		<path class="st65" d="M252.8,8.3c1.7,0.9,3.7-0.7,5.3,0.8c0.6,1.8,1.2,3.5,1.8,5.3c0,0.3,0,0.6,0,0.9c-2.2,1.1-4.8-0.1-7.1,0.9
			c-3.2,0-6.5,0-9.7,0c-0.9,0-1.8,0-2.6,0c-2.9-1.1-5.6,1.1-7.6,0.5c-1.4,0.3-0.7,1.1-0.9,0.6c-0.1-0.2,0-0.3,0.2-0.4
			c2.1-0.6,4-0.4,5.7,1.1c-0.2,1.6-2.6-0.1-2.6,1.8c0.1,2-0.9,2.5-2.6,1.8c-2.1-0.3-4.1,0.4-6.1,0.9c0.4-2,1.1-4,0.8-6.2
			c0.3-0.6,0.5-1.2,0.8-1.8c3.8-2.4,8-1.1,12-1.1c1.5,0.4,3,0.4,4.6-0.1c2.4-0.8,4.9-1,7.4-1.2c0.3,0,0.5,0.2,0.8,0.3
			c0.5,0,0.5-0.1,0.1-0.3c-0.2-0.2-0.4-0.5-0.5-0.8C252.2,10.3,251.9,9.2,252.8,8.3L252.8,8.3z"/>
		<path class="st14" d="M232.5,21.6c1.3,0,2.2-0.6,2.6-1.8c2.1,0.3,4.6-0.9,7.2,1.8C238.5,20.8,235.7,23.9,232.5,21.6z"/>
		<path class="st14" d="M237.8,18.1c-2.2,0.2-4.2-0.7-6.7-1.3c3.3-1.4,6.3-2.2,9.3-0.5C239.2,16.3,237.9,16.3,237.8,18.1z"/>
		<path class="st7" d="M21.2,14.6c-4,0.3-7.1,3.5-11.4,3.2c-1.5-0.1-2.6,0.3-2.8-1.5c-0.6-1.2-0.6-2.3,0.7-3.1
			c3.6-0.9,7.1-0.9,10.7,0c0.6,0.1-0.1-0.8,0-0.2c-2.3-0.1-3.3-1.4-3.4-3.6c0.6,0,1.2-0.1,1.8-0.1c0.8-0.6,1.7-0.4,2.6-0.3
			c2.1,0.7,3.6,1.9,4.1,4.2C23.2,14.5,22.8,15.5,21.2,14.6z"/>
		<path class="st66" d="M15,9.3c1.5,1.3,2.4,3.2,4.3,4.4c-3.8,0-7.6,0-11.4,0C6.7,12,6.6,10.2,8,8.5C10.3,8.9,12.8,7.7,15,9.3z"/>
		<path class="st67" d="M19.4,9.3c-0.9,0-1.8,0-2.6-0.1c0.9-1.1,2.1-0.8,3.3-0.8c9.8,0,19.6,0,29.4,0c0,0.5,0,1,0,1.6
			C44.8,8.3,40,9.6,35.3,9.3c-1.2,0.9-2.4,0.5-3.5,0c-3.2,0-6.5,0-9.7,0C21.2,9.9,20.3,9.9,19.4,9.3z"/>
		<path class="st68" d="M8,8.5c0,1.7-0.1,3.5-0.2,5.2C6.9,14.4,7,15.3,7,16.3C5.3,13.8,6.5,11,6.2,8.4C6.8,8.5,7.4,8.5,8,8.5z"/>
		<path class="st2" d="M189.2,21.8c0-0.9,0-1.8,0-2.6c4.5-2.8,9.5-2,14.5-1.8c2.7,2.3,6.5,1.7,9.4,3.5c-3.2,1.3-6.3,1.6-9.4-0.4
			c-2.8-1.8-6.2-0.2-9.1-1.3c-0.9,2,1.8,1.2,1.6,2.7C193.8,21.8,191.5,21.8,189.2,21.8z"/>
		<path class="st69" d="M216.5,15.5c0.3,1.5,0.6,2.9,0.9,4.4c-0.6,0-1.2,0-1.7,0c-0.2,0-0.4,0-0.6,0c-1.2-0.2-2.2-0.7-3.4-1
			c-0.4-0.1-0.8-0.2-1.3-0.3c-0.9-0.1-1.8-0.2-2.6-0.6c-1.3-0.6-1.6-1.6-0.2-2.1C210.6,14.9,213.5,13.3,216.5,15.5z"/>
		<path class="st51" d="M213.1,20.8c-3.2-0.1-6.7,0.8-8.9-2.6c2.6-1.3,5.3-0.4,8,0l0,0c1,1,2.4,1.1,3.5,1.7l0,0
			C215.1,21,214,20.8,213.1,20.8z"/>
		<path class="st66" d="M138.8,14.1c0-1.8-0.2-3.6,0.9-5.3c2.1,0,4.1,0.1,6.2,0.1c0.6,2.4,2.9,3,4.6,5.1
			C146.5,14,142.6,14.1,138.8,14.1z"/>
		<path class="st70" d="M21.2,14.6c1.1,0,1.7-0.6,1.8-1.8c1.5-0.6,2.2,0.6,3.2,1.3c1.3,1.6,4.2,2,3.9,4.9c-1.5-0.3-3-0.6-4.5-0.8
			c-2.9,0-5.9,0-8.8,0c1.2-1.5,3-1.5,4.7-1.9C23.1,15.8,21.1,15.2,21.2,14.6z"/>
		<path class="st71" d="M30.1,18.9c-0.9-2.1-3.5-2.4-4.5-4.3c0.3-2.4,1.8-2.7,3.7-2c1.2,0.5,2.4,1.1,3.4,1.9
			c2.4,1.2,4.7,2.3,7.1,3.5c-1.2,0.6-0.7,2.8-2.7,2.7C34.7,20.1,32.4,19.5,30.1,18.9z"/>
		<path class="st72" d="M252.8,16.2c2.2-1.8,4.7-0.5,7.1-0.9c0.3,0.3,0.6,0.6,0.9,0.9c-2.4,0.3-4.9-0.8-7.1,0.8
			C253.4,16.8,253.1,16.5,252.8,16.2z"/>
		<path class="st73" d="M180.3,9.4c2.5-1.5,5.3-0.4,8-0.8c6.5,0,13,0,19.4,0.1c0.2,0.4,0.2,0.8-0.2,1.1c-2.5,3.9-4.6,4.5-9.6,2.3
			c-4.5,0.2-9-0.6-13.4,1C182.5,12.7,181.4,11,180.3,9.4z"/>
		<path class="st74" d="M207.7,9.4c0-0.2,0-0.5,0-0.7c2.4-0.1,4.7-0.1,7.1-0.2c0.3,0.9,0.6,1.7,1,2.6c-3.8,3.7,2.8,0.7,1.7,2.6
			c-0.3,0.3-0.6,0.6-0.9,0.9c-4.2,0.8-8.5,1-12.8,1.4c-1.7,0.2-3.5,0.1-4.8-1.3c-3.2,0-6.4,0-9.6,0c0-0.2,0-0.5-0.1-0.7
			c2.9-0.4,5.9-0.7,8.8-1.1c2.3-1,4.6-0.4,6.9-0.4C207.3,12.5,208.1,11.6,207.7,9.4z"/>
		<path class="st75" d="M241.3,14.6c-4.4,0-8.9,0-13.3,0c-0.6-2.2,0.1-4.2,1-6.1c3.8,0,7.7-0.1,11.5-0.1c3.2,0.3,6.5,0.5,9.7,0.8
			c0.9,1.4,0,2.1-1.1,2.7c-1.4,0.5-2.9,0.8-4.3,1.2C243.2,12.6,242.9,15.2,241.3,14.6z"/>
		<path class="st76" d="M248.4,11c1.2,0,1.7-0.7,1.8-1.8c0.9-0.3,1.7-0.6,2.6-0.8c0.1,1.2,0.9,2.3,0,3.5
			C251.2,12,249.4,13.9,248.4,11z"/>
		<path class="st77" d="M120.1,8c-3.8,0-7.6,0-11.5,0c0-0.3,0-0.6,0-0.9c3.8,0,7.6,0.1,11.4,0.1c0.1,0,0.2,0.2,0.2,0.3
			C120.3,7.7,120.2,7.9,120.1,8z"/>
		<path class="st78" d="M96.4,18.7c0-1.5,0-3,0-4.4c0.3,0,0.6,0,0.8,0C97,15.8,97.7,17.4,96.4,18.7z"/>
		<path class="st79" d="M128.9,12.3c-1.5,0.1-3,0-4.3-0.8c1.1-2.3-1.3-1.1-1.8-1.7c-0.3-0.3-0.6-0.6-0.9-0.9
			c0.3-0.3,0.6-0.6,0.9-0.9c1.3-0.9,2.8-0.3,4.1-0.4C129,8.6,129.7,10.2,128.9,12.3L128.9,12.3z"/>
		<path class="st80" d="M127.2,8c-1.5,0-2.9,0-4.4,0c0-0.3,0-0.6,0-0.9c1.5,0,3,0,4.4,0c0.2,0.2,0.2,0.4,0.2,0.6
			C127.4,7.9,127.3,8,127.2,8z"/>
		<path class="st81" d="M127.2,8c0-0.3,0-0.6,0-0.9c0.9,0.3,1.7,0.6,2.6,0.9c0.5,0.5,0.7,1.1,0.7,1.8c-0.3,0.8,0,1.8-0.6,2.5
			c-0.3,0-0.7,0-1,0C128.4,10.9,127.8,9.4,127.2,8z"/>
		<path class="st82" d="M130,12.3c0-0.8,0-1.7-0.1-2.5c0.8-0.3,1.1-0.1,0.9,0.7c0.5,1.1,1,2.3,0.8,3.6
			C131.1,13.5,130.6,12.9,130,12.3z"/>
		<path class="st83" d="M130.8,10.5c-0.3-0.2-0.6-0.5-0.9-0.7c0-0.6,0-1.2,0-1.8c0.5-0.1,1.4-0.3,1.5-0.1
			C131.8,8.8,131.8,9.8,130.8,10.5z"/>
		<path class="st84" d="M259.9,17.1c0.3,0,0.6,0,0.9,0c0.3,0,0.6,0,0.9-0.1c0,1,0.2,2.1-0.9,2.7c-0.5,0-1.3,0.3-1.5,0.1
			C258.7,18.8,259.6,18,259.9,17.1z"/>
		<path class="st85" d="M198.9,14.7c5.9,0,11.8-0.1,17.6-0.1c0,0.3,0,0.6,0,0.9c-2.9-0.3-5.7,0.7-8.8,1.2c1.4,1.3,3.5-0.1,4.5,1.5
			c-2.7,0-5.3,0-8,0c-5,0.4-10.1-0.9-15,0.9c-0.6-1.4,0.1-1.4,1.3-1.9C193.2,16.3,196.8,17.7,198.9,14.7z"/>
		<path class="st86" d="M217.4,13.7c-1.7,0-3.4,0-5.2,0c0.4-2.1,1.7-2.7,3.5-2.7c0.6,0,1.1,0,1.7,0
			C217.4,11.9,217.4,12.8,217.4,13.7z"/>
		<path class="st87" d="M84.8,13.4c-1-0.1-2.6,0.3-2.4-1.5c0.1-1.4,1.4-1.1,2.3-1.2C84.8,11.7,84.8,12.5,84.8,13.4z"/>
		<path class="st88" d="M122.8,9.7c0.4-0.2,0.8-0.4,1.1-0.6c1.2-0.5,2.5-0.4,2.8,0.9c0.4,1.8-2.1,0-2.2,1.4c-0.3,0-0.6,0-0.9,0
			C122.2,11.5,122.4,10.7,122.8,9.7z"/>
		<path class="st89" d="M207.7,9.4c0.8,0.8,1.6,1.7,3.3,3.5c-5.1,0-9.1,0-13.1,0.1c0-0.3,0-0.6,0-0.9c2.6,0,5.2,0,7.9,0
			c-0.5-1.5-2.7-0.4-2.8-2.2C204.6,8.9,206.2,9.6,207.7,9.4z"/>
		<path class="st90" d="M32.7,14.5c-2.4-0.1-4.8-3.2-7.1,0.1c-0.9-0.6-1.7-1.2-2.6-1.8c-1.2-1.2-2.4-2.3-3.5-3.5c0.9,0,1.8,0,2.7,0
			c1.5,1,2.2,2.8,4.9,1.4C28.2,10.1,31.2,12.5,32.7,14.5z"/>
		<path class="st91" d="M31.8,9.3c1.2,0,2.4,0,3.5,0c0.4,0.7,0.8,1.4,1.4,2.4C34.3,12,33.2,10.2,31.8,9.3z"/>
		<path class="st92" d="M248.4,11c1.2,1.5,2.9,0.6,4.4,0.8c0,0,0,0,0,0c0.2,0.2,0.3,0.4,0.2,0.6c-0.1,0.2-0.1,0.3-0.2,0.3
			c-2.7,0.6-5.3,1.1-8,1.7c-1-0.6-1.9-1.3-0.9-2.6C245.5,11.6,246.9,11.3,248.4,11z"/>
		<path class="st93" d="M244,11.9c0.3,0.9,0.6,1.7,0.9,2.6c-1.2-0.1-2.3,1.5-3.6,0.1C242.5,14,242,11.7,244,11.9z"/>
		<path class="st76" d="M252.8,12.7c0-0.3,0-0.6,0-0.9c1.1,0.1,2.4-0.3,2.9,1.2C254.7,13.9,253.7,13.7,252.8,12.7z"/>
		<path class="st2" d="M215.7,19.9c-1.5,0.1-2.9-0.2-3.5-1.7C213.6,18.3,214.8,18.8,215.7,19.9z"/>
	</g>
</g>
</svg>
