<?xml version="1.0" encoding="utf-8"?>
<!-- Generator: Adobe Illustrator 27.3.1, SVG Export Plug-In . SVG Version: 6.00 Build 0)  -->
<svg version="1.1" id="Layer_1" xmlns="http://www.w3.org/2000/svg" xmlns:xlink="http://www.w3.org/1999/xlink" x="0px" y="0px"
	 viewBox="0 0 64.3 64.3" style="enable-background:new 0 0 64.3 64.3;" xml:space="preserve">
<style type="text/css">
	.st0{fill:#FFFFFF;}
</style>
<g>
	<path class="st0" d="M41.7,63.8c-6.4,0-12.7,0-19.1,0c-0.4,0-0.8-0.1-1.2-0.1c-2.5-0.1-5-0.2-7.5-0.8c-5.2-1.3-9.1-4.2-11.5-9.1
		c-1.4-3-1.9-6.3-1.9-9.6c-0.1-6.8-0.1-13.7-0.1-20.5c0-3.3,0-6.6,0.8-9.8C2.8,8.3,6,4.3,11.4,2.1c2.9-1.2,5.9-1.5,9-1.5
		c6.4-0.1,12.9-0.1,19.3-0.1c3.4,0,6.8,0,10.1,0.7C56,2.5,60.3,6.1,62.5,12c1,2.9,1.3,5.9,1.3,8.9c0,7.3,0,14.6,0,21.9
		c0,2.1-0.2,4.2-0.5,6.2c-0.7,4.2-2.5,7.8-5.9,10.5c-3.2,2.7-7.1,3.7-11.2,4C44.7,63.7,43.2,63.7,41.7,63.8z M32.2,58.2L32.2,58.2
		c1.7-0.1,3.3,0,5-0.1C40.8,58,44.5,58,48,57.6c4.9-0.6,8.2-3.4,9.4-8.3c0.5-1.9,0.6-4,0.7-6c0.1-5.9,0.2-11.8,0.1-17.6
		c0-3.1-0.1-6.2-0.5-9.2c-0.6-5.1-3.8-8.6-8.8-9.5c-2.2-0.4-4.5-0.6-6.7-0.6c-5.9-0.1-11.9-0.1-17.8,0c-2.8,0-5.5,0.1-8.3,0.5
		C11.2,7.5,8,10.7,7,15.4c-0.4,2.1-0.6,4.2-0.6,6.3C6.3,26.9,6.2,32,6.3,37.1c0,3.5,0.1,7.1,0.5,10.6c0.4,3.6,2.1,6.6,5.3,8.4
		c2,1.1,4.2,1.6,6.5,1.7C23.1,58,27.6,58.1,32.2,58.2z"/>
	<path class="st0" d="M15.9,32.1c0-9,7.3-16.3,16.3-16.3S48.4,23,48.5,32c0,9-7.3,16.3-16.3,16.3C23.2,48.4,15.9,41.1,15.9,32.1z
		 M32.2,42.7c5.8,0,10.5-4.7,10.5-10.5S38,21.7,32.2,21.6c-5.9,0-10.6,4.7-10.6,10.6C21.7,38,26.4,42.7,32.2,42.7z"/>
	<path class="st0" d="M49.2,11.4c2.1,0,3.8,1.8,3.7,3.9S51.1,19,49,19c-2.1,0-3.8-1.8-3.7-3.9C45.4,13,47.1,11.4,49.2,11.4z"/>
</g>
</svg>
