<?xml version="1.0" encoding="utf-8"?>
<!-- Generator: Adobe Illustrator 27.0.1, SVG Export Plug-In . SVG Version: 6.00 Build 0)  -->
<svg version="1.1" id="Layer_1" xmlns="http://www.w3.org/2000/svg" xmlns:xlink="http://www.w3.org/1999/xlink" x="0px" y="0px"
	 viewBox="0 0 50 50" style="enable-background:new 0 0 50 50;" xml:space="preserve">
<style type="text/css">
	.st0{fill:#FFFFFF;}
</style>
<path class="st0" d="M0,45.7C0,31.9,0,18.1,0,4.3c0-0.1,0.1-0.1,0.1-0.2c0.2-1.2,0.8-2.2,1.8-2.9C2.6,0.5,3.4,0.2,4.3,0
	c13.8,0,27.6,0,41.4,0c0.1,0,0.1,0.1,0.2,0.1C48.4,0.6,50,2.6,50,5.2c0,13.2,0,26.5,0,39.7c0,0.5,0,0.9-0.2,1.4
	c-0.6,2.3-2.6,3.8-5,3.8c-13.2,0-26.4,0-39.6,0c-0.1,0-0.3,0-0.4,0c-1.4-0.1-2.6-0.7-3.5-1.7C0.6,47.6,0.3,46.6,0,45.7z M42.5,42.5
	c0-0.1,0-0.2,0-0.3c0-4.6,0-9.2,0-13.9c0-3-1.3-5.5-3.8-7.2c-2.7-1.9-6-2.2-8.9-0.2c-0.8,0.5-1.5,1.2-2.2,1.9c0-0.9,0-1.8,0-2.7
	c-2.5,0-5,0-7.5,0c0,7.5,0,15,0,22.4c2.5,0,4.9,0,7.5,0c0-0.2,0-0.4,0-0.6c0-4,0-8.1,0-12.1c0-0.3,0-0.7,0-1
	c0.2-2.2,2.6-3.8,4.7-3.1c1.7,0.5,2.7,2,2.7,3.9c0,4.1,0,8.2,0,12.4c0,0.2,0,0.4,0,0.6C37.5,42.5,40,42.5,42.5,42.5z M15,42.5
	c0-7.5,0-15,0-22.4c-2.5,0-5,0-7.4,0c0,7.5,0,15,0,22.4C10,42.5,12.5,42.5,15,42.5z M15.7,11.2c0-2.5-2-4.5-4.5-4.5
	c-2.5,0-4.5,2-4.5,4.5c0,2.5,2,4.5,4.5,4.5C13.7,15.7,15.7,13.7,15.7,11.2z"/>
</svg>
