<?xml version="1.0" encoding="utf-8"?>
<!-- Generator: Adobe Illustrator 27.6.1, SVG Export Plug-In . SVG Version: 6.00 Build 0)  -->
<svg version="1.1" id="Layer_1" xmlns="http://www.w3.org/2000/svg" xmlns:xlink="http://www.w3.org/1999/xlink" x="0px" y="0px"
	 viewBox="0 0 44 44" style="enable-background:new 0 0 44 44;" xml:space="preserve">
<style type="text/css">
	.st0{fill-rule:evenodd;clip-rule:evenodd;fill:#FFFFFF;}
</style>
<path class="st0" d="M2.4,4.9C1.1,4.9,0,6,0,7.3c0,1.3,1.1,2.4,2.4,2.4h39.1c1.3,0,2.4-1.1,2.4-2.4c0-1.4-1.1-2.4-2.4-2.4H2.4z
	 M0,22c0-1.4,1.1-2.4,2.4-2.4h39.1c1.3,0,2.4,1.1,2.4,2.4c0,1.4-1.1,2.4-2.4,2.4H2.4C1.1,24.4,0,23.4,0,22z M0,36.7
	c0-1.4,1.1-2.4,2.4-2.4h39.1c1.3,0,2.4,1.1,2.4,2.4c0,1.4-1.1,2.4-2.4,2.4H2.4C1.1,39.1,0,38,0,36.7z"/>
</svg>
