<?xml version="1.0" encoding="utf-8"?>
<!-- Generator: Adobe Illustrator 27.3.1, SVG Export Plug-In . SVG Version: 6.00 Build 0)  -->
<svg version="1.1" id="Layer_1" xmlns="http://www.w3.org/2000/svg" xmlns:xlink="http://www.w3.org/1999/xlink" x="0px" y="0px"
	 viewBox="0 0 876.2 137.8" style="enable-background:new 0 0 876.2 137.8;" xml:space="preserve">
<style type="text/css">
	.st0{fill:#FFFFFF;}
</style>
<g>
	<g>
		<path class="st0" d="M19.2,114c-0.8,4.1-1.6,9.3-2.9,14.4c-0.9,3.5-0.8,8.9-6.3,8c-5.4-0.8-4.1-5.9-3.8-9.6
			c0.4-5.2,1.4-10.3,2.2-15.5c-7.5,1.4-9-0.1-7.7-7.7c1-6.1,2.7-12.1,3.5-18.3c0.7-4.9,0.5-9.9,0.9-14.9c0.3-3.2,0.9-6.5,1.6-9.7
			c2.1-10.2,4.3-20.3,6.4-30.5c1.3-6.3,3.3-12.1,9.6-15.1c4.9-2.4,10.1-1.3,13.5,2.4c2.8,3,4.4,7.5,5.4,11.5
			c1.2,5.4,1.2,11.1,1.7,16.6c0.5,0.1,1.1,0.2,1.6,0.3c0.9-2.1,1.6-4.3,2.7-6.3c3.1-5.5,5.6-11.6,9.7-16.3c8-9.1,19.6-6.1,22.8,5.6
			c2.3,8.4,2.7,16.9,2.2,25.8c-0.5,10,1.9,20.3,3.8,30.3c0.9,4.5,2,8.1-0.2,12.8c-1.6,3.4-0.8,8-1.5,12c-0.4,2.3-1.2,5.1-2.8,6.3
			c-0.9,0.7-3.9-1.2-6.5-2.1c-0.4,1.8-0.6,4.3-1.5,6.4c-0.7,1.5-2.4,2.6-3.7,3.8c-1.1-1.4-2.6-2.6-3.3-4.1c-0.8-1.9-0.8-4.1-1.2-6.9
			c-1.2,1.6-2,2.9-3.1,3.9c-2.4,2-5,2.2-5.7-1.3c-1-4.7-1.8-9.6-1.7-14.3c0.4-14.4,1.3-28.7,1.8-43.1c0.1-2.2-0.3-4.4-0.5-6.6
			c-0.5-0.1-1-0.1-1.5-0.2c-0.7,2.2-1.5,4.4-2.1,6.7c-1.8,7.3-3.3,14.8-5.4,22c-0.6,2.1-3.1,3.7-4.7,5.5c-0.9-2.1-2.2-4.1-2.6-6.4
			c-0.5-2.6-0.1-5.4-0.1-8.1c0-2.8,0.8-5.8-3.5-6.8c-1-0.2-1.6-2.8-2-4.5C34,58.2,34,56,33.8,53.7c-0.6,0-1.1-0.1-1.7-0.1
			c-0.4,3.6-1.1,7.3-1.1,10.9c0.1,14.2,0.4,28.4,0.6,42.5c0,1.4,0.2,2.7,0,4.1c-0.5,3.8,1.4,9.5-4.2,9.9
			C25,121.2,22.1,116.7,19.2,114z"/>
		<path class="st0" d="M399.5,106.5c-0.6,3.8-0.8,7.8-2.1,11.3c-0.9,2.3-3.5,4-5.3,6c-1.6-2.3-4.3-4.4-4.7-6.9
			c-0.6-3.7,0.3-7.6,0.5-10.7c-2.6,0.2-6.6,1.5-7.4,0.4c-1.6-2.1-1.8-5.5-2-8.4c-0.1-1.8,0.7-3.8,1.3-5.6c2.9-9.4,7.4-11.8,16.7-8.8
			c1.8,0.6,3.7,1.3,5.5,1.8c6.2,1.7,10.8,0.1,12.4-4.2c1.5-4.2-1-11.1-5.8-12.6c-5.4-1.8-8.7-5.3-11.8-9.7c-1.7-2.4-4.8-3.8-7.2-5.7
			c-2-1.5-5.1-2.8-5.6-4.7c-2.1-7.5-4.8-15.2-4.4-22.7c0.4-5.6,4.6-11.5,8.3-16.3c8.6-11,23-9.9,34.7-4c8.8,4.5,11.5,12.8,11,22.1
			c-0.1,2.6-2.1,7.1-3.2,7.1c-3.4-0.1-7.1-1.4-10-3.2c-2-1.2-2.8-4.1-4.4-6.1c-3.3-4.3-5.8-4-8.1,0.7c-0.2,0.4-0.3,0.7-0.5,1.1
			c-4.9,12.8-3.3,15.2,9,22.2c7.8,4.4,15,10.4,21.1,17c3.1,3.4,4.5,9.6,4.3,14.5c-0.3,7.4-2.4,14.8-4.3,22.1
			c-0.4,1.5-3.3,3.5-4.9,3.4c-6.2-0.4-12.3-1.6-18.5-2.3c-1.4-0.2-2.9,0.6-4.3,1.1c-2.9,0.9-5.8,1.8-8.7,2.6
			C400.5,107.4,400,106.9,399.5,106.5z"/>
		<path class="st0" d="M708.8,44c0.3,2.7,1.1,5.2,0.5,7.3c-0.4,1.7-2.4,3.4-4,4.1c-0.8,0.3-3.8-1.7-3.7-2.5c0.6-8-8.4-9-9.4-15.7
			c-0.8,0.1-1.6,0.1-2.3,0.2c-1.2,2.8-2.8,5.5-3.5,8.4c-1.8,7.9-3,15.8-4.7,23.7c-2.1,10,5.3,22.3,16.7,27.3
			c5.9-5.3,6.6-17.1,18.6-16.1c1.3-1,3.2-2.4,5-3.8c1.5,2.3,3.5,4.4,4.4,6.9c1.7,5.1,0.6,10-2.6,14.3c-4.3,5.8-8.3,11.7-13,17.2
			c-1.3,1.5-4.4,2.1-6.7,2.2c-6.1,0.1-12.3-0.7-18.4-0.5c-4.8,0.1-8-1.6-10.5-5.8c-3.7-6.1-7.7-11.9-11.7-17.8
			c-6.8-10-7.5-20.9-5.2-32.4c1.4-6.9,2.8-13.5,2.4-20.9c-0.4-9.1,6.4-16.9,15.1-20.4c20.3-8.2,31.1-2.8,38.3,16
			C716.2,41.1,714.7,42.9,708.8,44z"/>
		<path class="st0" d="M284.4,95.7c-5.4,3.5-7.3,0.5-8.6-3.7c-0.9-3.2-2.2-6.2-3.1-9.4c-1.3-4.2-2.7-7.6-8.3-6.4
			c-1.3,0.3-3.3-1.5-4.5-2.8c-1.5-1.6-2.5-3.6-3.7-5.4c-0.6,0.3-1.1,0.7-1.7,1c2.2,3.7,4,7.7,6.5,11.1c5.9,7.8,9.3,16.5,10.7,26.1
			c0.5,3.2-0.2,5.4-3.5,7c-1.8,0.9-2.9,3.3-4.4,4.9c-1.1,1.2-2.4,2.1-3.5,3.2c-1-1.3-2.4-2.4-3-3.9c-0.8-1.9-1-4.1-1.5-6.2
			c-5.4,1.9-7.1,0.7-7.5-5c-0.3-5.2,0.8-11.1-1.2-15.5c-3.8-8.3-9.5-15.8-14.4-23.6c-1.3-2.1-3.3-4-3.7-6.2
			c-1.1-6.1-1.7-12.3-2.1-18.5c-0.3-5.4,2.3-7.4,7.6-6.5c13.1,2.4,24.2,8.8,34.1,17.4c2,1.7,3.1,4.4,4.5,6.7
			c2.2,3.6,4.2,7.3,7.4,10.6c-0.1-1.6-0.1-3.1-0.4-4.7c-1.3-6.6-2.9-13.2-3.9-19.9c-0.4-2.4,0.8-4.9,1.2-7.4
			c2.2,0.7,4.4,1.4,5.4,1.7c4.1-0.7,7.6-2.4,10.5-1.7c4.7,1.2,4.3,6,4,9.8c-1.3,17.5,0.8,34.6,4.5,51.7c0.4,2.1-1.3,4.7-1.8,7
			c-0.6,2.9-0.8,5.9-1.7,8.6c-0.7,2.1-2.1,3.9-3.2,5.8c-1.5-1.5-3.7-2.7-4.3-4.5C288.3,110.3,286.5,103.2,284.4,95.7z"/>
		<path class="st0" d="M465.6,81c0.4,3.5,0.9,8.3,1.4,13c0.3,2.7,0.7,5.4,0.8,8.1c0.3,4.9-1.6,6.7-5.4,4.3c-2.4,2.8-4.6,5.4-6.7,7.9
			c-1.4-2.7-2.9-5.4-4.7-8.9c-6.5-2.2-5.6-2.2-5.1-10.8c0.6-11.6-0.5-23.4-1-35.1c-0.1-1.4-1.4-2.8-1.8-4.2
			c-1.2-3.9-3.1-7.9-3.2-11.9c-0.2-7.2,3.7-12.1,8.3-12c7.3,0.2,14,6.7,14.5,13.4c0.5,7.2,1.5,14.4,2.3,21.1
			c5.7,0.4,10.1,1.1,14.4,0.8c1.2-0.1,3.4-3.1,3.2-4.4c-0.9-4.7-3-9.2-4-13.8c-0.8-3.4-1.5-7.2-0.8-10.5c0.4-1.7,4-4,6-3.9
			c3.2,0.2,5.4-0.1,8.3-2c3.7-2.5,5.8,0.9,6.1,4.3c0.4,4.4-0.3,8.9,0.1,13.4c0.4,5.6,1.4,11.1,2,16.6c0.3,3.2,0.3,6.5,0.5,9.7
			c0.3,5.2,0.2,10.5,1.3,15.5c1.1,5.2,2.3,9.8-1.3,14.9c-1.9,2.7-1.7,6.9-2.5,10.4c-0.5,0.2-1.1,0.4-1.6,0.6c-1.2-1.7-2.3-3.4-3.6-5
			c-2-2.6-3.7-6.5-6.4-7.3c-4.3-1.4-4.1-3.8-4-7c0.2-4.3,0.4-8.6,0.1-12.8c-0.4-6-3.5-7.2-8.6-4.5C472.2,81.8,469.4,81,465.6,81z"/>
		<path class="st0" d="M538.5,99.5c-1-2.8-2.3-5.5-2.9-8.4c-0.6-2.7-1-5.7-0.7-8.4c0.5-4.8,2-9.6,2.1-14.4c0.1-3.2-1-6.8-2.6-9.7
			c-2.5-4.6-3.1-22.3,0.7-25.7c2.5-2.3,7.1-4.3,10.1-3.6c7.5,1.7,15,4.3,21.8,7.9c11.7,6.3,15.8,21.8,10.3,33.9
			c-0.7,1.5-0.3,4.1,0.6,5.5c5.1,7.8,3.7,23.8-2.9,30.4c-5.5,5.6-16,6-23.1,0.5c-3.2-2.4-5.4-3.4-9.2-0.8
			C538.9,109.6,537.3,107.4,538.5,99.5z M553.9,50.2c0,4.2-0.4,7.9,0.2,11.4c0.2,1.6,2.2,2.9,3.4,4.4c1.6-1.5,4-2.7,4.6-4.6
			C563.2,57.4,559.4,52,553.9,50.2z M556.5,96.9c5.3-1.9,7.7-5.7,5.8-9c-0.6-1.1-2.3-2-3.5-2.1c-0.6-0.1-2.1,1.6-2.2,2.6
			C556.3,91.1,556.5,93.9,556.5,96.9z"/>
		<path class="st0" d="M125.4,102.2c-2.7,3.3-2.6,12.1-10.7,4.6c-0.9,3-1.2,5.5-2.3,7.6c-0.9,1.7-2.6,3-3.9,4.5
			c-1.6-1.4-3.7-2.6-4.6-4.4c-1.2-2.1-1.4-4.7-2-7.1c-7.9,2.5-8,1.5-8.9-6.4c-1.2-11.1-2.3-22.2-6.1-33.1
			c-2.5-7.2-1.4-16.1-0.6-24.1c0.4-4.2,7.5-6.4,12.4-4.9c4.3,1.3,7,7,6.9,12.3c-0.3,11.2-0.3,22.4,0.2,33.6c0.1,2.1,2.7,4,4.2,6.1
			c2.5-1.8,6.7-3.3,7.1-5.4c1.3-8.4,1.6-16.9,1.8-25.4c0.1-3-0.9-6.1-1.5-9.2c-1.3-7.3,1.8-13.4,7.5-14.3c8.7-1.5,15,2.1,15.8,9.9
			c0.6,6-0.8,12.2-0.7,18.2c0.2,9.9,0.8,19.7,1.4,29.6c0.2,4.1,1.1,8.1,0.8,12.1c-0.1,1.6-2,3.6-3.5,4.6c-0.6,0.4-2.6-1.5-4-2.4
			C131.6,106.6,128.7,104.5,125.4,102.2z"/>
		<path class="st0" d="M586.9,106.7c-1.2,0-4.4,0.7-4.8-0.1c-0.9-1.8-1.2-4.6-0.4-6.4c3.8-9.4,4.1-19.3,4.3-29.2
			c0-0.8,0.4-1.8,0-2.3c-5.8-7.9-0.7-15.5,0.7-23.3c0.4-2.3,0.9-4.6,1.3-6.9c1.1-8.2,3.1-9.8,11.4-9c8,0.8,14.3,4.5,16.9,12.3
			c5.6,16.9,10.7,34,15.9,51c1.5,5,3,10,4.5,15.1c1.2,3.9,1.2,7.6-3.1,9.4c-4.2,1.8-5.5-2-7.6-4.5c-1.4-1.7-3.6-2.8-5.3-4.3
			c-1.2-1.1-2.6-2.3-3-3.7c-0.7-2.4-0.9-5-1.1-7.5c-0.4-5.2-1-9.9-8.3-8.9c-1.2,0.2-2.7-1.2-5.3-2.4c0.5,5.9,1,11.2,1.5,16.4
			c0.6,6.3-0.6,7.3-5.8,5.7c-2.5,2.9-4.8,5.6-7.1,8.2C589.9,113.1,588.4,109.8,586.9,106.7z M609.9,72.2c-0.5-5.2-0.8-9.4-1.2-13.5
			C604.5,63.9,605,68.7,609.9,72.2z"/>
		<path class="st0" d="M223.9,95.5c-5.1,0-9.2,0-14.3,0c-2.3,4.6-1.6,10.2-0.4,15.8c0.7,3,2,5.9,2.3,9c0.1,1.3-1.5,2.8-2.3,4.1
			c-1.2-0.8-3.2-1.3-3.5-2.3c-1.9-7.6-8.4-6-13.1-5.9c-5.3,0.1-5.4-1.8-4.7-5.8c1.4-8.7,2.8-17.3,3.7-26c1.1-11.7,1.5-23.4,2.7-35.1
			c0.5-4.7,0.5-10.5,7.8-10.9c14.8-0.9,17.2-0.2,19.2,9.1c2.7,12.5,7.7,23.9,14.6,34.6c6.1,9.5,8,20,6.3,31.2
			c-0.1,0.9-0.8,2.5-0.9,2.5c-5.9-1.3-6.8,4.6-10.3,6.8c-1-1.5-2.5-2.9-2.8-4.5c-1.4-7-2.4-14.1-3.6-21.1
			C224.5,96.3,224,95.7,223.9,95.5z M218.5,80.4c-2.1-4.6-3.9-8.4-5.7-12.2c-0.4,0.2-0.9,0.3-1.3,0.5c-0.2,3.9-0.5,7.8-0.7,11.8
			C213.1,80.4,215.1,80.4,218.5,80.4z"/>
		<path class="st0" d="M869.8,59.4c-3.9,5.5,0,10.3,3,16.1c4.8,9.3,1.2,20-6.2,27.3c-3.1,3-5.5,5.1-10.1,5.1c-2,0-4.2,3-5.9,5
			c-5.3,6.3-9.5,5.8-12.1-1.9c-1.1-3.1-1.9-5.1-5.9-4.9c-1.3,0.1-3.6-2.4-3.9-4c-0.4-2.6,0.5-5.3,0.7-8c0.4-5.1,2.3-10.4-1.6-15.1
			c-0.4-0.5-0.5-1.5-0.5-2.2c-0.4-10.1-1.3-20.2-1.1-30.3c0.1-8.2,3.6-9.4,11-6.3c4.1,1.7,9,2.2,13.4,2
			C861.4,41.9,869.9,48.6,869.8,59.4z M851.4,80.7c-0.6,0.7-1.2,1.3-1.7,2c0.3,3,0.6,6.1,1,9.1c0.5,4.4,3.6,4.9,6,2.5
			c2-1.9,4.3-6.5,3.3-8C858.4,83.7,854.4,82.5,851.4,80.7z M840,59.2c2.5,1.9,4.1,4,5.5,3.9c1.8-0.1,3.6-1.9,5.4-3
			c-1.8-2.3-3.6-4.5-5.4-6.8C844,54.9,842.5,56.5,840,59.2z"/>
		<path class="st0" d="M772,87.4c0.3-3.7,0.7-6.8,0.8-9.9c0.1-1.9,0.4-4.5-0.6-5.6c-6.2-6.9-4.3-15.4-5.1-23.3
			c-0.2-2.4,1.5-7,2.7-7.2c2.9-0.4,6.9,0.5,9,2.4c5.1,4.7,9,10,8.5,18c-0.4,7.7,0.8,15.5,1.6,23.2c0.6,6,5.2,9.4,11,8.5
			c4.3-0.7,6.7-2.1,5.5-7.7c-2.2-10.8-3.2-21.8-4.5-32.8c-0.2-1.5,0-3.1,0.3-4.6c1.3-8.4,4.9-11.7,11.5-10.7
			c6.3,0.9,10.9,7.3,10.1,14.2c-1,8-2.9,16-3.2,24c-0.3,7.1,1.4,14.3,1.3,21.4c0,3-1.8,6.2-3.5,8.9c-1.2,1.9-3.7,2.8-5.3,4.5
			c-3.7,3.9-7.4,3.5-12.1,1.3c-2.9-1.4-7-1.7-10.2-0.9c-5.5,1.4-14-2.2-15.5-7.7c-0.8-2.8-1.2-5.7-1.7-8.6
			C772.3,92.3,772.1,89.6,772,87.4z"/>
		<path class="st0" d="M158.4,60.5c-3.7,1.3-5.9,2.1-9.1,3.2c0.2,1.9,0.9,5,0.8,8.2c-0.1,1.5-1.7,3-2.6,4.4
			c-1.2-1.2-3.5-2.4-3.5-3.6c-0.2-11.6-0.5-23.2,0.2-34.8c0.3-5,3.3-5.2,7.9-3.2c3.7,1.6,8,1.9,12.1,2.4c4.4,0.5,8.8,0.6,13.2,0.9
			c1.9,0.1,4.2,1.3,5.6,0.6c5.1-2.5,6.6,0.6,6.8,4.4c0.4,7.5,0.6,15.1,0.1,22.6c-0.3,4.1-3.5,5-6.5,2.2c-2.5-2.3-4.7-5-7.1-7.4
			c-0.9-0.9-2.6-2.1-3.3-1.8c-1.1,0.5-1.8,2.1-2.4,3.4c-0.4,0.8-0.3,1.9-0.3,2.9c0.6,14.4,1.3,28.8,2,43.2c0.2,5.3-1.8,6.8-6.8,4.4
			c-4.4-2.1-6.1-0.8-6.3,3.7c0,1,0.1,2.2-0.5,2.8c-1.4,1.6-3.1,2.9-4.6,4.4c-1-1.9-3-3.9-2.8-5.6c1.4-11,3.4-21.8,4.8-32.8
			C157.2,76.9,157.7,68.6,158.4,60.5z"/>
		<path class="st0" d="M731.8,100.5c-0.8-12.3-1.5-24.6-2.4-36.9c-0.1-1.8-1.6-3.4-2.2-5.2c-0.9-3-2.9-6.5-2.1-9.2
			c1.2-4.4,3.6-11,6.6-11.7c5.3-1.2,12.2,0.2,17.1,2.8c2.6,1.4,3.2,7.9,3.2,12.1c-0.1,11.1-1.2,22.3-1.5,33.4
			c-0.2,5.9,1.5,6.8,7,4.7c8.1-3.1,9.1-2.6,11.1,5.7c1.1,4.7,2.3,9.4,2.7,14.2c0.2,1.9-1.6,4-2.5,6c-1.9-0.9-4.4-1.3-5.7-2.8
			c-2.4-2.7-4.1-3.7-7.8-1.9c-2.4,1.2-6-0.1-9-0.3c-2.2-0.2-4.6-1.4-6.4-0.7c-8.1,3.1-10.4,1.6-9.9-7.2c0.1-1,0.2-1.9,0.3-2.9
			C730.8,100.6,731.3,100.5,731.8,100.5z"/>
		<path class="st0" d="M345.9,70.4c-2.7-3.1-4.5-5.2-6.3-7.2c-2.9,0.4-6.1,0.8-10.9,1.3c0.4,6.3,0.8,13.6,1.5,20.8
			c0.4,4,1.3,8,1.8,12.1c0.4,3.5,1.1,7.6-5.3,6c0.9,4,1.7,7.1,2.2,10.4c0.3,1.9,0.6,4,0,5.7c-0.5,1.6-2.2,2.8-3.4,4.2
			c-1.1-1.4-2.6-2.7-3.1-4.3c-0.7-2.1-0.7-4.5-1-6.5c-2.2,0.7-4,1.2-5.8,1.7c-0.4-1.8-0.8-3.6-1.1-5.4c-0.2-1.3,0.2-3.5-0.5-3.9
			c-6.1-3.9-2.3-8.8-1.9-13.5c0.7-8.3,1.2-16.7,1.2-25c0-1.7-2.4-3.5-4-5.7c-1.5,1.7-2,2.5-2.7,3.1c-1.3,0.9-2.6,1.7-4,2.5
			c-0.7-1.5-2-3.1-1.9-4.5c0.5-7.1,1.2-14.3,2.3-21.4c0.6-4,3.3-3,6.2-2.2c7.4,2,14.8,3.9,22.3,5.2c1.8,0.3,4.2-1.6,6.1-2.8
			c6.1-3.8,10.8-1.9,11.4,5.4c0.4,5.6,0.3,11.3-0.1,16.9C348.8,65.3,347.3,67.3,345.9,70.4z"/>
		<path class="st0" d="M517.5,104.4c-7.5-0.1-7.9-0.6-7.2-7.3c0.6-5.7,1.6-11.3-2.8-16.5c-1.5-1.8-1.2-6-0.5-8.8
			c2.1-8,2-15.5-1.5-23.2c-1.4-3-1.1-7.2-0.5-10.7c0.7-4.5,3.7-7.1,8.7-6.5c2.3,0.3,5-0.5,6.9,0.4c2.5,1.1,6,3.2,6.3,5.3
			c1.2,7.8,1.2,15.8,1.7,23.7c0,0.8,0.1,1.8-0.3,2.3c-5.2,5.5-2,11.5-1.6,17.5c0.7,9.3,1,18.6,0.9,27.8c0,2.1-2.4,4.1-3.7,6.2
			c-1.6-1.9-3.5-3.6-4.9-5.7C518.1,107.8,518,106.1,517.5,104.4z"/>
		<path class="st0" d="M694.1,115.3c2.8,4,5,6.2,5.9,8.9c0.3,0.8-3.7,4.4-4.8,4c-2.5-0.8-5.1-3-6.1-5.3
			C688.6,121.7,691.5,119.1,694.1,115.3z"/>
		<path class="st0" d="M425.5,113.2c-3.3,2.3-5.1,4.4-7.1,4.6c-1.3,0.1-4.5-3.2-4.2-3.8c1.1-2.3,3-4.6,5.1-6
			C419.8,107.7,422.5,110.6,425.5,113.2z"/>
		<path class="st0" d="M32,128.7c-2.4,1.6-3.8,3.3-5.2,3.3c-1.2-0.1-3.3-2.4-3.1-3.3c0.3-1.5,2.1-3.3,3.5-3.6
			C28.4,124.9,29.8,127,32,128.7z"/>
	</g>
</g>
</svg>
