<?xml version="1.0" encoding="utf-8"?>
<!-- Generator: Adobe Illustrator 27.5.0, SVG Export Plug-In . SVG Version: 6.00 Build 0)  -->
<svg version="1.1" id="Layer_1" xmlns="http://www.w3.org/2000/svg" xmlns:xlink="http://www.w3.org/1999/xlink" x="0px" y="0px"
	 viewBox="0 0 599.5 367" style="enable-background:new 0 0 599.5 367;" xml:space="preserve">
<style type="text/css">
	.st0{opacity:0.15;fill:#FFFFFF;enable-background:new    ;}
	.st1{fill:#2E003D;}
	.st2{fill:#51221B;}
	.st3{fill:url(#SVGID_1_);}
	.st4{fill:url(#SVGID_00000152972708829338837890000005976555416655253413_);}
	.st5{fill:url(#SVGID_00000150077035529422525010000012213392804939881916_);}
	.st6{fill:url(#SVGID_00000039839722862396561410000005847676234987561348_);}
	.st7{fill:url(#SVGID_00000048495787016103747510000013186593041233375165_);}
	.st8{fill:url(#SVGID_00000030465062742122737720000009676987335835036055_);}
	.st9{fill:url(#SVGID_00000109728157585094968050000002949061985418734248_);}
	.st10{fill:url(#SVGID_00000111891170024286617530000003694805091234342060_);}
	.st11{fill:#F7CD76;}
	.st12{fill:#FFFFFF;}
</style>
<path class="st0" d="M461.9,24.2c-3.2,7.2-5.5,12.8-8.3,18.2c-2.4,4.6-5.2,8.9-8.1,13.2c-4.4,6.7-9,13.2-13.4,19.8
	c-2.1,3.1-3.4,7.3-6.2,9.3c-7.3,5.4-11.1,11.8-13.1,20.9c-1.3,6.3-5.9,13.2-11.1,17c-7.4,5.3-11.1,12.2-15.3,19.8
	c-4.7,8.5-12.1,15.4-17.3,23.7c-7.2,11.6-14.8,22.8-26.2,30.9c-1.1,0.8-2.3,1.9-2.9,3.1c-5.7,11.4-12.6,21.8-23.7,28.7
	c-4,18.2-22.3,26.9-29,43.6c-1.4,3.5-5.4,6.7-8.9,8.5c-8.7,4.3-14.1,11-16.7,20.1c-2,7.2-5.9,12.2-13.3,15.3
	c-4.8,2.1-10,6.4-12.1,11c-5.5,12.3-14.2,21-25.4,27.8c-4.8,2.9-9.1,6.7-16.1,12c1.8-4.9,2.2-7.3,3.4-9.2c2.8-4.4,5.5-9,9.1-12.7
	c14.8-15.6,27.2-32.8,36.1-52.5c1.3-2.9,3.6-5.6,6-7.8c9.5-8.8,17.5-18.1,19.4-31.8c0.5-3.9,4.6-8.6,8.3-10.7
	c8.1-4.6,12.4-11.3,15.4-19.6c0.9-2.6,2.5-5.3,4.6-7.1c9.4-8.1,16.3-17.8,22.5-28.6c5.8-10.2,12.1-20.6,20.3-28.7
	c7.9-7.7,10.9-19.8,22-24.3c5.7-13.8,23-18,27.4-33.7c1.6-5.8,9.9-9.6,14.9-14.6c3.9-3.9,7.5-8.3,11.1-12.5c5.9-7,11.6-14,17.6-21
	c1.5-1.8,4.5-2.9,5-4.8C441,35.4,451.9,31.6,461.9,24.2L461.9,24.2z"/>
<path class="st0" d="M276.8,129.8c-2.6-10.6,1.6-19.4,12.1-26c3.8-2.4,6-7.2,9-10.8c4.2-5.1,8.5-10.2,12.8-15.1
	c3.4-3.9,7.4-7.4,10.6-11.4c8.7-11,16.4-23,25.9-33.2c9.3-10,20.3-18.3,31.6-26.8c-8,16.2-10.4,34.8-23,49
	c-4.3,4.9-7.2,11.1-10.4,16.9C339.5,83,334,93.9,328,104.5c-1.1,1.9-4,2.6-5.4,4.4c-5.2,6.9-12.4,11.7-15.4,21.1
	c-2.6,8-9.6,15.6-16.7,20.6c-6.9,4.9-10.8,10.4-14.5,17.6c-4.9,9.4-11.3,17.8-20,25.2c-10.9,9.3-19.1,22.1-27.5,34.1
	c-15.8,22.3-37.4,38.7-57.4,59.1c2.6-10.5,15.7-34.2,22-41.2c3.1-3.5,6-7.3,8.8-11.1c5.8-7.9,11.4-16,17.2-24
	c1.7-2.3,4.4-4.2,5.1-6.8c5.2-19.2,21.1-31,31.5-46.5c2.9-4.2,5-9,8.1-13C267.4,139.3,271.8,135.2,276.8,129.8L276.8,129.8z"/>
<path class="st0" d="M300.4,337.2c2.9-6.2,5.5-12.6,8.8-18.7c7.9-14.8,16.1-29.5,24.2-44.3c1.4-2.5,2.1-6.1,4.2-7.1
	c9.6-5,13.4-13.9,17.2-23.1c1-2.5,2.7-5.8,4.9-6.7c10.8-4.5,15.2-13.5,18.4-23.7c0.6-2.1,2.7-3.8,4.3-5.4c4.3-4.2,9.1-8,12.9-12.5
	c10.1-11.8,19.3-24.4,29.8-35.9c6.9-7.6,15.5-13.7,23-20.9c6-5.7,11.4-11.9,18.8-19.8c-0.2,4.3,0.2,6-0.4,6.9
	c-13.4,19.7-21.9,42.7-38.8,60.2c-0.3,0.3-0.7,0.7-0.9,1.1c-7.8,18.8-24.8,30.9-35,48c-0.2,0.4-0.9,0.7-0.9,1.1
	c0.2,15.4-14.4,21.2-21.3,32.1c-12.8,20.2-28.5,38.3-48.1,52.8c-6.9,5.1-12.5,11.9-18.7,17.9C302,338.5,301.2,337.9,300.4,337.2
	L300.4,337.2z"/>
<path class="st0" d="M157.5,196.8c6.8-8.9,13.1-18.2,20.4-26.7c17.3-20.4,29-44.2,42.4-67c2.5-4.3,6.7-7.5,9.8-11.5
	c3.7-4.8,7.1-9.8,10.4-14.8c2.3-3.5,3.3-8.3,6.3-10.9c16.5-14.7,31.6-31.3,51-42.6c1.3-0.8,2.7-1.5,5.8-3.3
	c-38.1,69.7-85.1,129.1-144.1,178.8C158.8,198.1,158.2,197.5,157.5,196.8L157.5,196.8z"/>
<path class="st1" d="M323.7,249.2c0.1,0,0.2,0.2,0.2,0.4l0,0.4l0.2,0.8c0,0.2,0.1,0.4,0.3,0.6l0.2,0.5c0.1,0.1,0.3,0.2,0.4,0.2
	s0.2,0,0.4,0c0.1,0,0.8-0.4,1.1-0.4c0.1,0,0.1,0,0.1,0c0,0.1,0,0.2-0.4,0.4c-0.1,0.2-0.3,0.4-0.6,0.6c-0.2,0.2-0.4,0.5-0.8,0.7
	c-0.6,0.5-1,1-1.2,1.5c-0.1,0.3-0.2,0.5-0.2,0.8v0.2c0,0.2,0,0.4,0.1,0.6c0.2-0.5,0.5-0.9,0.8-1.3c0.3-0.4,0.6-0.7,0.8-1
	c0.8-0.8,1.5-1.5,2.1-1.4c-0.9,0.4-1.7,1.3-2.4,2.3c-0.7,1-1.2,2.1-1.6,3.3c-0.3,0.9-0.4,1.9-0.5,2.9c0,0.3,0,0.7,0,1
	c0,0.7,0,1.2,0.2,1.8c0,0.4,0.1,0.7,0.3,1c0.2,0.5,0.3,1,0.6,1.4c0.2,0.4,0.5,0.7,0.7,0.9s0.4,0.4,0.7,0.6c0.3,0.2,0.6,0.3,0.9,0.4
	c0.4,0.1,0.7,0.2,1.2,0.2c0.4-0.1,0.8-0.1,1.3-0.1c0.3,0,0.5-0.1,0.7-0.2c0.1,0,0.2,0,0.5-0.1l0.1-0.1c0.4-0.1,0.7-0.3,1-0.5
	c0.4-0.2,0.7-0.5,1-0.8c0.6-0.7,1.1-1.3,1.5-2.3c0.7-1.5,1-3.2,1-4.9v-0.7c0-0.8-0.2-1.6-0.4-2.4l-0.1-0.3c-0.3-0.8-0.8-1.5-1.3-2.1
	l-0.6-0.6c-0.1-0.1-0.2-0.2-0.4-0.3l-0.3-0.2l-0.6-0.3l-0.4,0c-0.2,0-0.3,0-0.6,0.1c-0.3,0-0.6,0-1,0.1l-1.1,0.3
	c-0.8,0-0.3-0.2-0.3-0.3c0,0,0-0.1,0-0.3c0-0.1-0.1-0.2-0.2-0.3c-0.2-0.3-0.4-0.4-0.7-0.6c-0.4-0.1-0.5-0.3-0.5-0.4
	c0-0.1-0.1-0.2-0.2-0.4v-0.2c0-0.1,0-0.3,0.1-0.3c0.1-0.1,0.3-0.2,0.6-0.4c0.2-0.1,0.5-0.2,0.5-0.4v-0.3c0-0.1-0.2-0.3-0.4-0.4
	l-1-0.5c-0.1,0-0.1-0.1-0.1-0.3l0-0.4c0,0,0-0.1-0.1-0.2c0.5-0.1,1.2-0.2,2-0.4l1.5-0.4h1.9c0.6,0,1.1,0.1,1.6,0.3
	c0.7,0.1,1.2,0.5,1.7,0.8l0.7,0.4l0.6,0.6c0.5,0.4,0.8,0.6,1.2,1c0.7,0.8,1.3,1.6,1.8,2.6c0.4,0.8,0.8,1.6,1,2.3l0.1,0.4
	c0.3,0.9,0.4,1.9,0.5,2.9c0,0.5,0.1,1.1,0.1,1.6l0,1.1c-0.1,1.6-0.4,3.2-0.9,4.7c-0.6,1.6-1.2,3-2.3,4.4c-0.5,0.7-1.1,1.4-1.8,1.9
	s-1.5,1-2.3,1.5c-0.5,0.2-0.9,0.4-1.4,0.6l-0.5,0.2l-0.6,0.1c-0.8,0.2-1.6,0.4-2.5,0.4c-0.1,0-0.3,0-0.6,0c-0.4,0-0.8,0-1.2-0.1
	l-0.1,0h-0.3c-0.8,0-1.4-0.3-2.2-0.6c-0.7-0.3-1.4-0.6-2.1-1.1c-0.7-0.5-1.1-1.1-1.6-1.7c-0.5-0.5-0.9-1.2-1.2-1.9s-0.6-1.2-0.8-1.9
	c-0.4-1.3-0.6-2.5-0.7-3.9l0-0.9c0-1,0.1-1.9,0.2-3c0.3-1.3,0.6-2.5,1.1-3.7c0.5-1.2,1.1-2.3,1.8-3.5c0.8-1,1.7-2.1,2.7-2.9l0.2-0.1
	C323.3,249,323.5,249,323.7,249.2L323.7,249.2z"/>
<path class="st1" d="M350.6,246c0-0.2-3.1-0.1-3.3-0.6c0,0,1.4-0.1,2.6-0.1c6.7,0,12.7,1.6,15.3,8.7v0.4c0,0.5,0,0.9-0.1,1.4
	l-0.3,1.1l0,0.2c-0.3,0.9-0.7,1.8-1.2,2.6c-0.5,0.8-1.1,1.5-1.9,2c-0.7,0.6-1.5,1.1-2.3,1.5c-0.5,0.3-1.1,0.5-1.6,0.7
	c0.3,0.9,0.6,1.7,0.9,2.5c0.5,1.1,0.8,2.2,1.4,3.4c0.5,1,1,2.1,1.6,3.2l1.4,2.1c-0.1-0.1-0.2-0.2-0.3-0.2c-0.5,0-1.2,0.7-1.4,0.9
	c-0.2,0.1-0.4,0.3-0.7,0.4c-0.2,0-0.4-0.1-0.5-0.1l-0.1,0c-0.5,0.1-0.6,0.4-0.9,0.8c-0.3,0.2-0.5,0.2-0.8,0.4
	c-0.8-1.4-1.6-2.7-2.4-4.3c-0.7-1.4-1.3-2.5-1.9-3.9c-0.5-1.1-0.9-2.2-1.2-3.4l-0.1-0.5l-3,0.1v5.9c0.1,0.7,0.2,1.4,0.2,2
	c-0.3-0.1-0.2-0.5-0.5-0.5c-0.5,0-1.1,0.3-1.3,0.4c-0.2,0-0.4,0.1-0.5,0.1c-0.1,0-0.2,0-0.3-0.1c-0.2-0.1-0.4-0.5-0.6-0.5l-0.2,0
	c-0.4,0-0.6,0.4-0.9,0.6l-0.3,0.1l-0.4,0c-0.1,0-0.1,0-0.1,0v-25.8c0.2-0.1,0.4-0.1,0.7-0.1c0.7,0,1.3,0.2,1.9,0.2h0.2
	c0.3,0,0.4,0,0.4-0.1v-0.4c0-0.1-0.1-0.3-0.3-0.4c-0.3-0.2-0.9-0.2-0.9-0.4c0,0,0.1-0.1,0.4-0.1c0.3-0.1,0.9-0.1,1.5-0.1
	c0.2,0,0.5,0,0.8,0h0.3C350.1,246.2,350.6,246.2,350.6,246L350.6,246z M359.8,253.2c-0.1-0.3-0.3-0.6-0.5-0.8s-0.5-0.4-0.9-0.7
	c-0.4-0.3-0.8-0.5-1.4-0.7c-0.5-0.2-1-0.4-1.6-0.5c-1.1-0.3-2.3-0.4-3.6-0.5c-0.7-0.1-1.3-0.1-1.9-0.1l0.1,0.8v6.1
	c0,1.2,0,2.5-0.1,3.7h0.6c0.9,0,1.9-0.1,2.7-0.2c0.8-0.1,1.6-0.4,2.4-0.6c0.8-0.3,1.3-0.6,2-1c1-0.7,1.6-1.5,2-2.5
	c0,0,0-0.1,0.1-0.3l0-0.2l0-0.1c0-0.1,0-0.2,0-0.2c0-0.3,0.1-0.5,0.1-0.8v-0.4C359.9,253.9,359.9,253.5,359.8,253.2L359.8,253.2z"/>
<path class="st1" d="M373.9,247.1c0.4,0,1.5-1.1,1.8-0.6c0.2,0.6,0,1.5,0.1,2.1c0.2,0.5,0.4,0.6,0.8,0.9c0-1.4-0.2-2.5,0.3-3.2
	c0,1.4,0.2,2.7,0.2,4.1c0,2.2,0,4.3,0,6.5c0,2.3-0.3,4.5-0.4,6.9c-0.2,2.1-0.4,4.2-0.4,6.4c0,1.5,0,2.9,0,4.4
	c-0.6-1-1.9-0.2-2.1-0.2c-0.3,0-0.6,0.1-0.9,0c-0.2-0.2-0.4-0.6-0.7-0.7c-0.5-0.1-0.9,0.2-1.4,0.5c-0.3,0.2-0.7,0-1,0.1
	c0-3,0.2-5.8,0.3-8.6c0.1-2.5,0.1-4.8,0.3-7.2c0.1-3.9,0.4-7.8,0.4-11.7v0C372,246.6,373,247.1,373.9,247.1L373.9,247.1z"/>
<path class="st1" d="M403.5,272.5c0,0.7,0.1,1.3,0.1,2c-0.3,0-0.2-0.3-0.5-0.3c-0.5,0-1.2,0.2-1.4,0.3H401c-0.3-0.1-0.4-0.3-0.6-0.3
	h-0.2c-0.4,0-0.7,0.2-1,0.3l-0.9,0v-1.7c-0.5,0.1-0.6,0.4-1.1,0.5c-0.8,0.2-1.5,0.4-2.2,0.5c-0.8,0.1-1.5,0.2-2.4,0.2
	s-1.7-0.1-2.5-0.3c-0.8-0.3-1.7-0.5-2.5-1c-0.7-0.4-1.4-0.9-1.9-1.4c-0.7-0.6-1-1.1-1.5-1.8c-0.4-0.7-0.7-1.3-1-1.9
	c-0.2-0.7-0.4-1.3-0.5-2c-0.3-1.3-0.4-2.5-0.5-3.8c0-0.5,0-0.9,0.2-1.4v-2.2c0.1-1,0.2-1.9,0.5-2.9c0.2-1,0.5-2.1,1-3.1
	c0.2-0.5,0.4-1,0.8-1.5c0.2-0.5,0.6-1,1.1-1.4c0.4-0.5,0.8-1,1.3-1.3c0.5-0.5,1.1-0.7,1.8-1.1c0.6-0.2,1.1-0.4,1.8-0.6
	c0.6-0.1,1.2-0.1,1.9-0.1c1.2,0,2.3,0.1,3.3,0.4c1.1,0.3,2,0.7,2.9,1.1c0.9,0.4,1.8,0.9,2.7,1.4c0,0,0,0.2,0,0.3
	c0,0.4-0.3,0.6-0.6,0.9s-0.8,0.6-0.9,0.9c-0.1,0.2-0.3,0.3-0.4,0.4c0,0,0,0.1,0,0.3c0,0.1,0,0.2,0.2,0.4c0.2,0.2,0.5,0.5,0.6,0.7
	c0,0,0.1,0.1,0.1,0.3c0,0-0.2-0.1-0.4-0.2c-0.5-0.1-1.1-0.5-1.6-0.8c-0.6-0.3-1.1-0.6-1.6-0.7c-0.3,0-0.5-0.1-0.6-0.1l-0.3,0
	l-0.5,0.2c0.5,0.2,0.9,0.4,1.3,0.5l1,0.4c0.8,0.4,2.2,1.1,2.2,1.6c-1-0.7-2-1.2-3-1.6c-0.5-0.2-1-0.4-1.5-0.6l-1.5-0.4
	c-0.4-0.1-0.8-0.1-1.1-0.1c-0.3,0-0.6,0-0.8,0c-0.3,0-0.5,0.1-0.8,0.2l-0.6,0.4c-0.3,0.2-0.4,0.4-0.6,0.6c-0.2,0.2-0.4,0.6-0.5,0.9
	c-0.3,0.6-0.6,1.3-0.8,2.1c-0.3,0.8-0.4,1.8-0.6,2.7c-0.1,0.9-0.1,1.8-0.2,2.8c0,0.9,0,1.8,0.1,2.6c0.1,0.8,0.4,1.6,0.7,2.3
	s0.6,1.1,1.1,1.5c0.4,0.4,1,0.7,1.5,0.8c0.4,0.1,1,0.2,1.5,0.2h0.6c0.7,0,1.4-0.2,2.2-0.5c1.1-0.3,1.7-0.7,2.8-1.3l0.3,0v-3.7h-4
	c0-0.1,0-0.2,0-0.4c0-0.2,0-0.4,0-0.4v-2.3c0-0.2,0-0.4,0-0.5s-0.2-0.2-0.2-0.3c0,0,0-0.1,0.1-0.1c0,0,0.1-0.1,0.2-0.1h0.2
	c0.1,0,0.1,0,0.2,0c0.1-0.1,0.1-0.5,0.2-0.7c-0.3,0-0.5-0.1-0.9-0.3c0.4,0,0.8-0.2,1.1-0.2h1.8c0.7,0,1.3,0.1,1.9,0.2l1.2,0
	c0.2,0,0.4,0,0.6,0c0.5,0,0.8-0.1,1.2-0.1c-0.1,0-0.1,0.2-0.1,0.5c0,0.6,0.1,1.2,0.1,1.4v0.6l0.3-0.1c0.1-0.1,0.1-0.3,0.3-0.3
	c0,0,0.1,0,0.2,0.1c0,0.1,0.1,0.2,0.1,0.4l0,0.5c0,0.1,0,0.2,0,0.2c0.1,0.3,0.4,0.3,0.7,0.5c0-0.7,0.1-1,0.3-1.7l0.2,2.2v2.7
	c0,1.2-0.1,2.3-0.1,3.6c0,0.1,0,0.3,0,0.3c0.2,0.1,0.3,0.2,0.3,0.4c0.1,0.2,0.2,0.4,0.4,0.4l-0.7,0.5L403.5,272.5L403.5,272.5z"/>
<path class="st1" d="M412.5,247.1c0.4,0,1.5-1.1,1.8-0.6c0.2,0.6,0,1.5,0.1,2.1c0.2,0.5,0.4,0.6,0.8,0.9c0-1.4-0.2-2.5,0.3-3.2
	c0,1.4,0.2,2.7,0.2,4.1c0,2.2,0,4.3,0,6.5c0,2.3-0.3,4.5-0.4,6.9c-0.2,2.1-0.4,4.2-0.4,6.4c0,1.5,0,2.9,0,4.4
	c-0.6-1-1.9-0.2-2.1-0.2c-0.3,0-0.6,0.1-0.9,0c-0.2-0.2-0.4-0.6-0.7-0.7c-0.5-0.1-0.9,0.2-1.4,0.5c-0.3,0.2-0.7,0-1,0.1
	c0-3,0.2-5.8,0.3-8.6c0.1-2.5,0.1-4.8,0.3-7.2c0.1-3.9,0.4-7.8,0.4-11.7v0C410.5,246.6,411.6,247.1,412.5,247.1L412.5,247.1z"/>
<path class="st1" d="M442,246.5c0.1,0,0.2,1.1,0.2,2.4c0,2.7-0.3,6.6-0.3,7c-0.2,2.5-0.4,4.8-0.7,7.3c-0.2,2.1-0.3,4-0.3,6v5.4
	c-0.4,0-0.2-0.6-0.5-0.6c-0.2,0-0.3,0-0.4,0.1c-1.1,0.3-1,0.4-1.6,0.4c-0.2,0-0.3,0-0.4,0c-0.3-0.2-0.4-0.5-0.7-0.7h-0.2
	c-0.5,0-0.8,0.4-1.2,0.7l-1,0.1v-1c-0.9-2.1-2.5-4.8-3.8-6.7l-4-6c0,0.5,0.2,4.1,0.2,4.7c-0.1,1.8,0,2.8,0,4.4v1.6
	c0.2,1.5,0.2,3,0.2,4.7c-0.3,0-0.3-0.6-0.6-0.6c-0.7,0-1.4,0.5-1.5,0.5s-0.3,0-0.5,0c-0.1,0-0.3,0-0.3,0c-0.3-0.2-0.4-0.6-0.8-0.6
	l-0.2,0c-0.4,0-0.8,0.4-1.1,0.7c0,0-0.1,0-0.2,0l-0.5,0c-0.1,0-0.1,0.1-0.3,0.1v-28.9c0.3-0.1,0.5-0.1,0.8-0.1
	c0.8,0,1.5,0.3,2.1,0.3l0.6,0c0.2,0,0.4-0.1,0.6-0.3c0.3-0.2,0.4-0.7,0.5-0.7c0,0,0.1,0.1,0.2,0.3l0.1,2.1c0.1,0.6,0.4,0.6,0.7,0.8
	c0-1.3-0.4-2.6,0.3-3.2c0,1.4,0.3,2.8,0.3,4.4v0.4c0.2,0.2,0.4,0,0.7,0.2c-0.5-1-0.6-1.9-0.6-2.6c-0.1-0.4,2.6,4.2,5.1,8.4
	c1.1,1.8,2.6,3.4,3.1,5.5c0-1.7,0.1-4.3,0.3-5.3l0.2-6.2c0-2.1,0.2-4.1,0.2-6.2c0.3-0.1,0.4-0.2,0.6-0.2c0.1,0,0.4,0,0.6,0.1l0.1,0
	c0.5,0.1,1,0.2,1.4,0.2l0.6,0c0.3,0,0.5-0.1,0.6-0.3c0.2-0.3,0.3-0.7,0.4-0.7c0,0,0.1,0.1,0.2,0.3c0,0.2,0.1,0.4,0.1,0.7l0,1
	c0,0.3,0,0.4,0,0.6c0.1,0.6,0.5,0.6,0.7,0.9C441.8,247,441.9,246.5,442,246.5L442,246.5z"/>
<path class="st1" d="M460.7,246c0,0.2-0.1,0.4-0.3,0.5l-0.4,0.5c-0.1,0.2-0.3,0.3-0.3,0.5l-0.2,0.5c0,0.1,0,0.4,0.4,0.5
	c0.2,0.1,0.7,0.3,0.8,0.4c0.1,0.1,0.2,0.1,0.2,0.2l-0.6-0.1c-0.5,0-1.1-0.1-1.8-0.1l-0.9,0l-0.8,0c-0.5,0-0.6,0.2-0.7,0.4
	c0,0.1-0.1,0.2-0.2,0.3c0.3-0.1,0.8-0.1,1.1-0.1h1.1c0.5,0,1.4,0,2.2,0.4l0.2,0.2c-0.9-0.2-1.8-0.3-2.6-0.3h-0.6
	c-0.5,0-0.9,0.1-1.2,0.3c-0.4,0-0.7,0.2-1.1,0.3l-0.6,0.4c-0.1,0.1-1.2,1.6-1.3,2.1c0,0.1,0,0.3,0,0.5c0,0.4,0,0.7,0.2,1
	c0.1,0.4,0.4,0.9,0.8,1.6c0.5,0.6,1,1.1,1.6,1.9c0.4,0.3,0.8,0.6,1,0.9l1.4,1.3l1.9,1.9c0.7,0.8,1.5,1.5,2.1,2.4
	c0.6,0.8,1.1,1.7,1.6,2.6c0.2,0.5,0.4,1,0.6,1.4c0.1,0.5,0.2,1.1,0.2,1.6s-0.1,1.1-0.2,1.8l0,0.1c-0.3,0.5-0.5,1-1,1.5
	c-0.5,0.5-0.9,0.9-1.5,1.3c0,0-0.1,0.2-0.3,0.2c-0.1,0-0.1,0.1-0.3,0.1c-0.2,0.1-0.3,0.2-0.4,0.3c-0.4,0.2-0.7,0.4-1.1,0.4
	c-0.9,0.5-1.8,0.7-2.6,0.8c-0.9,0.2-1.7,0.3-2.5,0.4s-1.6,0.1-2.5,0.3H450c0-0.6,1-0.4,0.9-0.8c0-0.1-0.4-0.4-0.6-0.6
	c-0.3-0.1-0.4-0.2-0.4-0.3c-0.1-0.2-0.2-0.3-0.2-0.4c0-0.1,0-0.2,0.1-0.3l0.6-0.3c0,0,0.2,0,0.4-0.2l0.2-0.2c0-0.1-0.2-0.3-0.4-0.4
	c-0.3-0.2-0.7-0.3-0.8-0.5c-0.1-0.1-0.1-0.4-0.1-0.4l0-0.1c0-0.1,0-0.2-0.2-0.3h1.9c0.7,0,1.2-0.1,1.9-0.1c0.7-0.1,1.3-0.2,1.8-0.4
	s1.1-0.1,1.5-0.3l1.1-0.6l0.3-0.4c0.1-0.1,0.2-0.4,0.2-0.7v-0.2c0-0.2,0-0.4-0.1-0.7c-0.1-0.6-0.5-1.2-1-1.9c-0.5-0.7-1-1.4-1.7-2.1
	c-0.7-0.7-2.5-2.2-2.6-2.5l-0.8-0.7c-0.5-0.4-0.9-0.8-1.1-1c-0.7-0.7-1.3-1.2-2-2c-0.7-0.8-1.2-1.6-1.6-2.5l-0.5-1.4
	c0-0.5-0.2-1-0.2-1.4c0-0.5,0.1-1,0.2-1.5l0.5-1.4c0.1-0.5,1.7-2.3,1.9-2.5c0.5-0.5,0.9-0.8,1.5-1.1c0.5-0.3,1-0.6,1.8-0.8
	c0.7-0.2,1.3-0.4,2.1-0.6c0.4-0.1,0.8-0.1,1.3-0.3h1.5c1,0,2,0.1,2.9,0.2l0.2,0.1C460.6,245.6,460.7,245.8,460.7,246L460.7,246z"/>
<path class="st2" d="M155.3,136.7c-1.6-0.6-3.3-0.7-4.8-0.3c-1.4,0-2.8,0.4-4,1.1c-1.2-0.7-2.6-1.1-4.1-1.1s-2.8,0.4-3.9,0.9
	c-1.9-1.3-4.4-1.6-6.6-0.7c-2.8,1.1-4.6,3.8-4.6,6.8v1c0,0,0,0.1,0,0.1c0.1,7.3,0.2,22,0.2,29.2l-0.3,4.3c0,0.2,0,0.3,0,0.5v12.5
	c0,2.4,0,4-0.1,5.7c0,0-0.1,0-0.1,0c-0.3-0.1-0.6-0.1-0.9-0.1c-0.1,0-0.1,0-0.2,0c-0.2-0.1-0.4-0.2-0.6-0.2
	c-0.1-0.1-0.1-0.1-0.2-0.2c0,0-0.1-0.1-0.1-0.1c-0.2-0.6-0.4-1-0.6-1.5c-0.1-0.2-0.2-0.4-0.3-0.6c-0.1-0.1-0.1-0.3-0.2-0.4l-0.1-0.2
	l-0.2-2.7c0,0,0-0.1,0-0.1l-0.1-0.8c-0.2-1.7-0.6-6.8-0.6-8.2v-2.9c0-1.3,0-2.8,0.1-4.2c0.8-5.9,1.4-10.4,1.8-15.1l0.7-7.2
	c0.4-2.7,0.4-5.1,0.4-7.4c0-0.5,0-1.1,0-1.7c0-2.5-1.3-4.8-3.4-6.2c-1.6-1-3.6-1.3-5.4-0.9c-0.7-0.2-1.4-0.3-2.2-0.3
	c-2.4,0-5.3,1.2-6.9,4.4c-1.6-0.6-3.1-0.9-4.4-0.9c-2,0-3.9,0.6-5.5,1.7c1.4-4,2.8-8.2,4.2-12.8c0.7-2.2,0.3-4.6-1.1-6.5
	c-1.2-1.6-2.9-2.6-4.8-2.9c-0.7-0.3-2-0.7-3.6-0.7c-0.4,0-0.9,0-1.3,0.1c-1.7-1.8-4.2-2.8-7.4-2.8c-0.2,0-0.4,0-0.6,0
	c-1.2-1.2-2.5-1.8-3.6-2.1c-2.4-0.6-5,0.2-6.8,1.9c-0.8,0.8-1.4,1.7-1.7,2.8c-0.9,2.7-1.7,5.3-2.5,7.9c-0.7,2.1-1.3,4.3-2,6.4
	c-1.7,5-3.6,9.7-5.7,14.7c-0.7,1.8-1.5,3.6-2.2,5.3c-0.5,1.3-1.1,2.6-1.6,3.9c-1-2.3-2.1-4.5-3.3-6.7c-0.7-2.5-1.5-5-2.1-7.5
	c-0.7-2.7-1.5-5.1-2.3-7.5c-0.6-1.6-1.1-3.2-1.5-4.7c-0.7-2.5-2.7-4.4-5.2-5.1c-3.4-6.9-7.2-13.5-11-19.9c-4.1-7-8-13.7-11.3-20.7
	c-1.2-2.6-3.2-3.7-4.9-4.8c-0.7-0.4-1.6-0.9-2.6-1.7c-2.5-1.7-5.9-1.7-8.4,0.1c-2.5,1.8-3.5,5-2.7,7.9c0.9,3.1,1.8,5.9,2.6,8.7
	c1.7,5.5,3.1,10.2,4.3,14.9c0.9,3.5,1.5,7,2.2,10.8c1,5.7,2.1,11.5,3.9,17.3c2.5,8,5.6,16.1,8.3,23.2l3.8,14.8c0,0,0,0.1,0,0.1
	c2.3,8.5,4.3,15.4,6.2,21.7c2.7,9.6,5.4,18,8.2,25.7c0.7,2,2.3,3.5,4.2,4.3c0.8,0.3,1.7,0.5,2.6,0.5c1.2,0,2.3-0.3,3.4-0.8l2.5-1.3
	c0.6-0.3,1.1-0.7,1.6-1.1c0.3,0.1,0.7,0.1,1,0.1c2.7,0,4.6-0.9,5.8-1.6c0.2,0,0.5,0,0.7,0c0.9,0,2.6,0,4.4-0.9c2-1,3.4-2.9,3.9-5.1
	l0.1-0.5c0.1-0.5,0.2-0.9,0.3-1.4c1.1-5.2,2.6-10.3,4.5-16.2c2.4-6.9,4.5-12.8,6.7-18.5c1.6-4.2,3.2-8.2,4.8-12.5
	c1.4-3.5,2.8-7.2,4.2-10.9l1-2.6c0.2-0.5,0.4-0.9,0.6-1.4c-0.1,1.2-0.3,2.5-0.4,3.7c-0.4,2.3-0.7,5.8-0.9,9.1
	c-0.2,2.3-0.4,4.4-0.5,5.7c0,0.1,0,0.1,0,0.2c-0.3,2.9-0.6,7.7-0.6,10.9v8.9c0,2.4,0.6,4.9,1.4,7.7c0.1,0.3,0.2,0.6,0.2,0.9
	c0.2,1,0.4,2.1,1,3.4l0.3,1.1c0.1,0.5,0.3,1,0.6,1.5l0.1,0.2c0.1,0.2,0.1,0.4,0.2,0.6c0.4,1.2,0.9,2.6,1.8,4.1
	c0.7,1.5,1.6,3.4,2.9,5.4c1.3,2,3,3.9,5.1,5.9c1.9,1.7,4.2,3.3,6.6,4.5c0.1,0.1,0.2,0.1,0.3,0.2c2.7,1.2,5.4,2,8.3,2.4
	c1.4,0.3,2.5,0.5,3.7,0.6c0.3,0,0.6,0.1,0.9,0.1h0.8c0.5,0.1,0.9,0.1,1.4,0.1h0.9c2.1,0,4.8-0.1,7.9-0.9c0.9-0.1,1.8-0.4,2.8-0.6
	l0.8-0.2c0.3-0.1,0.7-0.2,1-0.3c1.3-0.5,2.7-1.1,4.2-2c1.8-0.9,3.3-2.2,4.5-3.3c1.2-1,2.6-2.3,4-4.1c0,0,0.1-0.1,0.1-0.1
	c0.7-0.9,1.2-1.8,1.8-2.7c0.2-0.3,0.4-0.6,0.6-0.9c0.3-0.4,0.5-0.8,0.6-1.3c0.1-0.2,0.2-0.4,0.3-0.7c0.4-0.8,0.9-2,1.3-3.5
	c0.6-2.2,1.1-4.1,1.5-6.5c0.1-0.5,0.1-0.9,0.1-1.4v-1.3c0.1-0.2,0.1-0.5,0.1-0.7l0-0.2c0.1-1.1,0.3-2.3,0.3-3.6l0.1-2.9
	c0-0.1,0-0.2,0-0.3l0.1-18.5c0-2.5,0-5.1,0.1-7.6c0-2.6,0.1-5.2,0.1-7.8v-15.2C159.8,140.5,158,137.8,155.3,136.7L155.3,136.7z"/>
<path class="st2" d="M599.2,178.1c-1.7-13.3-6.7-23.8-15.1-31.2c-8.8-7.8-20.8-11.7-35.8-11.7c-0.2,0-0.4,0-0.5,0
	c-1.7,0.1-3,0.2-4,0.3c-1.2,0.1-1.9,0.1-2.5,0.2c-2.9,0.3-4.8,1.7-5.9,3.5l-0.3,0.1c-0.2,0-0.5,0.1-0.7,0.2l-1.6,0.4
	c-1.9,0.5-3.4,1.7-4.3,3.3c-1.1,0.2-2.1,0.5-3,1c-2.8,1.2-4.6,4.1-4.4,7.1l1,15.1c-2.2-6.1-4.8-10.7-9.6-14.9
	c-12.2-11.1-24.2-12-39.9-12c-2,0-4.3,0-6.2,0.1c-1,0-1.7,0.1-2.3,0.1c-5.4,0.4-6.9,3.9-7.4,5.9c-0.3,0.3-0.5,0.6-0.7,0.9
	c-1.1,0.1-2.1,0.4-3.1,0.8c-2.8,1.1-4.6,3.8-4.6,6.7v49.9c-1.2-1.3-2.4-2.9-3.8-4.7c-0.1-0.1-0.2-0.3-0.3-0.4
	c-0.2-0.2-0.4-0.5-0.6-0.7c0,0,0-0.1,0-0.1c0-0.2,0.1-0.4,0.1-0.6c0.2-1.9,0.2-3.6,0-5.4c0-0.3-0.1-0.6-0.2-0.9l-0.1-0.6
	c-0.7-2.8-3-4.9-5.9-5.4c-0.2-0.6-0.4-1.1-0.5-1.7c-0.4-1.4-0.9-2.9-1.5-4.6c0,0,0,0,0-0.1l-3.4-8.2c-1.4-3.3-1.9-5.9-2.8-9.9
	c-0.3-1.5-0.7-3.1-1.1-5c0-0.1,0-0.1,0-0.2c-0.5-1.9-1-3.5-1.4-5c-0.6-1.8-1.1-3.4-1.4-5.1c-0.6-2.9-2.9-5.1-5.8-5.6
	c-1.5-0.3-3.1-0.1-4.4,0.6c-0.7-0.2-1.4-0.3-2-0.3c-1.2,0-2.4,0.3-3.5,0.9c-1.2-0.8-2.7-1.3-4.3-1.3c-1.2,0-3.6,0.3-5.5,2.5
	c0,0,0,0,0,0c-0.5-0.1-1.1-0.3-1.9-0.4c-0.1,0-0.1,0-0.2,0c-0.6-0.1-1.6-0.4-2.8-0.4c-3.9,0-6.6,0.4-8.2,1.2c-2.4,1.2-3.9,3.6-4,6.3
	c-0.1,5.4-0.4,9.8-1.4,15c0,0.1,0,0.1,0,0.2c-0.6,3.9-1.4,7.8-2.2,11.9l-0.5,2.6c-0.1,0.5-0.1,0.9-0.1,1.4l0,0c0,0,0,0.1,0,0.1
	c-0.6,3.4-1.4,6.8-2.1,10.1c-0.7,3.4-1.5,6.9-2.2,10.4c0,0.1,0,0.2-0.1,0.3c-0.2,1.5-0.4,3.1-0.7,4.6c-0.2-0.4-0.5-0.7-0.8-1.1
	c0-0.1,0-0.3,0-0.4c0.1-1.9,0.2-3.4,0.2-5.8v-9.8c0-0.2,0-0.4,0-0.5l-0.4-6c-0.2-3-2.2-5.4-4.9-6.3c0-0.1,0-0.3,0.1-0.5
	c0.7-3.5-1.2-6.9-4.5-8.2c-0.9-0.3-1.8-0.5-2.7-0.5c-0.1-1.3-0.4-2.5-1-3.6c2.9-2.2,4.5-5.3,4.5-8.7c0-0.9-0.2-1.7-0.5-2.6l-0.4-1.2
	c-0.6-1.5-1.6-2.8-3.1-3.7c-3.3-2-6.7-3.6-9.4-4.9c-0.1-0.1-0.3-0.1-0.4-0.2c-6-2.4-10.7-2.9-16.7-2.9c-1,0-5.9,0.1-8.5,0.5
	c-2.5,0.4-4.6,1.2-6.3,1.9c-0.2,0.1-0.4,0.2-0.5,0.2c-0.4,0.2-0.8,0.4-1.2,0.6c-1.6,0.7-3.5,1.6-5.2,3c-2.1,1.4-3.7,3.2-4.9,4.6
	c-0.2,0.2-0.5,0.5-0.7,0.6c-1.1,1-2.6,2.3-3.6,4.2c-1.1,1.5-1.9,3.2-2.6,5.1c-0.1,0.2-0.2,0.4-0.2,0.6c-1.4-5.7-4.4-11.9-9.8-16.1
	c-1.8-1.4-3.6-2.7-6-3.9c-2.2-1.4-4.4-2.4-6.5-2.9c-3.8-1.7-7.6-2.1-10.6-2.5c-0.4,0-0.7-0.1-1-0.1c-5.9-0.8-12.3-0.5-17.2,0.8
	c-4.2,0.6-9.2,1.8-11.6,2.5c-2.5,0.7-4.4,2.7-5,5.2c-1.1,0.3-2.1,0.8-3.2,1.4c-2.3,1.3-3.7,3.7-3.7,6.3v9.8c0,0.2,0,0.3,0,0.5
	c0,0.6,0.1,1.1,0.1,1.6c0.1,1.2,0.1,2.1,0.2,2.8l-0.6,7.2c0,0.2,0,0.4,0,0.6v24.3c-0.1-0.2-0.3-0.5-0.4-0.7c-1.4-1.9-3.6-3.1-6-3.1
	c-2.9,0-5.8,0.2-8.8,0.5c-0.2,0-0.4,0.1-0.7,0.1l-0.3,0.1c-1.5,0.1-3.3,0.1-5.2,0.1h-2.1c-0.8,0-1.7,0-2.5,0c-1,0-2,0-3,0V179
	l1.9-20.3c0.1-0.6,0-1.1,0-1.7l-1.9-13.2c-0.4-2.9-2.5-5.3-5.4-6c-1.3-0.3-2.6-0.3-3.9,0.1c-0.7-0.2-1.5-0.3-2.2-0.3
	c-1.2,0-3.6,0.3-5.6,2.5c-0.3-0.1-0.6-0.1-1-0.2c-1.3-0.3-2.9-0.6-4.9-0.6c-1.5,0-3.2,0.3-4.8,0.8c-3,1-4.9,3.8-4.9,6.9v56.2
	c-1.9,1.5-3.1,3.7-3.1,6.1c0,2,0.7,3.8,2.2,5.4c0,0.2,0,0.3,0.1,0.5c0.1,0.5,0.1,1.3,0.1,2.1c0,2.7,0,5.7,1.3,8.8
	c1.1,2.7,3.8,4.5,6.7,4.5c0.2,0,0.4,0,0.6,0l22.6-1.9c0,0,0.1,0,0.1,0c4.3-0.4,4.3-0.4,8.5-0.6h16.1c2,0,3.9-0.8,5.2-2.2
	c0.4-0.4,0.7-0.8,0.9-1.2c0,0.6,0,1.3,0.1,1.9c0.1,2.1,1.1,4.1,2.8,5.4c1.3,1,2.9,1.6,4.5,1.6c0.5,0,0.9-0.1,1.4-0.1l2.9-0.6
	c0.7-0.1,1.3-0.4,1.9-0.7c0,0,0.1,0,0.1,0c0.5,0.3,1.7,0.8,3.3,0.8c0.4,0,0.8,0,1.2-0.1l1.8-0.3c0.6-0.1,1.2-0.3,1.8-0.5
	c0.6,0.3,1.3,0.4,1.9,0.5c2.2,0.4,4.5-0.3,6.2-1.9c1.6-1.6,2.5-3.8,2.2-6.1c-0.4-3.2-0.6-13.2-0.7-19.8c3.6-0.6,7.9-1.4,11.9-2.2
	c2.8-0.6,16.1-4.5,20.5-7.6c2.6-1.8,4.8-4.1,6.6-6.8c0,0.2,0,0.4,0,0.6c0,0.3,0,0.6,0.1,0.9c0.1,1.1,0.2,2.1,0.4,3.2
	c0.2,2.5,0.5,5,1.1,7.8c0,0.1,0,0.2,0.1,0.3c0.5,1.8,0.9,3.7,1.6,5.8c0.1,0.4,0.3,0.8,0.4,1.1l2.6,5.3c0.3,0.6,0.7,1.1,1.1,1.6
	c0.3,0.3,0.5,0.6,0.8,0.9c1.2,1.4,2.8,3.4,6.2,5.8c0.1,0.1,0.2,0.1,0.2,0.2c1.7,1.1,3.4,2.2,5.5,3.3c2.1,1.2,4.1,1.8,5.7,2.4
	c0.7,0.2,1.3,0.4,1.9,0.7c0.4,0.2,0.9,0.3,1.4,0.4c2.1,0.4,5,0.9,8.2,0.9c2.8,0,5.2-0.3,7.4-0.7c0.1,0,0.3-0.1,0.4-0.1
	c1.2-0.2,2.3-0.5,3.5-0.8c0.2,0.2,0.4,0.4,0.6,0.6c1.4,1.3,3.1,2,5,2c0.1,0,0.3,0,0.4,0l2.5-0.1c0.2,0,0.4,0,0.6-0.1
	c1.6-0.2,2.7-0.4,3.4-0.6c0.9,0.4,1.9,0.6,2.9,0.6h1.8c0.6,0,1.2-0.1,1.8-0.2c0.2-0.1,0.5-0.1,0.7-0.1c1.1,0.4,2.1,0.5,2.8,0.5
	c3.3,0,6.1-2.2,7-5.2c0.5,2.1,1.5,4.3,3,6.6c1.2,1.8,3.2,2.9,5.3,3.1c0.5,0.1,1.1,0,1.6,0c1.2,0.2,2.5,0,3.6-0.4
	c1.7,0.8,3.2,0.8,4,0.8h1.2c0.8,0,1.5-0.1,2.1-0.3c0.8,0.3,1.6,0.5,2.5,0.6c0.1,0,0.3,0,0.4,0c3.7,0,6.8-2.8,7.2-6.4
	c0.2-2.2,0.4-4.3,0.5-6.4c0.1-1.8,0.3-3.6,0.5-5.5l0.1-0.5c0.7,0,1.4,0,2.1,0c0.4,0,0.8,0,1.2-0.1c3.1-0.5,5.4-0.6,7.9-0.6
	c0.6,0,1.3,0,1.9-0.1c0.1,0.2,0.3,0.4,0.4,0.5c0.3,0.5,0.6,1.1,1,1.7c2,3.5,4.6,8.3,11.3,12.8c2.2,1.5,5.1,1.7,7.5,0.4
	c1.8-1,3.1-2.6,3.6-4.6c0.1-0.3,0.3-0.7,0.5-1c0.6-0.7,1.2-1.5,1.7-2.6c1.3-0.6,2.6-1.6,3.8-3.3c0.4-0.4,0.7-0.9,0.9-1.4
	c0.1,0,0.2-0.1,0.3-0.1v4.1c0,4,3.2,7.2,7.2,7.2c0.3,0,0.6,0,0.9-0.1h0.1c0.9,0.1,1.9,0,2.8-0.2l1-0.3c0.3-0.1,0.6-0.2,0.9-0.3
	c0.2,0.1,0.4,0.2,0.6,0.2l0.1,0c0.5,0.2,1.7,0.6,3.2,0.6c1.1,0,2-0.2,2.6-0.3c0.1,0,0.3-0.1,0.4-0.1c0.5-0.1,1-0.2,1.4-0.4
	c2.2,1.1,4.9,0.9,7-0.4c2.1-1.3,3.4-3.6,3.4-6.2c0-2.7-0.2-5-0.6-7.4v-0.3c3.5,7.4,7.3,14.9,12.7,21.7c0.5,0.9,1.1,1.9,1.7,2.8
	c0.4,0.6,0.8,1.2,1.4,1.7c5.6,12.8,13.7,23.8,21.6,34.3c4.9,6.5,9.5,12.7,13.5,19.3c1.5,2.4,3.6,3.4,5.4,4.2
	c0.8,0.4,1.7,0.8,2.8,1.4c1.1,0.6,2.2,0.9,3.4,0.9c1.8,0,3.5-0.6,4.9-1.9c2.3-2.1,3-5.3,1.8-8.2c-1.3-3-2.4-5.7-3.6-8.3
	c-2.3-5.2-4.2-9.8-5.9-14.3c-1.2-3.4-2.2-6.8-3.3-10.5c-1.7-5.5-3.3-11.2-5.8-16.8c-3.5-7.9-7.4-15.5-11.2-23
	c-2.6-5-5.2-10.2-7.7-15.3c-0.5-1.1-1-2.3-1.5-3.5c5.9-4.6,11-12.4,13.1-20.1l0.8,13.1c0,0,0,0.1,0,0.1c0.7,8.6,1.7,17.1,2.7,25.3
	l0.2,1.3c0.2,1.9,1.2,3.7,2.7,4.9c0.7,0.5,1.4,0.9,2.2,1.2c0,1,0.2,2.1,0.6,3.1c1.2,2.6,3.8,4.3,6.6,4.3c0.2,0,0.4,0,0.6,0l14.1-1.2
	c0.3,0,0.6-0.1,0.9-0.1l17.4-3.7c0.9-0.2,1.8-0.6,2.5-1.1c0.5-0.4,1.3-0.8,2.2-1.2c1-0.5,2.1-1.1,3.3-1.8c2.3-1.3,4.3-2.9,5.9-4.2
	l0.2-0.2c0.3-0.2,0.5-0.5,0.8-0.7c1.7-1.9,3.1-3.4,4.5-5.8c1.4-1.6,2.2-3.2,2.8-4.3c0.2-0.4,0.4-0.7,0.5-1l0.2-0.4
	c0.2-0.3,0.4-0.6,0.5-0.9c1.4-2.9,1.8-5,2.3-7.3c1.2-4.5,1.8-8.9,1.8-12.9c0.2-1.8,0.3-4.2-0.1-7.1L599.2,178.1z M256.8,168
	c1-0.2,1.8-0.4,2.6-0.6c1.6-0.2,3.2-0.3,4.2-0.1c0.3,0.1,0.6,0.1,1,0.1c1.5,0.1,2.8,0.2,4.1,0.4c0.2,0.1,0.4,0.2,0.6,0.3
	c-0.1,0.6-0.6,1.1-0.8,1.2c-0.9,0.5-3.9,1.7-11.7,3.1C256.9,171.4,256.9,170.1,256.8,168L256.8,168z M366.3,200.3
	c0.3,0,0.6,0.1,0.9,0.2C366.9,200.4,366.6,200.3,366.3,200.3z M329,182.6v7.1c-0.1,0.9-0.1,1.6-0.1,2.1c0,0.8,0,2.4,0.9,4.3
	c0.1,0.3,0.3,0.6,0.5,0.8c-0.2,0-0.3-0.1-0.5-0.1c-0.1-0.1-0.3-0.2-0.5-0.3c-1.4-1.6-2.2-3.5-2.2-9.7c0-2.4,0-4,0.3-5.5
	c0.1-0.6,0.2-1.2,0.4-1.9c0.2-1,0.3-1.9,0.5-2.7c0,0.4,0.1,0.8,0.1,1.2c-0.1,0.4-0.1,0.9-0.1,1.4C328.3,180,328.4,181.3,329,182.6
	L329,182.6z M329.8,172.1c0.1-0.2,0.2-0.4,0.3-0.6c0.1-0.2,0.1-0.3,0.2-0.5c0.3-0.3,1-0.6,1.6-0.7
	C331.1,170.7,330.4,171.3,329.8,172.1L329.8,172.1z M480.1,177.8l0.1-8.1c6.7,0.5,6.8,0.6,9,1.6c0.5,0.3,1.2,0.6,1.9,0.9
	c0.1,0.4,0,1.3-0.5,2.2c-1.1,1.8-3.6,2.9-7.2,3.1c0,0-0.1,0-0.1,0C482.2,177.6,481.2,177.7,480.1,177.8L480.1,177.8z M462.6,223.9
	c0.2-0.6,0.3-1.2,0.3-1.9C462.8,222.7,462.7,223.3,462.6,223.9z M565.1,186.9c-0.1,1.6-0.4,3.1-0.8,4.7c-0.1,0.4-0.2,0.8-0.2,1.1
	c-0.1,0.1-0.2,0.3-0.3,0.5c-0.2,0.4-0.4,0.8-0.7,1.2c-0.1,0.1-0.1,0.2-0.2,0.3c-0.1,0.1-0.2,0.2-0.2,0.4c-0.9,0.6-2.4,1.2-4.3,1.9
	c0,0,0-0.1,0-0.1c-0.1-1.7-0.2-3.4-0.5-5.2l-1.8-24c3.1,0.5,4.2,1.2,4.5,1.7c0.5,0.7,1.2,2.7,1.7,3.9c0.4,1.1,0.8,2.2,1.3,3.2l0.8,3
	l0.4,4.5C565,185.1,565.1,186.2,565.1,186.9L565.1,186.9z"/>
<linearGradient id="SVGID_1_" gradientUnits="userSpaceOnUse" x1="51.88" y1="153.25" x2="51.88" y2="289.91" gradientTransform="matrix(1 0 0 -1 0 368)">
	<stop  offset="0" style="stop-color:#ECA94A"/>
	<stop  offset="1" style="stop-color:#DD8C44"/>
</linearGradient>
<path class="st3" d="M92,119.8c-1,0.4-2.2,0.9-3.2,0.9c-0.4,0-0.7-0.2-1.2-0.3c-0.4-0.4-0.6-2.1-1.3-2.6c-0.4-0.7-1.6-0.7-2.3-0.7
	s-2.1,0.4-3.7,0.4c-1.8-0.2-1.9-2.9-2.2-2.6c-1.6,4.7-2.9,9.4-4.5,14.2c-2.3,7-5.3,13.6-8.1,20.5c-2.9,7.1-6,13.9-8.7,21.1
	c-2.8-8.2-5.4-16.4-9.7-23.9c-0.8-2.8-1.7-5.7-2.4-8.5c-1-4.2-2.6-7.9-3.8-12c-1.2,2.1,0.9,5.7,1.6,9.4c-0.3-0.2-0.6-0.2-1-0.4
	C34.8,116,22.2,99.9,13.6,81.7c-0.4-0.9-1.9-1.4-5.1-3.6c2.8,9.5,5.2,16.6,7,23.9c2.2,9.2,3.1,18.7,6,27.6
	c2.5,7.8,5.4,15.5,8.3,23.2l3.9,15.2c1.9,7,4,14.4,6.2,21.6c2.3,8.4,5,16.9,8.1,25.2l2.5-1.3c1-1.2,1.8-2.8,3.4-2.9l2.6,1
	c1,0,1.8-0.4,2.5-0.9c0.2,0,0.6-0.7,1.3-1.2c1,0.1,1.6,0.4,2.6,0.4c0.4,0,0.9,0,1.2-0.1c0.2-0.7,0.3-1.3,0.3-1.6
	c1.3-6.2,2.9-11.7,4.8-17.4c2.2-6.3,4.4-12.5,6.7-18.8c2.9-7.8,6-15.4,9.1-23.4l1-2.6c3.4-8.4,6.3-16.9,9.1-25.7
	c-1,0-1.5-0.6-2.5-0.6L92,119.8L92,119.8z"/>
<linearGradient id="SVGID_00000125587652555273442480000010788006673440623286_" gradientUnits="userSpaceOnUse" x1="125.31" y1="151.08" x2="125.31" y2="230.83" gradientTransform="matrix(1 0 0 -1 0 368)">
	<stop  offset="0" style="stop-color:#ECA94A"/>
	<stop  offset="1" style="stop-color:#DD8C44"/>
</linearGradient>
<path style="fill:url(#SVGID_00000125587652555273442480000010788006673440623286_);" d="M150.6,137.9c-0.4,0-0.7,0.1-1,0.6
	c-1.2,1.6-2.2,4.2-3.5,4.2c-0.3,0-0.4,0-0.6-0.1c-1-0.4-1.2-3.4-2.2-4.1c-0.3-0.4-0.6-0.6-0.9-0.6c-0.1,0-0.7,0.1-1.5,0.6
	c-0.7,0-3.1,3.4-4.7,3.4c-1,0-0.3-2.6-1.8-4.2v1c0.1,7.5,0.1,22.4,0.1,29.6l-0.3,4.5v12.5c0,2.5,0,4.2-0.1,6.3
	c0,1.2-0.1,1.9-0.3,2.8c-0.3,0.9-0.6,1.3-0.9,1.9c-0.3,0.7-0.7,1-1.2,1.5l-1.6,0.7c-0.6,0.3-1.3,0.4-2.3,0.6l-2.1-0.9
	c-1-0.1-1.6-0.1-2.5-0.4c-0.9-0.4-1.5-0.6-2.2-0.9c-0.4-0.4-0.9-0.6-1.2-1.2c-0.7-0.6-0.9-1.2-1.6-1.9c-0.2-0.9-0.6-1.6-1-2.6
	l-0.7-1.5l-0.3-4.1c-0.2-1.6-0.7-7.6-0.7-9.7V173c0-1.5,0-3.2,0.2-5c0.7-5.1,1.3-9.8,1.8-14.9l0.7-7.5c0.4-2.8,0.3-5.3,0.3-8.2
	c-1.5,0.7-0.6,8.1-3.1,23.3c-0.6-1.6-1.3-1.9-1.3-5.3v-0.9c0-1.9,0.4-4.7,0.6-7.5c0.2-1.9,0.4-4,0.4-5.7c0-1,0-1.8-0.2-2.2l-0.3-1.9
	c-0.2,0-0.3,0.1-0.4,0.6c-0.2,1-0.6,2.9-1,4c-0.4,1.6-1.2,1.8-1.8,1.8s-1.2-0.4-1.6-0.4c-1.6-0.1-2.6-1.2-4.2-1.8
	c-1-0.4-1.8-0.6-2.2-0.6c-0.7,0-1.5,0.3-2.1,0.9l-0.3,0.4c-0.2,3.1-0.4,6.4-0.9,9.8c-0.6,3.5-1,11.3-1.5,14.7
	c-0.3,2.8-0.6,7.3-0.6,10.1v8.9c0,2.1,1,5.3,1.5,7c0.2,0.9,0.3,1.6,0.7,2.5l0.4,1.8l0.3,0.6c0.6,1.6,0.9,2.9,1.8,4.2
	c0.7,1.8,1.5,3.2,2.5,4.7c1,1.6,2.3,3.1,4,4.5c1.5,1.3,3.2,2.5,5,3.4c2.3,1,4.5,1.6,6.7,1.9c1.2,0.3,2.1,0.4,3.2,0.6h1.5l0.7,0.1
	h0.9c2.2,0,4.3-0.1,6.5-0.7c1-0.1,2.2-0.4,3.5-0.7c1.2-0.4,2.2-0.9,3.4-1.6c1-0.4,2.1-1.3,3.2-2.4c1-0.9,2.1-1.8,2.9-2.9
	c0.7-1,1.3-2.1,2.1-3.2c0.4-1.2,1-2.1,1.3-3.4c0.6-2.2,1-4,1.5-6.2v-2.1c0-0.6,0.1-0.6,0.1-0.7c0.1-1.2,0.3-2.2,0.3-3.2l0.1-3.1
	l0.1-18.5c0-5.1,0.1-10.3,0.1-15.4v-15.2c-0.3,0.3-0.6,0.4-0.9,0.4C151.2,138.1,151,137.9,150.6,137.9L150.6,137.9z"/>
<linearGradient id="SVGID_00000183938079479751000940000000971978964243436720_" gradientUnits="userSpaceOnUse" x1="192.645" y1="150.64" x2="192.645" y2="229.06" gradientTransform="matrix(1 0 0 -1 0 368)">
	<stop  offset="0" style="stop-color:#ECA94A"/>
	<stop  offset="1" style="stop-color:#DD8C44"/>
</linearGradient>
<path style="fill:url(#SVGID_00000183938079479751000940000000971978964243436720_);" d="M218.1,195.2c-2.6,0-5.3,0.1-8.1,0.4
	l-0.7,0.1c-1.9,0.1-4,0.1-6.2,0.1h-2.1c-4.2,0-8.4-0.1-12.5,0.3c-0.4-2.2-0.3-4.5-0.3-6.9v-16.6l1.9-20.7l-1.9-13.2
	c-1.3,1.8-0.7,5.9-0.7,10.1c-1-1-1.9-1-2.4-2.6l-0.1-1.5l0.1-3.1c0-0.9-0.1-1.6-0.4-2.2c-0.1-0.4-0.3-0.7-0.7-0.7s-0.6,1.2-1,1.9
	c-0.4,0.6-1,0.9-1.8,0.9l-2.1-0.1c-2.2,0-4.2-0.9-6.6-0.9c-0.7,0-1.6,0.1-2.5,0.4v57.6l-0.4,3.8c-1,0-1.5,0-2.2,0.4
	c-0.3,0.1-0.4,0.3-0.4,0.4c0,0.4,1,0.9,1.5,1.3c0.7,0.6,0.7,1.5,0.7,2.5v1c0.1,1,0.1,2.1,0.1,3.1c0,2.2,0,4.2,0.7,6l22.6-1.9
	c3-0.3,6.1-0.5,9.1-0.6h16.3l-0.1-3.7c-0.4-1.2-1-2.5-1-3.7V207c0-1,0.9-1.5,1-2.2l0.1-1.6l-0.1-1.3c-0.1-0.7-1-3.1-1-4.7
	C217,195.8,217.7,196.4,218.1,195.2L218.1,195.2z"/>
<linearGradient id="SVGID_00000145020169661859863150000008498067377087767683_" gradientUnits="userSpaceOnUse" x1="262.175" y1="147.71" x2="262.175" y2="232.2385" gradientTransform="matrix(1 0 0 -1 0 368)">
	<stop  offset="0" style="stop-color:#ECA94A"/>
	<stop  offset="1" style="stop-color:#DD8C44"/>
</linearGradient>
<path style="fill:url(#SVGID_00000145020169661859863150000008498067377087767683_);" d="M285.1,144.2c-1.6-1.3-3.2-2.4-5.1-3.4
	c-1.6-1-3.4-1.9-5.3-2.4c-3.4-1.6-6.9-1.9-10.3-2.4c-5.1-0.7-10.9-0.4-14.8,0.7c-3.5,0.4-8.5,1.6-11,2.4c2.8,1.2,5.4-0.1,8.2-0.6
	c2.5-0.6,5.6-1.5,9.2-1.6c-1.6,0.7-1.6,1.6-4.4,2.6c-1.6,0.4-3.8,0.7-5.6,1.2c-2.2,0.4-4.4,0.6-5.6,1c-0.7,0.4-1.2,0.6-1.2,0.7
	c0,0.4,2.1,0.3,3.7,0.4c0.1,0.1,0.4,0.4,0.9,0.6c-1.8,2.5-5.3,1-7.6,0.7l-1.5-0.1c-0.7,0-1.8,0.3-2.8,0.9v9.8
	c0.1,2.2,0.3,3.8,0.3,5.1l-0.6,7.5v30.2c-0.4,1.6-0.4,8.6-0.4,10.3c0,4.1,0.1,8.2,0.3,12.3l2.9-0.6c1.3-1.2,2.3-2.2,3.5-2.2
	c1,0.1,1.8,1.5,2.5,1.9c0.4,0.1,0.6,0.3,0.7,0.3l1.8-0.3c0.1-0.4,1.6-1.3,3.2-1.8c0.1-0.1,0.6-0.1,1-0.1c1,0,0.9,1.8,1.8,1.9
	c-0.6-5.1-0.9-24-0.6-27c1.3,0,9.5-1.2,17.4-2.9c3.4-0.7,15-4.4,17.9-6.4c6.9-4.8,9.2-13.5,9.2-21.1
	C293,155.9,290.5,148.3,285.1,144.2L285.1,144.2z M271.9,170c-4,2.1-12,3.8-22.4,5.1V169c0.1-2.3,0.1-3.8,0-9.8c0-1.3,0-2.2-0.1-2.6
	c3.2-0.6,6.3-1.6,9.1-2.1c2.5-0.3,4.7-0.4,6.7,0c1.9,0.1,3.8,0.3,5.7,0.7c0.7,0.3,3.2,1.5,4,1.9c1.3,1.8,1.8,3.5,1.8,5.3
	C276.5,165.8,274.4,168.7,271.9,170L271.9,170z"/>
<linearGradient id="SVGID_00000166674084680278850920000001426178790312322483_" gradientUnits="userSpaceOnUse" x1="334.56" y1="151.12" x2="334.56" y2="227.62" gradientTransform="matrix(1 0 0 -1 0 368)">
	<stop  offset="0" style="stop-color:#ECA94A"/>
	<stop  offset="1" style="stop-color:#DD8C44"/>
</linearGradient>
<path style="fill:url(#SVGID_00000166674084680278850920000001426178790312322483_);" d="M367.2,203.6c-0.6,0-0.7-0.4-1-1
	c0-0.3-0.1-0.4-0.7-0.9c-0.1,0-0.1-0.4-0.1-0.7c0.1-3.7,0.3-5.1,0.3-8.4v-9.8l-0.4-6c-0.4,1.8-0.7,2.8-0.7,4.7
	c-0.7-0.6-1.5-0.6-1.9-1.3c0-0.1-0.1-0.3-0.1-0.6l0.1-1.5c0-0.3-0.1-0.6-0.3-0.9c-0.1-0.3-0.3-0.4-0.4-0.4c-0.3,0-0.3,0.6-0.7,0.9
	l-0.7,0.1v-1.5l-0.1-5.4c0-0.7,0-1.5,0.3-2.9c-0.9,1.5-1.9,1.8-3.2,1.9c-0.4,0.1-1,0.1-1.6,0.1l-5.6-0.1l-6,0.1h-5.7
	c-0.9,0.1-1.8,0.7-2.8,0.7c0.9,0.3,1.5,0.4,2.2,0.4c-0.3,0.6-0.1,1.3-0.4,1.8h-0.9c-0.3,0-0.4,0.1-0.6,0.3l-0.3,0.3
	c0,0.4,0.4,0.4,0.6,0.7c0.1,0.4,0.1,0.7,0.1,1.3v9.2c-0.1,0.3-0.1,0.7-0.1,1.2s0,0.7,0.1,1h11.1v7.6l-0.7,0.1
	c-2.5,1.5-5,1.8-7.8,2.5c-2.3,0.9-4,1-5.4,1.2h-1.6c-1.3,0-2.6-0.1-4-0.4c-1.2-0.3-2.6-1.2-3.5-1.9c-3.5-3.8-4.5-7.6-4.5-15.1
	c0-2.6,0-4.7,0.4-6.9s0.7-4.5,1.5-6.6c0.4-2.1,1.2-3.7,1.9-5.1c1.3-3.8,7.5-6.3,12-5c1.8,0.7,3.2,1.2,5.1,1.9
	c3.5,1.3,6.9,3.1,10.1,6c1.2-2.6-4.1-4-6.3-5.6l-4.1-1.8c-1.3,0-3.2-1.6-4.5-2.1c0.6-0.1,0.9-0.4,1.9-0.6c0.1,0,0.3-0.1,0.7-0.1
	c0.6,0,1.3,0.1,2.2,0.4c1.6,0.4,3.5,1.3,5.4,2.5c1.9,1,3.8,2.2,5.4,2.6c0.7,0.3,1.2,0.4,1.5,0.4c0-0.3,0-0.4-0.1-0.6l-2.3-2.2
	c-0.4-0.4-0.6-1-0.6-1.6c0-0.4,0-0.7,0.1-0.9l1.3-1.2c0.6-1.2,2-2.2,3.2-3.2c1-0.7,1.9-1.8,1.9-3.1l-0.4-1.2c-2.9-1.8-6-3.2-8.8-4.5
	c-4.8-1.9-8.5-2.4-14.1-2.4c-1.6,0-5.6,0.1-7.3,0.4c-1.8,0.3-3.4,0.9-4.8,1.5c-1.8,0.9-4,1.6-5.4,2.9c-1.5,0.9-2.6,2.2-3.7,3.5
	c-1.2,1.3-3.1,2.5-3.7,4c-1,1.3-1.6,2.6-2,4c-1.3,2.9-2.2,5.7-2.6,8.4c-0.9,2.8-1.2,5.3-1.3,7.9v6.2c-0.4,1.2-0.6,2.4-0.6,3.7
	c0.4,3.5,0.6,6.9,1.3,10.4c0.4,1.8,0.9,3.5,1.5,5.4l2.6,5.3c1.5,1.6,2.4,3.2,5.7,5.6c1.6,1,3.2,2.1,5.1,3.1c2.4,1.3,4.5,1.8,6.7,2.6
	c2.4,0.4,4.5,0.7,6.9,0.7s4.4-0.3,6.3-0.6c2-0.4,4.2-1,6.2-1.5c1.3-0.6,2.9-1,4.4-1.5v4.5l2.5-0.1c3.2-0.4,4-0.7,5-0.7h0.7
	c0.4,0,0.7,0.3,1.6,0.7h1.8c0.6-0.1,2.5-0.6,4-0.6c0.7,0,0.6,0.7,1.3,0.7c0-1.9,0-3.8-0.1-5.4v-6.6L367.2,203.6L367.2,203.6z"/>
<linearGradient id="SVGID_00000112623642034431080110000004410154428347699590_" gradientUnits="userSpaceOnUse" x1="412.1337" y1="145.93" x2="412.1337" y2="226.85" gradientTransform="matrix(1 0 0 -1 0 368)">
	<stop  offset="0" style="stop-color:#ECA94A"/>
	<stop  offset="1" style="stop-color:#DD8C44"/>
</linearGradient>
<path style="fill:url(#SVGID_00000112623642034431080110000004410154428347699590_);" d="M436.1,193.9c0-0.7,0.1-1.8,0.4-3.2
	c0.1-1.3,0.1-2.5,0-3.7l-0.1-0.6c-1.3-0.1-2.6-0.1-3.8-0.3l-1.8-4.1c-0.7-2.2-1.2-4.1-2-6.3l-3.4-8.2c-2.2-5.3-2.6-9.1-4.2-16
	c-1-4-2.2-6.9-2.9-10.4c-1,1.6-0.1,4,0.4,7.3c-0.7-0.4-2.2,0.3-2.8-1l-2.2-5.1c-0.1-0.4-0.3-0.7-0.6-0.7c-0.4,0-0.1,1.3-0.6,1.8
	c-0.4,1.3-1.6,0.9-2.6,1.3l-4,0.1c0-1.2,0-1.9-0.1-2.9c0-0.4-0.1-0.7-0.4-0.7c-0.1,0-0.4,1.3-1,1.9c-0.4,0.4-0.9,0.6-1.3,0.6
	l-2.9,0.1c-1,0-2.2-0.4-3.4-0.6c-0.7-0.1-1.2-0.3-1.8-0.3s-4.4,0.1-5,0.4c-0.1,5.7-0.4,10.4-1.5,16.1c-0.7,4.8-1.8,9.7-2.8,14.8
	c0,0.6,0,1-0.1,1.5c-1.3,6.9-2.9,13.6-4.2,20.5c-0.6,4.1-1.2,8.2-1.9,12.5c-0.6,4.1-1,8.2,2,12.8c0.1-0.1,0.3-0.3,0.6-0.3l1.3,0.3
	c0.1,0,0.4-0.1,0.6-0.3c1-0.6,1.9-1.5,2.9-1.5l0.6,0.1c0.6,0.1,0.9,1.2,1.5,1.8c0.3,0.1,0.6,0.1,1,0.1h1.2c0.4,0,1.5-0.7,2.8-1.2
	l0.9-0.1c0.9,0,1.3,0.6,1.3,1.6c0.4-4,0.6-7.8,1-12l0.9-6.2l4.5-0.6c1.3-0.1,2.6-0.1,4-0.1c5.4-0.9,8.5-0.6,13-0.9
	c0.4,0,0.9-0.1,1.3-0.1c1,1.3,2.2,2.8,3.1,4.1c2.2,3.5,3.8,8.1,10.3,12.5c0-0.4,1.3-3.1,1.5-3.5c0.6-0.4,0.9-0.7,1-1.2
	c0-0.4,0.1-1,0.3-2.1c0-0.4,0.3-1,0.7-1.5c0.1-0.1,0.3-0.1,0.6-0.1l1.3,0.1c1.2,0,1.5-1,1.9-1.5c0-0.4,0.1-0.7,0.4-1
	c0-0.4,0.4-1.2,0.9-1.8s0.9-0.9,1-1s0.3-0.1,0.6-0.1s0.6,0.1,0.9,0.4c-2.3-2.3-4.4-4.8-6.6-7.8C437.7,196.5,436.8,195.2,436.1,193.9
	L436.1,193.9z M405,187.9l-4.5,0.6l0.9-5.1c1.2-5.3,1.8-10.7,4-23.4c2,7.9,2.5,10,7.5,22.9l1.5,4.1
	C410.9,187.2,408.7,187.5,405,187.9L405,187.9z"/>
<linearGradient id="SVGID_00000017493857658154985570000014066100870772541347_" gradientUnits="userSpaceOnUse" x1="560.2346" y1="148.98" x2="560.2346" y2="231.39" gradientTransform="matrix(1 0 0 -1 0 368)">
	<stop  offset="0" style="stop-color:#ECA94A"/>
	<stop  offset="1" style="stop-color:#DD8C44"/>
</linearGradient>
<path style="fill:url(#SVGID_00000017493857658154985570000014066100870772541347_);" d="M592,173.2c-2.8-22.4-16.6-36.6-43.7-36.6
	c-5.9,0.4-6.7,0.4-6.7,0.6s1.5,0.1,3.2,0.3c3.4,0.1,6.2,0.1,10.7,0.7c-1,0.4-1.2,0.9-2.2,1c-0.4,0.3-1.6,0.6-3.5,0.7l-1.2,0.1h-4.5
	c-2.8,0.1-4.4,0-6,0.1l-1.8,0.3l-1.6,0.4c0,0.4,2.9,0.4,4,1c1.2,0.4,1.5,1,1.6,1.5c0,0.3-0.2,0.6-0.3,1l-1.9,0.1l-7.2-0.3
	c-1,0-1.6,0.1-2.6,0.6l2.6,40.6c0.7,8.9,1.8,17.6,2.8,26.4l3.4-0.4c0.4-0.3,1-0.7,1.5-1.2v0.9c0,0.4,0.3,0.9,0.7,1.3
	s1.9,2.1,2.6,3.2c0.2,0.4,0.4,0.6,0.4,1c0,1.2-1.9,0.6-3.7,2.2l14.1-1.2l17.4-3.7c1.8-1.2,4-2.1,5.7-3.2c1.9-1,3.7-2.5,5.3-3.8
	c1.6-1.8,2.8-3.1,4.1-5.3c1.6-1.6,2-3.2,3.1-4.8l0.3-0.4c1-2.2,1.3-3.7,1.8-5.9c1-4,1.6-7.9,1.6-11.6
	C592.2,177.4,592.3,175.5,592,173.2L592,173.2z M571.1,189.1c-0.4,1.3-1.2,2.2-1.6,3.2c-0.4,0.6-1.2,1.9-1.9,2.5
	c-3.1,2.4-8.9,4.2-15.5,5.3l-0.4-3.5c-0.4-3.4-0.4-6.6-0.9-10l-2.3-32.2c0-0.1,0.3-0.1,0.7-0.1c7,0,14.4,0.6,17.6,5.3
	c1.6,2.3,2.8,6.7,3.8,8.6l1.2,4.2l0.4,4.7c0.2,1.6,0.3,3.1,0.3,4.2C572.2,184.4,571.5,186.9,571.1,189.1L571.1,189.1z"/>
<linearGradient id="SVGID_00000013911207064202820650000015428381137362131604_" gradientUnits="userSpaceOnUse" x1="498.815" y1="80.53" x2="498.815" y2="227.14" gradientTransform="matrix(1 0 0 -1 0 368)">
	<stop  offset="0" style="stop-color:#ECA94A"/>
	<stop  offset="1" style="stop-color:#DD8C44"/>
</linearGradient>
<path style="fill:url(#SVGID_00000013911207064202820650000015428381137362131604_);" d="M523.5,237.7
	c-5.7-12.9-12.7-25.3-18.8-38.1c-1.5-3.2-2.6-6.5-3.8-9.9c0.6-0.3,1.2-0.6,1.8-0.9c6.5-3.2,13-13.2,13.8-21.8
	c-2.2-7.3-4.2-12-8.9-16.1c-10.1-9.2-19.6-10.1-35-10.1c-4.1,0-8.8,0.1-8.8,0.3c0.6,1.8,11,1.3,11,2.1s-1.8,0.7-2.9,0.7h-1
	c-0.7,0-1.8,0-2.5-0.1c-1.8,0-3.8-0.1-4.8,0.3c-0.9,0.1-1.3,0.3-1.3,0.4c0,0.4,1.9,0.6,2.9,1.2c0.7,0.4,1,0.9,1,1.3v1.2
	c0,0.1-0.4,0.3-1.5,0.3h-0.7c-1.9,0-4-0.7-6.2-0.7c-0.7,0-1.5,0.1-2.2,0.4v68c0-0.1,0.1-0.1,0.4-0.1l1.3,0.1l1-0.3
	c1-0.7,1.9-1.9,3.1-1.9l0.7,0.1c0.6,0.1,1.5,1.3,2,1.8c0.4,0.1,0.7,0.3,1,0.3c0.4,0,0.9-0.1,1.6-0.3c0.7-0.4,2.8-1.5,4.4-1.5
	c1,0,0.7,1.2,1.6,1.6c0-2.2-0.1-4.4-0.6-6.7v-13.6c3.5,0,6.6-0.1,9.1-0.3c5.1,10.5,9.3,21.5,16.8,30.6c0.6,1.1,1.3,2.1,1.9,3.2
	c0.2-0.1,0.4-0.3,0.6-0.4c0.2,0.3,0.3,0.6,0.4,1c8.4,20.5,24.1,36.1,35.5,54.7c0.5,0.9,2,1.1,5.4,3c-3.8-9.1-7-15.9-9.6-23
	C529.3,255.6,527.3,246.3,523.5,237.7L523.5,237.7z M472.7,179.7l0.3-20.8l-0.3-2.8c1.9,0.1,4,0,6.2,0.4c12,0.9,9.8,0.9,16.3,3.8
	c6,3.4,4.5,18-11.4,18.6c-2.9,0.1-6,0.7-9.1,0.7H472.7z"/>
<path class="st11" d="M187.7,149.1c0-1,0-1.9-0.1-2.9h-2.3l0,0.2C185.8,148,186.6,148,187.7,149.1L187.7,149.1z"/>
<path class="st11" d="M114.1,154.5v0.9c0,3.4,0.7,3.7,1.3,5.3c1-6,1.4-10.8,1.7-14.5h-2.4c0,0.3-0.1,0.6-0.1,0.8
	C114.5,149.8,114.1,152.6,114.1,154.5z"/>
<path class="st11" d="M418.6,148.5c-0.1-0.8-0.3-1.6-0.5-2.3h-2.9l0.5,1.3C416.4,148.8,417.9,148,418.6,148.5L418.6,148.5z"/>
<path class="st11" d="M44.6,138.2c-1-4.2-2.6-7.9-3.8-12c-1.2,2.1,0.9,5.7,1.6,9.4c-0.3-0.2-0.6-0.2-1-0.4
	C34.8,116,22.2,99.8,13.6,81.6c-0.4-0.9-1.9-1.4-5.1-3.6c2.8,9.5,5.2,16.6,7,23.9c2.2,9.2,3.1,18.7,6,27.6
	c1.8,5.6,3.8,11.1,5.8,16.6h19.5C46.1,143.5,45.3,140.9,44.6,138.2L44.6,138.2z"/>
<path class="st11" d="M44.6,138.2c-1-4.2-2.6-7.9-3.8-12c-1.2,2.1,0.9,5.7,1.6,9.4c-0.3-0.2-0.6-0.2-1-0.4
	C34.8,116,22.2,99.8,13.6,81.6c-0.4-0.9-1.9-1.4-5.1-3.6c2.8,9.5,5.2,16.6,7,23.9c2.2,9.2,3.1,18.7,6,27.6
	c1.8,5.6,3.8,11.1,5.8,16.6h19.5C46.1,143.5,45.3,140.9,44.6,138.2L44.6,138.2z"/>
<path class="st11" d="M95.2,120.2c-1,0-1.5-0.6-2.5-0.6l-0.7,0.2c-1,0.4-2.2,0.9-3.2,0.9c-0.4,0-0.7-0.2-1.2-0.3
	c-0.4-0.4-0.6-2.1-1.3-2.6c-0.4-0.7-1.6-0.7-2.3-0.7s-2.1,0.4-3.7,0.4c-1.8-0.2-1.9-2.9-2.2-2.6c-1.6,4.7-2.9,9.4-4.5,14.2
	c-2,5.9-4.3,11.5-6.7,17.2H86l0.1-0.4C89.5,137.5,92.4,129,95.2,120.2L95.2,120.2z"/>
<path class="st11" d="M95.2,120.2c-1,0-1.5-0.6-2.5-0.6l-0.7,0.2c-1,0.4-2.2,0.9-3.2,0.9c-0.4,0-0.7-0.2-1.2-0.3
	c-0.4-0.4-0.6-2.1-1.3-2.6c-0.4-0.7-1.6-0.7-2.3-0.7s-2.1,0.4-3.7,0.4c-1.8-0.2-1.9-2.9-2.2-2.6c-1.6,4.7-2.9,9.4-4.5,14.2
	c-2,5.9-4.3,11.5-6.7,17.2H86l0.1-0.4C89.5,137.5,92.4,129,95.2,120.2L95.2,120.2z"/>
<path class="st11" d="M151.6,138.1c-0.4,0-0.6-0.1-1-0.1s-0.7,0.1-1,0.6c-1.2,1.6-2.2,4.2-3.5,4.2c-0.3,0-0.4,0-0.6-0.1
	c-1-0.4-1.2-3.4-2.2-4.1c-0.3-0.4-0.6-0.6-0.9-0.6c-0.1,0-0.7,0.1-1.5,0.6c-0.7,0-3.1,3.4-4.7,3.4c-1,0-0.3-2.6-1.8-4.2v1
	c0,2.1,0.1,4.7,0.1,7.5h17.9v-8.6C152.2,137.9,151.9,138.1,151.6,138.1L151.6,138.1z"/>
<path class="st11" d="M151.6,138.1c-0.4,0-0.6-0.1-1-0.1s-0.7,0.1-1,0.6c-1.2,1.6-2.2,4.2-3.5,4.2c-0.3,0-0.4,0-0.6-0.1
	c-1-0.4-1.2-3.4-2.2-4.1c-0.3-0.4-0.6-0.6-0.9-0.6c-0.1,0-0.7,0.1-1.5,0.6c-0.7,0-3.1,3.4-4.7,3.4c-1,0-0.3-2.6-1.8-4.2v1
	c0,2.1,0.1,4.7,0.1,7.5h17.9v-8.6C152.2,137.9,151.9,138.1,151.6,138.1L151.6,138.1z"/>
<path class="st11" d="M115.1,141.3c0-1,0-1.8-0.2-2.2l-0.3-1.9c-0.2,0-0.3,0.1-0.4,0.6c-0.2,1-0.6,2.9-1,4c-0.4,1.6-1.2,1.8-1.8,1.8
	s-1.2-0.4-1.6-0.4c-1.6-0.1-2.6-1.2-4.2-1.8c-1-0.4-1.8-0.6-2.2-0.6c-0.7,0-1.5,0.3-2.1,0.9L101,142c-0.1,1.3-0.2,2.7-0.3,4.2h14
	C114.9,144.5,115.1,142.8,115.1,141.3L115.1,141.3z"/>
<path class="st11" d="M115.1,141.3c0-1,0-1.8-0.2-2.2l-0.3-1.9c-0.2,0-0.3,0.1-0.4,0.6c-0.2,1-0.6,2.9-1,4c-0.4,1.6-1.2,1.8-1.8,1.8
	s-1.2-0.4-1.6-0.4c-1.6-0.1-2.6-1.2-4.2-1.8c-1-0.4-1.8-0.6-2.2-0.6c-0.7,0-1.5,0.3-2.1,0.9L101,142c-0.1,1.3-0.2,2.7-0.3,4.2h14
	C114.9,144.5,115.1,142.8,115.1,141.3L115.1,141.3z"/>
<path class="st11" d="M118.2,145.6c0.4-2.8,0.3-5.3,0.3-8.2c-0.9,0.4-0.9,3.3-1.3,8.9h1L118.2,145.6L118.2,145.6z"/>
<path class="st11" d="M118.2,145.6c0.4-2.8,0.3-5.3,0.3-8.2c-0.9,0.4-0.9,3.3-1.3,8.9h1L118.2,145.6L118.2,145.6z"/>
<path class="st11" d="M187.6,146.2h1.8l-1.1-7.2C187.4,140.3,187.5,143.1,187.6,146.2L187.6,146.2z"/>
<path class="st11" d="M187.6,146.2h1.8l-1.1-7.2C187.4,140.3,187.5,143.1,187.6,146.2L187.6,146.2z"/>
<path class="st11" d="M185.2,145l0.1-3.1c0-0.9-0.1-1.6-0.4-2.2c-0.1-0.4-0.3-0.7-0.7-0.7s-0.6,1.2-1,1.9c-0.4,0.6-1,0.9-1.8,0.9
	l-2.1-0.1c-2.2,0-4.2-0.9-6.6-0.9c-0.7,0-1.6,0.1-2.5,0.4v5h15.1L185.2,145L185.2,145z"/>
<path class="st11" d="M185.2,145l0.1-3.1c0-0.9-0.1-1.6-0.4-2.2c-0.1-0.4-0.3-0.7-0.7-0.7s-0.6,1.2-1,1.9c-0.4,0.6-1,0.9-1.8,0.9
	l-2.1-0.1c-2.2,0-4.2-0.9-6.6-0.9c-0.7,0-1.6,0.1-2.5,0.4v5h15.1L185.2,145L185.2,145z"/>
<path class="st11" d="M285.1,144.2c-1.6-1.3-3.2-2.4-5.1-3.4c-1.6-1-3.4-1.9-5.3-2.4c-3.4-1.6-6.9-1.9-10.3-2.4
	c-5.1-0.7-10.9-0.4-14.8,0.7c-3.5,0.4-8.5,1.6-11,2.4c2.8,1.2,5.4-0.1,8.2-0.6c2.5-0.6,5.6-1.5,9.2-1.6c-1.6,0.7-1.6,1.6-4.4,2.6
	c-1.6,0.4-3.8,0.7-5.6,1.2c-2.2,0.4-4.4,0.6-5.6,1c-0.7,0.4-1.2,0.6-1.2,0.7c0,0.4,2.1,0.3,3.7,0.4c0.1,0.1,0.4,0.4,0.9,0.6
	c-1.8,2.5-5.3,1-7.6,0.7l-1.5-0.1c-0.7,0-1.8,0.3-2.8,0.9v1.1h55.2C286.6,145.5,285.9,144.8,285.1,144.2L285.1,144.2z"/>
<path class="st11" d="M285.1,144.2c-1.6-1.3-3.2-2.4-5.1-3.4c-1.6-1-3.4-1.9-5.3-2.4c-3.4-1.6-6.9-1.9-10.3-2.4
	c-5.1-0.7-10.9-0.4-14.8,0.7c-3.5,0.4-8.5,1.6-11,2.4c2.8,1.2,5.4-0.1,8.2-0.6c2.5-0.6,5.6-1.5,9.2-1.6c-1.6,0.7-1.6,1.6-4.4,2.6
	c-1.6,0.4-3.8,0.7-5.6,1.2c-2.2,0.4-4.4,0.6-5.6,1c-0.7,0.4-1.2,0.6-1.2,0.7c0,0.4,2.1,0.3,3.7,0.4c0.1,0.1,0.4,0.4,0.9,0.6
	c-1.8,2.5-5.3,1-7.6,0.7l-1.5-0.1c-0.7,0-1.8,0.3-2.8,0.9v1.1h55.2C286.6,145.5,285.9,144.8,285.1,144.2L285.1,144.2z"/>
<path class="st11" d="M333.4,140.4c-1.6,0-5.6,0.1-7.3,0.4c-1.8,0.3-3.4,0.9-4.8,1.5c-1.8,0.9-4,1.6-5.4,2.9
	c-0.5,0.3-0.9,0.6-1.3,0.9h39.8c-2.3-1.3-4.7-2.4-6.8-3.4C342.6,140.8,338.9,140.4,333.4,140.4L333.4,140.4z"/>
<path class="st11" d="M333.4,140.4c-1.6,0-5.6,0.1-7.3,0.4c-1.8,0.3-3.4,0.9-4.8,1.5c-1.8,0.9-4,1.6-5.4,2.9
	c-0.5,0.3-0.9,0.6-1.3,0.9h39.8c-2.3-1.3-4.7-2.4-6.8-3.4C342.6,140.8,338.9,140.4,333.4,140.4L333.4,140.4z"/>
<path class="st11" d="M418.2,146.2h1.4c-0.5-1.7-1-3.3-1.4-5C417.4,142.4,417.8,144,418.2,146.2z"/>
<path class="st11" d="M418.2,146.2h1.4c-0.5-1.7-1-3.3-1.4-5C417.4,142.4,417.8,144,418.2,146.2z"/>
<path class="st11" d="M413.7,142.3c-0.1-0.4-0.3-0.7-0.6-0.7c-0.4,0-0.1,1.3-0.6,1.8c-0.4,1.3-1.6,0.9-2.6,1.3l-4,0.1
	c0-1.2,0-1.9-0.1-2.9c0-0.4-0.1-0.7-0.4-0.7c-0.1,0-0.4,1.3-1,1.9c-0.4,0.4-0.9,0.6-1.3,0.6l-2.9,0.1c-1,0-2.2-0.4-3.4-0.6
	c-0.7-0.1-1.2-0.3-1.8-0.3s-4.4,0.1-5,0.4c0,1-0.1,1.9-0.1,2.8h25.5L413.7,142.3L413.7,142.3z"/>
<path class="st11" d="M413.7,142.3c-0.1-0.4-0.3-0.7-0.6-0.7c-0.4,0-0.1,1.3-0.6,1.8c-0.4,1.3-1.6,0.9-2.6,1.3l-4,0.1
	c0-1.2,0-1.9-0.1-2.9c0-0.4-0.1-0.7-0.4-0.7c-0.1,0-0.4,1.3-1,1.9c-0.4,0.4-0.9,0.6-1.3,0.6l-2.9,0.1c-1,0-2.2-0.4-3.4-0.6
	c-0.7-0.1-1.2-0.3-1.8-0.3s-4.4,0.1-5,0.4c0,1-0.1,1.9-0.1,2.8h25.5L413.7,142.3L413.7,142.3z"/>
<path class="st11" d="M541.6,137.2c0,0.1,1.5,0.1,3.2,0.3c3.4,0.1,6.2,0.1,10.7,0.7c-1,0.4-1.2,0.9-2.2,1c-0.4,0.3-1.6,0.6-3.5,0.7
	l-1.2,0.1h-4.5c-2.8,0.1-4.4,0-6,0.1l-1.8,0.3l-1.6,0.4c0,0.4,2.9,0.4,4,1c1.2,0.4,1.5,1,1.6,1.5c0,0.3-0.2,0.6-0.3,1l-1.9,0.1
	l-7.2-0.3c-1,0-1.6,0.1-2.6,0.6l0.1,1.2h50.6c-7.2-6.1-17.2-9.6-30.6-9.6C542.5,137.1,541.6,137.1,541.6,137.2L541.6,137.2z"/>
<path class="st11" d="M541.6,137.2c0,0.1,1.5,0.1,3.2,0.3c3.4,0.1,6.2,0.1,10.7,0.7c-1,0.4-1.2,0.9-2.2,1c-0.4,0.3-1.6,0.6-3.5,0.7
	l-1.2,0.1h-4.5c-2.8,0.1-4.4,0-6,0.1l-1.8,0.3l-1.6,0.4c0,0.4,2.9,0.4,4,1c1.2,0.4,1.5,1,1.6,1.5c0,0.3-0.2,0.6-0.3,1l-1.9,0.1
	l-7.2-0.3c-1,0-1.6,0.1-2.6,0.6l0.1,1.2h50.6c-7.2-6.1-17.2-9.6-30.6-9.6C542.5,137.1,541.6,137.1,541.6,137.2L541.6,137.2z"/>
<path class="st11" d="M463.8,141.1c0.6,1.8,11,1.3,11,2.1s-1.8,0.7-2.9,0.7h-1c-0.7,0-1.8,0-2.5-0.1c-1.8,0-3.8-0.1-4.8,0.3
	c-0.9,0.1-1.3,0.3-1.3,0.4c0,0.4,1.9,0.6,2.9,1.2c0.3,0.2,0.5,0.3,0.6,0.5h35.5c-8-4.8-16.5-5.3-28.7-5.3
	C468.5,140.8,463.8,141,463.8,141.1L463.8,141.1z"/>
<path class="st11" d="M463.8,141.1c0.6,1.8,11,1.3,11,2.1s-1.8,0.7-2.9,0.7h-1c-0.7,0-1.8,0-2.5-0.1c-1.8,0-3.8-0.1-4.8,0.3
	c-0.9,0.1-1.3,0.3-1.3,0.4c0,0.4,1.9,0.6,2.9,1.2c0.3,0.2,0.5,0.3,0.6,0.5h35.5c-8-4.8-16.5-5.3-28.7-5.3
	C468.5,140.8,463.8,141,463.8,141.1L463.8,141.1z"/>
<path class="st12" d="M211.8,111.2c-0.1,0-0.1-0.1-0.2-0.1c0,0,0,0,0,0.1C211.7,111.2,211.7,111.2,211.8,111.2z"/>
<path class="st12" d="M214.3,108.4c-0.8-0.5-1.5-1.1-2.3-1.6c-0.3-0.2-0.4-0.4-0.3-0.8c0.2-0.9,0.4-1.9,0.5-2.8
	c0.3-1.8,0.5-3.6,0.8-5.4c0.1-0.5,0.1-1.1,0-1.7c-0.7,0.3-1.3,0.5-1.9,0.8c-0.1,0-0.2,0.2-0.3,0.3c-0.3,0.8-1,1.2-1.6,1.7
	c1,4,1.6,8.2,2.5,12.3c0.1,0,0.1,0.1,0.2,0.1c0,0,0.1,0,0.1,0h-0.1c0.9,0.4,1.8,0.7,2.7,1c0.2,0.1,0.4,0.1,0.6,0.2
	c0.2-1,0.5-2.6,0.6-3.1C215.2,109,214.8,108.7,214.3,108.4L214.3,108.4z"/>
<path class="st12" d="M221,109.8c-0.1,0.4-0.4,2.4-0.6,3.5c1.5,0.1,3,0,4.5-0.2c-0.1-1.1-0.5-3.1-0.5-3.6
	C223.2,109.6,222.1,109.7,221,109.8L221,109.8z"/>
<path class="st12" d="M211.8,111.2C211.8,111.2,211.8,111.2,211.8,111.2l0.1,0C211.9,111.2,211.9,111.2,211.8,111.2L211.8,111.2z"/>
<path class="st12" d="M229.4,3.1l-1.2,2.9c-0.4,0.9-0.7,1.9-1.1,2.9c-0.7,1.7-1.6,5-2.3,8.5c-0.6,3.2-1,4.8-1.2,8.1
	c-0.2,2.3-0.3,4.4-0.4,6.8c-0.7-0.2-0.5-1-1.1-0.9s-1.2,0.5-1.4,0.6c-0.4,0-0.6,0.2-1,0h-0.2c-0.4,0-0.6-0.4-1-0.4
	c-0.6,0-0.9,0.6-1.4,1.1c-0.3,0.4-0.8,0.2-1.1,0.5c-0.4-1.5-1.2-3.1-1.7-4.6c-1.1-4-2.3-8.3-2.7-10.8c-0.3,1.6-0.8,4-0.9,5.9
	c-0.2,2.4-0.4,4.7-0.4,7l0.3,2.2c-0.7,0-0.6-0.7-1.2-0.4c-0.5,0.2-1,0.7-1.2,0.7c-0.4,0.2-0.6,0.3-1.1,0.1c-0.2-0.2-0.5-0.6-0.8-0.7
	c-0.6,0-1,0.6-1.6,1c-0.4,0.3-0.7,0-1.1,0.3c-1.2-7-2.8-11.4-4.5-17.6c-0.9-3-1.6-6.8-2-10.2V6.1c0.5-0.3,1-0.4,1.7-0.3
	c0.6,0.1,1.2,0.3,1.8,0.1c0.4-0.1,0.9,0.2,1.3-0.4c0.2-0.4,0.3-1.3,0.6-0.5c0.1,0.3,0.2,0.8,0.2,1.3c0.2,0.5,0.1,0.9,0.3,1.3
	c0.3,0.6,0.6,0.7,1,0.9c-0.1-0.8-0.3-2.6-0.2-3.2l0.1-0.8c0.2,0.6,0.2,1.7,0.4,2.5c0.2,0.8,0.4,1.6,0.5,2.5c0.5,5,1.1,10.4,1.5,12.3
	c0.2-3.1,0.4-9.2,0.9-11.8c0.4-1.9,0.5-3.5,0.8-5.4c0.5,0.3,0.4,0.9,1,0.8c0.6-0.2,1.3-0.3,1.4-0.3c0.4,0,0.8-0.1,1.1,0.1
	c0.2,0.2,0.4,0.8,0.7,0.9c0.6,0.2,1.1-0.2,1.7-0.6c0.4-0.2,0.9,0.2,1.2,0.1l-0.4,2.8c0.3,0,0.5,0,0.8,0.2c-0.1-0.6-0.1-1.2,0-1.8
	c0-0.5,0.1-1,0.2-1.6c0.3,0.5,0.1,1.5,0.2,2.2l0.4,2.2c0.4,2.9,0.8,9,1.9,12.6c0.9-7.2,2.5-16.9,4.8-21.3l0.1,0
	c0.5-0.1,1.1,0.2,1.6,0.6c0.4,0.4,0.9,0.8,1.4,1.1c0.5,0.2,0.8,0.7,1.4,0.3c0.6-0.3,1-1.2,0.9-0.2c-0.1,0.4-0.3,0.9-0.6,1.5
	l-0.6,1.5c-0.2,0.8,0.1,1,0.3,1.5c0.4-0.9,0.8-1.6,1.2-2.5C228.6,3.9,229,3.3,229.4,3.1L229.4,3.1z"/>
<path class="st12" d="M256.6,25.7c-0.4,0.8-0.9,1.5-1.5,2.3c-1,1.5-2.9,3-4.6,3.6c-1,0.5-2.2,0.8-3.2,1c-1.2,0.1-2.2,0.1-3.2,0
	l-0.5,0l-0.5,0c-1.1,0-2.1-0.2-3.1-0.5c-1-0.4-2.1-0.8-2.9-1.5c-0.8-0.5-1.5-1.2-2.2-1.9c-0.5-0.8-1.1-1.6-1.5-2.4
	c-0.5-0.9-0.8-1.7-0.9-2.5c-0.2-0.7-0.5-2.4-0.5-4.4c0-0.3,0.1-0.7,0.1-1.1v0c0.4-3.5,2.2-6.1,3.2-7.4c1-1.2,2.3-2.4,3.7-3.3
	l0.3-0.1c0.4,0.1,0.6,0.2,0.8,0.4c0.1,0.1,0.2,0.3,0.2,0.5v0.4l0.2,0.9c0,0.2,0.1,0.5,0.3,0.8l0.2,0.6c0.2,0.2,0.3,0.3,0.5,0.3
	s0.3-0.1,0.4,0c0.2-0.1,1-0.4,1.4-0.4c0.1,0,0.2,0,0.2,0.1c-0.1,0.2-0.1,0.2-0.5,0.4c-0.2,0.3-0.4,0.5-0.9,0.6
	c-0.3,0.2-0.6,0.5-1,0.8c-0.8,0.5-1.3,1.1-1.7,1.8c-0.2,0.3-0.3,0.6-0.4,1l-0.1,0.2c0,0.2,0,0.5,0.1,0.8c0.3-0.5,0.8-1,1.2-1.5
	c0.4-0.4,0.8-0.8,1.1-1.1c1-0.9,2.1-1.7,2.7-1.5c-1.2,0.4-2.2,1.4-3.2,2.5c-0.4,0.5-1.4,1.8-1.6,3.9c-0.3,2.2,0.4,5.8,3.9,6.3
	c0.3,0,1.1,0.1,1.5,0.2c0.4,0,1.2,0,1.5,0c3-0.2,5.1-2.4,5.5-5.7c0-0.2,0.2-2,0.1-2.6c-0.3-1.1-0.8-1.9-1.2-2.8l-0.6-0.8
	c-0.1-0.2-0.2-0.3-0.4-0.4l-0.3-0.3l-0.6-0.4l-0.5-0.1c-0.2,0-0.4,0.1-0.8,0.1c-0.3,0-0.7,0-1.2,0.1l-1.3,0.3
	c-0.9,0-0.3-0.2-0.3-0.4c0.1-0.1,0.1-0.2,0.1-0.4c0-0.2-0.1-0.3-0.2-0.4c-0.2-0.4-0.4-0.5-0.7-0.8c-0.4-0.2-0.6-0.4-0.6-0.5
	c-0.1-0.2-0.1-0.3-0.2-0.4l0.1-0.2c0-0.2,0.1-0.3,0.1-0.4c0.2-0.2,0.4-0.2,0.9-0.5c0.3-0.1,0.6-0.2,0.6-0.4l0.1-0.4
	c0-0.2-0.2-0.3-0.5-0.5l-1.1-0.7c-0.1-0.1-0.2-0.2-0.1-0.4V5.7c0-0.1-0.1-0.2-0.2-0.2c0.7-0.1,1.5-0.2,2.5-0.3l1.8-0.3l2.3,0.2
	c0.7,0.1,1.4,0.3,1.9,0.5c0.8,0.2,1.4,0.7,1.9,1.1l0.8,0.5l0.7,0.8c0.5,0.5,0.9,0.8,1.4,1.4c0.7,1,1.3,2.1,1.7,3.3
	c0.3,1,0.8,2.1,0.9,3c0,0.3,0.1,0.7,0.1,1.2c0,1.2-0.2,2.8-0.3,3.5C257.9,22.8,256.9,25,256.6,25.7L256.6,25.7z"/>
<path class="st12" d="M283.9,32.3l1.7,2.6c-0.1-0.2-0.2-0.2-0.4-0.2c-0.6,0-1.5,0.8-1.7,1.1c-0.2,0.2-0.4,0.4-0.8,0.4
	c-0.2,0-0.5-0.1-0.6-0.1l-0.2,0c-0.6,0.2-0.8,0.5-1.1,0.9c-0.4,0.3-0.6,0.3-0.9,0.5c-1-1.7-1.9-3.3-3-5.2c-0.9-1.7-1.6-3.1-2.3-4.8
	c-0.4-0.8-0.7-1.6-1-2.5c-1.1,0.1-2.4,0.2-4,0.2v5c0.2,0.9,0.2,1.7,0.2,2.5c-0.3-0.2-0.2-0.6-0.6-0.6c-0.6,0-1.4,0.4-1.6,0.5
	c-0.3,0-0.4,0.1-0.6,0.1c-0.1,0-0.2,0-0.4-0.1c-0.2-0.2-0.5-0.6-0.8-0.7l-0.3,0c-0.4,0-0.8,0.4-1.1,0.7l-0.4,0.1l-0.5,0
	c-0.1,0-0.2,0-0.2,0V7.7c0.3-0.1,0.5-0.2,0.8-0.2c0.8,0,1.6,0.3,2.3,0.3h0.3c0.4,0,0.5-0.1,0.5-0.1V7.3c0-0.2-0.1-0.3-0.4-0.5
	c-0.4-0.2-1.1-0.3-1.1-0.4c0-0.1,0.2-0.1,0.5-0.2c0.4-0.2,1.1-0.1,1.8-0.1c0.3,0.1,0.6,0.1,0.9,0.1h0.4c0.4,0,1.1,0,1.1-0.3
	s-3.8-0.1-4-0.8c0-0.1,1.7-0.1,3.2-0.1c5.7,0,9.2,0.3,12.9,3.7c1.7,1.5,2.5,3.2,3.3,5.9c-0.3,3.2-2.7,6.9-5.1,8.1
	c-0.3,0.2-0.6,0.3-1,0.4c0.2,0.4,0.3,0.8,0.4,1.1c0.6,1.4,1,2.8,1.7,4.2C282.5,29.7,283.1,31.1,283.9,32.3L283.9,32.3z M270.4,19.3
	c1.1,0,2.3-0.2,3.4-0.3c5.9-0.2,6.4-5.6,4.2-6.9c-2.4-1.1-1.6-1.1-6-1.4c-0.8-0.2-1.6-0.1-2.3-0.2l0.1,1l-0.1,7.7L270.4,19.3
	L270.4,19.3z"/>
<path class="st12" d="M303.5,32.3c-1.1,0-2.2,0.1-3.4,0.2l-8.3,0.7c-0.3-0.7-0.3-1.4-0.3-2.2c0-0.4,0-0.8,0-1.1v-0.4
	c0-0.4,0-0.7-0.3-0.9c-0.2-0.2-0.5-0.3-0.5-0.5c0,0,0-0.1,0.2-0.2c0.3-0.2,0.4-0.2,0.8-0.2l0.2-1.4V5.1c0.3-0.1,0.6-0.2,0.9-0.2
	c0.9,0,1.6,0.3,2.4,0.3l0.8,0.1c0.3,0,0.5-0.1,0.6-0.3c0.2-0.3,0.2-0.7,0.4-0.7s0.2,0.1,0.3,0.3c0.1,0.2,0.2,0.5,0.2,0.8l0,1.1
	l0,0.5c0.2,0.6,0.5,0.6,0.9,1c0-1.6-0.2-3.1,0.3-3.7l0.7,4.9l-0.7,7.6v6.1c0,0.9,0,1.7,0.1,2.5c1.5-0.2,3-0.1,4.6-0.1h0.8
	c0.8,0,1.6,0,2.3,0l0.3,0c1-0.1,2-0.2,3-0.2c-0.2,0.4-0.4,0.2-0.4,0.7c0,0.6,0.3,1.5,0.4,1.7l0,0.5l0,0.6c0,0.3-0.4,0.4-0.4,0.8v0.2
	c0,0.4,0.2,0.9,0.4,1.4l0,1.3H303.5L303.5,32.3z"/>
<path class="st12" d="M317.1,31l-1.2,0.2c-0.4-3.2-0.8-6.4-1-9.7l-1-15c0.4-0.2,0.6-0.2,1-0.2l2.6,0.1l0.7-0.1
	c0-0.2,0.1-0.3,0.1-0.4c0-0.2-0.2-0.4-0.6-0.5c-0.4-0.2-1.5-0.2-1.5-0.4l0.6-0.2l0.6-0.1c0.6-0.1,1.2,0,2.2-0.1h1.7l0.4-0.1
	c0.7-0.1,1.1-0.2,1.3-0.3c0.4-0.1,0.4-0.2,0.8-0.4c-1.7-0.2-2.7-0.2-3.9-0.3c-0.6,0-1.2,0-1.2-0.1s0.3,0,2.5-0.2
	c10,0,15.1,5.2,16.1,13.5c0.1,0.8,0,1.5,0,2.2c0,1.4-0.2,2.8-0.6,4.3c-0.2,0.8-0.3,1.4-0.6,2.2l-0.1,0.2c-0.4,0.6-0.5,1.2-1.1,1.8
	c-0.5,0.8-0.9,1.3-1.5,1.9c-0.6,0.5-1.2,1-2,1.4c-0.6,0.4-1.5,0.8-2.1,1.2l-6.4,1.3l-5.2,0.4c0.6-0.6,1.4-0.4,1.4-0.8
	c0-0.2-0.1-0.2-0.2-0.4c-0.3-0.4-0.8-1-1-1.2s-0.3-0.3-0.3-0.5v-0.3C317.5,30.8,317.3,30.9,317.1,31L317.1,31z M328,11.9
	c-1.2-1.7-3.9-1.9-6.5-1.9c-0.2,0-0.3,0-0.3,0.1l0.9,11.9c0.2,1.2,0.2,2.4,0.3,3.7l0.2,1.3c2.4-0.4,4.6-1.1,5.7-1.9
	c0.3-0.2,0.5-0.7,0.7-0.9c0.2-0.4,0.4-0.7,0.6-1.2c0.2-0.8,0.4-1.7,0.5-2.9c0-0.4,0-1-0.1-1.6l-0.2-1.7l-0.4-1.6
	C329,14.3,328.6,12.7,328,11.9L328,11.9z"/>
<path class="st12" d="M378.9,25.7c-0.4,0.8-0.9,1.5-1.5,2.3c-1,1.5-2.9,3-4.6,3.6c-1,0.5-2.2,0.8-3.2,1c-1.2,0.1-2.2,0.1-3.2,0
	l-0.5,0l-0.5,0c-1.1,0-2-0.2-3.1-0.5c-1-0.4-2.1-0.8-2.9-1.5c-0.8-0.5-1.5-1.2-2.2-1.9c-0.5-0.8-1.1-1.6-1.5-2.4
	c-0.5-0.9-0.8-1.7-0.9-2.5c-0.2-0.7-0.5-2.4-0.5-4.4c0-0.3,0-0.7,0-1.1v0c0.4-3.5,2.2-6.1,3.2-7.4c1-1.2,2.3-2.4,3.7-3.3l0.3-0.1
	c0.4,0.1,0.6,0.2,0.8,0.4c0.1,0.1,0.2,0.3,0.2,0.5v0.4l0.2,0.9c0,0.2,0,0.5,0.3,0.8l0.2,0.6c0.2,0.2,0.3,0.3,0.5,0.3s0.3-0.1,0.4,0
	c0.2-0.1,1-0.4,1.4-0.4c0.1,0,0.2,0,0.2,0.1c0,0.2-0.1,0.2-0.5,0.4c-0.2,0.3-0.4,0.5-0.9,0.6c-0.3,0.2-0.6,0.5-1,0.8
	c-0.8,0.5-1.3,1.1-1.7,1.8c-0.2,0.3-0.3,0.6-0.4,1l0,0.2c0,0.2,0,0.5,0,0.8c0.3-0.5,0.8-1,1.2-1.5c0.4-0.4,0.8-0.8,1.1-1.1
	c1-0.9,2.1-1.7,2.7-1.5c-1.2,0.4-2.2,1.4-3.2,2.5c-0.4,0.5-1.4,1.8-1.6,3.9c-0.3,2.2,0.4,5.8,3.9,6.3c0.3,0,1.1,0.1,1.5,0.2
	c0.4,0,1.2,0,1.5,0c3-0.2,5.1-2.4,5.5-5.7c0-0.2,0.2-2,0.1-2.6c-0.3-1.1-0.8-1.9-1.2-2.8l-0.6-0.8c-0.1-0.2-0.2-0.3-0.4-0.4
	l-0.3-0.3l-0.6-0.4l-0.5-0.1c-0.2,0-0.4,0.1-0.8,0.1c-0.3,0-0.7,0-1.2,0.1l-1.3,0.3c-0.9,0-0.3-0.2-0.3-0.4c0-0.1,0-0.2,0-0.4
	c0-0.2-0.1-0.3-0.2-0.4c-0.2-0.4-0.4-0.5-0.7-0.8c-0.4-0.2-0.6-0.4-0.6-0.5c0-0.2,0-0.3-0.2-0.4l0-0.2c0-0.2,0-0.3,0.1-0.4
	c0.2-0.2,0.4-0.2,0.9-0.5c0.3-0.1,0.6-0.2,0.6-0.4l0-0.4c0-0.2-0.2-0.3-0.5-0.5L365,6.7c-0.1-0.1-0.2-0.2-0.1-0.4V5.7
	c0-0.1,0-0.2-0.2-0.2c0.7-0.1,1.5-0.2,2.5-0.3l1.8-0.3l2.3,0.2c0.7,0.1,1.4,0.3,2,0.5c0.8,0.2,1.4,0.7,1.9,1.1l0.8,0.5l0.7,0.8
	c0.5,0.5,0.9,0.8,1.4,1.4c0.6,1,1.3,2.1,1.7,3.3c0.3,1,0.8,2.1,0.9,3c0,0.3,0.1,0.7,0.1,1.2c0,1.2-0.2,2.8-0.3,3.5
	C380.2,22.8,379.3,25,378.9,25.7L378.9,25.7z"/>
<path class="st12" d="M401.1,10.6c0.8,0.2,1.7,0.1,1.7,0.5h-2.9c-1.3-0.1-2.6-0.3-4-0.3c-0.9-0.1-1.6-0.1-2.4-0.1h-1
	c0,1.5,0,1.9,0.2,3.4l0.8-0.1c0.4,0,0.6,0.1,1,0.1h5.2c0,0.2,0,0.4,0,0.8c0,0.9-0.2,1.6-0.2,2.4v0.5c0,0.4,0,0.6,0.2,0.9
	c0,0.2,0.3,0.3,0.3,0.4c0,0,0,0.1-0.2,0.2c0,0-0.2,0.1-0.2,0.1l-0.4,0c-0.1,0-0.2,0-0.3,0.1c-0.3,0.2-0.3,0.5-0.5,0.8
	c0.6,0,1.2,0,1.5,0.3c-0.3,0.2-0.9,0.2-1.5,0.2c-0.2,0-0.3,0-0.4,0l-2.7,0.2c-0.9,0-1.7,0-2.4-0.2c0,2.4,0.3,8.6,0.6,12.2
	c-0.2-0.1-0.6-0.7-1-0.7c-0.6,0-1.2,0.7-1.4,0.7c-0.2,0-0.4,0.1-0.6,0.1c-0.2,0-0.3,0-0.3,0c-0.3-0.2-0.5-0.7-0.9-0.7
	c-0.6,0-0.9,0.4-1.4,0.8c0,0-0.2,0.1-0.4,0.1h-0.3c-0.1,0-0.2,0-0.4,0.1c-0.5-4.4-0.3-10.7-0.7-14.3l-0.5-15.2
	c0.3-0.2,0.5-0.2,0.9-0.2l0.7,0c0.6,0.2,1.1,0.3,1.6,0.3l0.6,0.1c0.3,0,0.5-0.1,0.7-0.4s0.2-0.8,0.4-0.8c0,0,0.1,0.1,0.2,0.3
	c0.1,0.3,0.2,0.6,0.2,1h3.7c-3.2,0-0.3,0.2,8,0.4c0,0.2,0,0.5,0,0.7l-0.3,3.2c0,0.2,0,0.4,0.1,0.5c0,0.2,0.3,0.3,0.3,0.4
	c0,0.1,0,0.1-0.1,0.2c-0.1,0.1-0.3,0.2-0.4,0.2l-0.6-0.1C401.2,10,401.3,10.4,401.1,10.6L401.1,10.6z"/>
<path class="st12" d="M156.7,49c-2-1.4-4.3-0.2-6.1-1.4c2,0,3.8-0.2,5.7-0.2c5.2,0,10.4,0.4,15.4,2c8.4,2.9,14.2,8.4,16.1,17.4
	c0.5,2.7-0.5,5.2-1.6,7.7c-2.3,4.7-5.4,8.4-10.6,10.6c2.9,8.2,6.1,16.3,11.3,23.5c-1.2,0.9-2.3,2-3.6,2.7c-0.4,0.4-1.1,0.7-1.4,0.7
	c-1.8-0.2-3.1,0.7-4.3,2c-0.4,0.4-1.1,0.4-1.8,0.7c-5-8.2-9.3-16.7-12.6-25.4h-8.8v14.3c-1.6,0.4-2.9,0.9-4.3,1.1
	c-0.7,0.2-1.6,0-2.3-0.4c-1.2-0.9-2.3-0.9-3.4,0c-0.5,0.4-1.4,0.5-2.3,0.7V53c2.7,0.2,5.2,0.4,7.7,0.5c0-1.2-0.5-2.2-1.4-3
	C151,48.7,154,51.2,156.7,49L156.7,49z M154.7,77.4c5-0.4,9.7-0.2,14.2-2c3.4-1.2,5.4-3.9,5.9-7.5c0.4-2.5-0.5-4.7-2.7-5.9
	c-2.7-1.6-5.6-3-9-2.9c-0.7,0-1.4-0.2-2.1-0.2c-2.1,0-4.3-0.5-6.4,0C154.7,65,154.7,70.9,154.7,77.4L154.7,77.4z"/>
<path class="st12" d="M298.7,61.6c-0.9-0.5-1.8-1.1-2.9-1.6c-1.2-0.5-2.7-1.2-3.9-1.8c-0.4-0.2-1.1-0.4-1.2-0.2
	c-2.9,1.4-6.3,0.7-9,2.5c-1.4,0.9-2.7,1.8-3.2,3.6c-0.9,2.9-2,5.6-2.3,8.4c-0.4,3.6-0.4,7.3,0,10.9c0.2,4.1,3.4,7.9,6.8,8.1
	c2.1,0.2,4.5,0,6.8-0.5c2.5-0.5,5-1.4,7.5-2.2v-6.4h-8.6c0-3.2-0.2-6.3,0-9.1c0-1.1,0.9-2.2,1.4-3.4h16.3v2.7
	c0.2,2.5,1.1,4.1,3.4,5.9c0.5,0.4,0.9,1.6,0.9,2.3c0,3.6-0.2,7.2-0.2,10.8c0,1.2,0.2,2.5,0.4,4.1c-1.6,2.5,0,5.7-0.5,9
	c-2,0.2-3.9,0.9-6.1,0.2c-0.7-0.4-1.8,0-2.7,0.2c-1.1,0.2-2,0.2-3,0.4c-0.2-1.1-0.4-2.2-0.5-3.1c-3.6,0.7-7.2,1.4-10.8,2.2
	c-3.8,0.7-7.2-0.2-10.8-1.4c-1.6-0.5-3-1.4-4.3-2.3c-4.5-2.7-7.2-6.4-8.4-11.7c-0.9-4.1-1.4-8.4-1.2-12.7c0.2-4.3,0.7-8.6,1.8-12.7
	c2.3-8.4,7.5-14.2,16-15.8c6.8-1.4,13.6-0.7,19.9,2.9c0.7,0.5,1.6,0.9,2.3,1.4c1.2,0.9,1.4,1.4,0.4,2.7c-0.9,1.1-1.8,2-2.9,2.9
	c-1.2,1.1-1.8,2.2-0.7,3.9C299.1,61.4,298.9,61.4,298.7,61.6L298.7,61.6z"/>
<path class="st12" d="M333.1,46.9c-0.2,3-0.4,5.9-0.7,9c-0.4,2.3-0.2,4.5,1.1,6.6c0.4,0.5,0.5,1.6,0.4,2.3c-0.7,5.6-0.4,11.1,0,16.5
	c0,2.3,0.9,4.5,1.8,6.4c0.4,0.7,0.9,1.4,1.4,2c1.8,1.8,4.3,2.3,6.5,2.3c2.9,0.2,4.7-2.2,4.7-5.4V75.9c0.2-9.1,0.4-18.5,0.5-27.8
	c2.5,0.7,3.4-2.3,5.7-2.7c0.7,1.2,1.6,2.5,2.3,3.6c2.5-0.4,2.1-3.8,5-3.6c0,0.9,0.2,1.8,0.2,2.7v17.8c0,5.9-0.2,11.8-0.2,17.8
	c-0.2,3.9-0.7,7.9-2.1,11.5c-1.6,4.1-4.7,7.3-9.1,8.8c-5.2,1.6-10.2,1.4-15.4,0c-4.7-1.4-8.1-4.5-10-8.8c-1.6-3.2-2.7-6.8-3.6-10.2
	c-1.2-4.1-0.9-8.6-0.5-12.7c0.5-7.5,1.4-15.1,2.1-22.6c0.2-2.3,1.1-2.9,3.2-1.8c1.1,0.4,2,1.1,3,1.2c2,0.5,2.1,0.4,3.2-1.4
	c0.2-0.4,0.4-0.5,0.5-0.9C332.8,46.9,333,46.9,333.1,46.9L333.1,46.9z"/>
<path class="st12" d="M386.3,62.1c-1.2,2.3-0.5,4.8-0.9,7.4c5.2,0,10.2-0.5,15.4-0.9c0.5,2.3,1.6,4.7,0.9,7.3
	c-0.2,0.9,0.2,2.2,0.2,3.2c0.2,0.9,0.4,1.6,0.5,2.7c-6.1,0.5-11.6,0.9-17.8,1.4c-0.2,2-0.2,3.9-0.4,5.9c8.8,1.2,17.4,1.4,25.6,4.3
	c0.9,1.4,0,2.7-0.4,3.9c-0.7,1.8-1.8,3.6-1.1,5.7c-1.1,0.2-2,0-2.9,0.4s-1.4,1.2,0.5,2.2c-3.9-0.7-7.4-1.4-10.6-2
	c-2.9-0.4-5.6-0.9-8.4-1.1c-1.8,0-3.8,0.4-5.6,0.9c-1.2,0.4-2.3,0.9-3.6-0.4c-0.7-0.7-1.6-0.5-2.5,0c-0.7,0.5-1.6,0.7-2.7,1.2
	c-0.2-1.1-0.4-1.8-0.2-2.5c0-6.4,0-12.9,0.2-19.4c0.4-11.3,1.1-22.4,0.9-33.7c0-0.5,0-1.1,0.2-1.6c2.9-1.2,6.1,1.6,9-1.1
	c0.2,0.9,0.4,1.6,0.7,2.7h6.3c5.6,0,10.9,0.4,16.3,1.6c1.6,0.4,2.1,1.3,1.8,2.9c-0.5,2.3-0.9,4.7-1.6,7.3c-0.5,0.5-3-0.2-2.5,2.5
	C397.6,63.2,392,62.6,386.3,62.1L386.3,62.1z"/>
<path class="st12" d="M425.4,105.3c0.4-0.4,0.7-0.5,1.4-1.1c-1.1-1.2-2.1-2.3-3.2-3.6c1.2-0.7,2.3-1.4,3.4-2
	c-0.2-2.3-3.2-1.6-3.2-4.1c3-0.2,6.1-0.7,9.1-0.7c3.4,0,6.1-1.8,8.8-3.4c2.1-1.2,2-3.1,0-4.7c-1.4-1.1-3.2-2-5-2.9
	c-2.7-1.2-5.6-2-7.9-3.6c-3.9-2.3-7.7-5.2-9.9-9.5c-0.7-1.4-0.7-3.1-0.9-4.7c-0.2-0.9,0-1.8,0-2.7c0-3.4,1.1-6.3,3.9-8.2
	c4.8-3.6,10.4-5.2,16.3-5.6c3-0.2,6.1,0.2,9,0.4c2,0.2,2.3,1.1,1.4,2.7c-0.5,0.7-1.1,1.4-1.6,2.3c-0.9,1.4-0.7,1.8,0.4,3.6
	c-1.8,0-3.2-0.2-4.8-0.2c-1.1,0-2.1,0-3.2,0.2c-0.5,0.2-1.4,0.5-1.6,0.9c-0.2,2-2,2.2-3.2,3c-0.5,0.4-1.1,0.7-1.6,1.1
	c-1.1,1.2-1.2,2.1,0,3.4c1.1,1.1,2.1,2,3.4,2.5c3.8,1.8,7.5,3.2,11.3,5c2.9,1.2,5.6,3.1,7.7,5.6c4.5,4.7,4.8,13.8-1.6,18.8
	c-4.8,3.8-10.6,5.7-16.5,6.8c-3.8,0.7-7.7,0.7-11.6,1.2C425.5,105.7,425.5,105.5,425.4,105.3L425.4,105.3z"/>
<path class="st12" d="M218.1,71.5c0.6,0.4,0.8,1,0.5,1.8c-0.1,0.3-0.3,0.6-0.5,0.8c-0.2,0.3-0.4,0.3-0.7,0c0,0-0.1-0.1-0.2-0.2
	C216.8,73.1,217.2,71.9,218.1,71.5z"/>
<path class="st12" d="M221.3,71.9c0.4,0.7,0.2,1.3-0.1,1.9c-0.1,0.2-0.3,0.3-0.5,0.3c-0.1,0-0.2-0.2-0.3-0.4
	C220.3,72.9,220.6,72.1,221.3,71.9L221.3,71.9z"/>
<path class="st12" d="M235,45.6c-6.1-1.9-12.6-1.2-18.4,1.6c0.1,0.4,0.3,0.8,0.7,1.2c1.4,1.4,3.6,1.6,4.2,2.4s-2.9,1.7-3.3,3.1
	c-0.3,1.5,2,1.7,2.7,2.8c0.7,1.1-2.9,2.3-2.9,2.3s1.6-1.7,0.9-2c-0.6-0.3-2.5,1.5-3.9,0.3c-1.5-1.4-1.2-6-2.9-7.3
	c0,0-0.1-0.1-0.1-0.1c-6.5,4.5-11.9,11.8-14.6,20.7c-5,16.5,0.6,33.1,12.6,39.8c0-0.1-0.1-0.3-0.1-0.4c-0.8-3.4-1.5-6.8-2.1-10.2
	c-0.1-0.8-0.4-1.2-1.1-1.6c-0.3-0.1-0.6-0.4-0.6-0.7c-0.1-0.8,0-1.6,0.4-2.3c0.2-0.3,0.2-0.7,0.1-1.1c-0.3-1.3-0.7-2.7-1-4
	c-0.4-1.9-0.6-3.7-1-5.5c-0.3-1.8-0.7-3.6-1.1-5.5c-0.2-0.9-0.5-1.6-1.3-2.1c-0.4-0.3-0.7-0.7-1-1c0.2-0.4,0.3-0.8,0.4-1.1
	c0.3-0.5,0.3-1,0.1-1.6c-0.1-0.2,0-0.5,0-0.7c0.2-0.6,0.4-1.1,0.5-1.7c0.1-0.3,0.1-0.7,0.5-0.8c0.1,0,0.2-0.2,0.2-0.3
	c0.1-0.7,0.3-1.4,0.1-2.1c-0.1-0.4-0.1-0.9,0.3-1.3c0.1,0.1,0.2,0.2,0.3,0.3c0.4,1.1,0.8,2.2,1.3,3.2c0.2,0.4,0.1,0.7-0.1,1.1
	c-0.1,0.2-0.3,0.3-0.4,0.6c0.2,0.1,0.3,0.2,0.4,0.3c0.5,0.4,0.6,0.6,0.1,1.1c-0.1,0.2-0.3,0.3-0.4,0.6c0.5,0.4,0.8,0.9,1.5,0.9
	c0.4,0,0.5,0.3,0.4,0.6c0,0.1-0.1,0.2-0.2,0.3c-0.4,0.8-0.9,1.6-1.4,2.4c-0.1,0.1-0.1,0.3-0.1,0.5c0.2,1.3,0.4,2.7,0.7,4
	c0.1,0.5,0.2,1.1,0.4,1.6c0.2,0.6,0.4,1.2,0.5,1.8c0.2,1.2,0.4,2.4,0.7,3.6c0.3,1.5,0.7,2.9,1,4.3c0.1,0.3,0.1,0.6,0.2,1
	c0.2-0.1,0.5-0.2,0.6-0.3c0.8-0.8,1.7-1.6,2.7-2.3c0.7-0.6,1.4-1.3,2-1.9c0.8-0.8,1.6-1.8,2.3-2.8c0.8-1.2,1.6-2.3,2.5-3.4
	c0.5-0.7,0.5-0.9-0.1-1.4c-0.1,0-0.2-0.1-0.3-0.2c-0.9-0.7-1.8-1.4-2.4-2.4c-0.6-1.2-1-2.3-1.2-3.6c-0.1-1-0.1-1.9-0.1-2.9
	c0-1.5,0.2-2.9,0.7-4.3c0.3-0.8,0.7-1.2,1.5-1.4c0.6-0.1,1.1-0.2,1.7-0.3c1.4-0.3,2.8-0.3,4.2-0.4c1.3-0.1,2.6,0.1,3.9,0.3
	c0.8,0.1,1.6,0.3,2.3,0.6c1,0.5,2.1,0.9,3.1,1.5c1.1,0.6,2.1,1.4,2.9,2.3c0.2,0.3,0.5,0.5,0.4,1c-0.8,0.5-1.6,1-2.4,1.5
	c0,0.2-0.1,0.5-0.2,0.8c-0.1,0.4-0.1,0.9-0.3,1.4c-0.4,1.4-0.9,2.8-1.7,3.9c-0.7,1-1.3,2-2.2,2.8c-0.2,0.2-0.3,0.4-0.5,0.6
	c0.1,0.1,0.3,0.2,0.4,0.3c1.1,0.8,2.2,1.6,3,2.8c0.9,1.2,1.9,2.3,2.8,3.5c0.6,0.8,1.2,1.6,1.8,2.4c1.7,2.6,3,5.5,4.4,8.3
	c0.5,0.9,0.8,1.9,1.1,3c-2,0.8-3.9,1.7-5.9,2.5c-1.9,0.8-3.9,1.6-5.9,2.1c0.2,0.8,0.6,2.2,0.9,3.3c9.6-3.5,18.1-12.4,21.8-24.4
	C257.7,68.9,250.1,50.2,235,45.6L235,45.6z"/>
</svg>
