<?xml version="1.0" encoding="UTF-8"?>
<!-- Generator: Adobe Illustrator 26.1.0, SVG Export Plug-In . SVG Version: 6.00 Build 0)  -->
<svg xmlns="http://www.w3.org/2000/svg" xmlns:xlink="http://www.w3.org/1999/xlink" version="1.1" id="Layer_1" x="0px" y="0px" viewBox="0 0 261.8 88.2" style="enable-background:new 0 0 261.8 88.2;" xml:space="preserve">
<style type="text/css">
	.st0{fill:#FFFFFF;}
</style>
<g>
	<path class="st0" d="M66.4,22.6c0-3.9-0.9-6.5-2.8-7.8c-1.9-1.2-4.5-1.9-8.1-1.9c-1.8,0-3.6,0.1-5.4,0.4c-1.8,0.2-3.2,0.5-4,0.7   v19.6c0,4.3,0,8.7,0.1,13s0.3,8.7,0.6,13l-0.6,0.1c-1.1-2.9-2.2-5.5-3.1-7.7c-1-2.2-2.1-4.6-3.3-7.1L27.7,20.7   c-1.6-3.3-3.8-5.4-6.5-6.3c-2.7-0.9-5.5-1.4-8.5-1.4c-2.7,0-5.2,0.4-7.5,1.2s-4.1,2-5.2,3.6v60.4c0,2,0.2,3.6,0.7,4.9   c0.5,1.2,1.2,2.2,2.1,3c0.9,0.7,2,1.2,3.4,1.4c1.4,0.2,2.9,0.4,4.7,0.4s3.6-0.1,5.4-0.4c1.8-0.2,3.2-0.5,4-0.7V68   c0-4.3,0-8.8-0.1-13.3c0-4.5-0.2-8.9-0.5-13.3l0.7-0.1c1.1,2.9,2.2,5.5,3.1,7.7c1,2.2,2.1,4.6,3.3,7.1l12,24.4   c1.7,3.4,3.9,5.5,6.5,6.4c2.7,0.9,5.5,1.3,8.5,1.3s5.5-0.3,7.7-0.9c2.1-0.6,3.8-1.5,4.9-2.6l0,0V22.6z"></path>
	<path class="st0" d="M128.5,14.1L128.5,14.1H88.3c-3.5,0-6.2,1-8.2,3s-3,4.7-3,8.2v52.5c0,2.1,0.2,3.8,0.7,5.1   c0.5,1.3,1.2,2.3,2.2,3s2.2,1.2,3.6,1.5s3,0.4,4.9,0.4c1.8,0,3.7-0.1,5.6-0.4c1.9-0.2,3.3-0.5,4.2-0.7V61.3h21.1c2.3,0,4-0.7,5.4-2   c1.3-1.3,2-3.5,2-6.6c0-1.6-0.2-3.1-0.7-4.6c-0.4-1.4-1-2.6-1.6-3.5H97.9V31h25.3c2.3,0,4-0.7,5.4-2c1.3-1.3,2-3.6,2-6.7   c0-1.6-0.2-3.2-0.7-4.6C129.5,16.1,129,15,128.5,14.1z"></path>
	<path class="st0" d="M197.4,13.7h-52.6c-2.3,0-4.1,0.7-5.5,2.1s-2.1,3.6-2.1,6.8c0,1.7,0.2,3.3,0.7,4.8s1,2.7,1.6,3.6h18.1v46.8   c0,2.1,0.2,3.8,0.7,5.1c0.5,1.3,1.2,2.3,2.2,3s2.2,1.2,3.6,1.5c1.4,0.3,3,0.4,4.9,0.4s3.7-0.1,5.6-0.4c1.9-0.2,3.3-0.5,4.2-0.7V31   h13.3c2.3,0,4.1-0.7,5.5-2.1s2.1-3.6,2.1-6.8c0-1.7-0.2-3.3-0.7-4.8C198.5,15.8,198,14.6,197.4,13.7z"></path>
	<path class="st0" d="M259.8,17.9h-3c-0.4,0-0.8-0.3-0.9-0.7C253.6,7.3,244.7,0,234.1,0s-19.5,7.3-21.9,17.1   c-0.1,0.4-0.5,0.7-0.9,0.7h-3c-1.1,0-2,0.9-2,2v5.4c0,1.1,0.9,2,2,2h3c0.4,0,0.8,0.3,0.9,0.7c2.4,9.8,11.3,17.1,21.9,17.1   s19.5-7.3,21.9-17.1c0.1-0.4,0.5-0.7,0.9-0.7h3c1.1,0,2-0.9,2-2v-5.4C261.8,18.7,260.9,17.9,259.8,17.9z M234.1,9.4   c5.1,0,9.5,2.9,11.7,7.2c0.3,0.6-0.1,1.3-0.8,1.3h-21.7c-0.7,0-1.1-0.7-0.8-1.3C224.6,12.3,229,9.4,234.1,9.4z M234.1,35.7   c-5.1,0-9.5-2.9-11.7-7.2c-0.3-0.6,0.1-1.3,0.8-1.3H245c0.7,0,1.1,0.7,0.8,1.3C243.6,32.8,239.2,35.7,234.1,35.7z"></path>
</g>
</svg>
