<?xml version="1.0" encoding="utf-8"?>
<!-- Generator: Adobe Illustrator 27.3.1, SVG Export Plug-In . SVG Version: 6.00 Build 0)  -->
<svg version="1.1" id="Layer_1" xmlns="http://www.w3.org/2000/svg" xmlns:xlink="http://www.w3.org/1999/xlink" x="0px" y="0px"
	 viewBox="0 0 64.3 64.3" style="enable-background:new 0 0 64.3 64.3;" xml:space="preserve">
<style type="text/css">
	.st0{fill:#FFFFFF;}
</style>
<path class="st0" d="M32.2,0.5C14.7,0.4,0.6,14.6,0.5,32.1c0,17.5,14.1,31.7,31.6,31.7s31.6-14.1,31.7-31.6
	C63.9,14.7,49.7,0.5,32.2,0.5z M16.2,32.9c2.3-3.5,4.5-7,6.7-10.5c0.5-0.7,1-1.4,1.4-2.2c0.3-0.5,0.5-0.3,0.6,0.1
	c0.8,2,1.5,4,1.9,6.1c0.5,2.6-0.5,4.7-1.7,6.8c-0.2,0.4-0.5,0.4-0.9,0.4c-1.1,0-2.3,0-3.6,0c-1.3,0-2.6,0-4,0
	C16.1,33.6,15.8,33.5,16.2,32.9z M51.5,38.4c-2.5,0.9-3.4,3.3-4.7,5.3c-1.1,1.6-2.2,3.2-4,4.1c-0.6,0.3-1.2,0.4-1.8,0.4
	c-5.8,0-11.6,0.1-17.4,0c-2,0-3.9-0.9-5.5-2.1c-2.1-1.6-3.5-3.7-4-6.3c-0.1-0.5-0.2-1-0.3-1.4c-0.2-1.1,0-1.3,1.2-1.3
	c2.6,0,5.2,0,7.8,0c0.6,0,0.9,0.2,0.8,0.8c0,1.5,1.5,3.1,3,3.1c1.4,0,2.8,0,4.1,0c0.5,0,0.7-0.1,0.7-0.6c-0.1-0.9,0.4-2.1-0.2-2.7
	c-0.5-0.6-1.7-0.1-2.6-0.2c-0.7-0.1-1.6,0.4-2-0.3c-0.3-0.5,0.6-1.1,0.9-1.7c0.8-1.4,1.7-2.8,2.2-4.4c0.7-2,0.6-4.1,0.2-6.1
	c-0.6-3-1.8-5.9-3.2-8.6c-0.1-0.2-0.3-0.4-0.2-0.6c0.2-0.3,0.5,0,0.7,0.1c1.1,0.2,2.3,0.5,3.4,0.9c0.6,0.2,0.6,0,0.6-0.5
	c0-0.4,0-0.9,0-1.3c0-1,0.8-1.9,1.7-1.9c1,0,1.9,0.8,1.9,1.8c0,0.8,0,1.6,0,2.5c0,0.3,0,0.6,0.4,0.8c1.7,1,3.1,2.5,4.4,4
	c1.1,1.2,1.9,2.5,2.6,3.9c1.3,2.7,0.6,5.1-0.9,7.4c-0.9,1.3-1.9,2.4-3,3.5c-0.7,0.7-1.4,0.6-2.2,0.6c-1.4,0-1.2-0.2-1.2,1.3
	c0,0.7,0,1.4,0,2.1c0.1,0.1,0.2,0.1,0.3,0.1c1.2,0,2.3,0,3.5,0c1,0,1.8-0.6,2.3-1.2c1.5-2,3.8-2.3,5.9-3c1.7-0.5,3.5-0.9,5.2-1.5
	c0.5-0.2,0.7-0.1,0.7,0.4c0,0.1,0,0.1,0,0.2C52.9,37.1,52.8,37.9,51.5,38.4z"/>
</svg>
