<?xml version="1.0" encoding="utf-8"?>
<!-- Generator: Adobe Illustrator 27.3.1, SVG Export Plug-In . SVG Version: 6.00 Build 0)  -->
<svg version="1.1" id="Layer_1" xmlns="http://www.w3.org/2000/svg" xmlns:xlink="http://www.w3.org/1999/xlink" x="0px" y="0px"
	 viewBox="0 0 100 100" style="enable-background:new 0 0 100 100;" xml:space="preserve">
<style type="text/css">
	.st0{fill:#FFFFFF;}
</style>
<g>
	<path class="st0" d="M0.4,52.9c0-1.9,0-3.9,0-5.8c0.1-0.3,0.1-0.6,0.2-0.8C0.9,40.2,2.4,34.4,5,29C12.8,13.2,25.4,3.8,42.8,0.9
		c1.4-0.2,2.9-0.4,4.3-0.6c1.9,0,3.9,0,5.8,0c0.2,0.1,0.5,0.1,0.7,0.2C60.5,1,67.1,2.8,73.2,6.2c16.3,9.1,25.2,23.1,26.3,41.7
		c0.6,8.9-1.4,17.4-5.7,25.3c-9.2,16.4-23.2,25.3-42,26.4c-8,0.5-15.6-1.1-22.8-4.6C13.7,87.4,4.4,75.3,1.1,58.6
		C0.8,56.7,0.6,54.8,0.4,52.9z M50,91.3c22.8,0,41.3-18.4,41.3-41.3C91.3,27.2,72.8,8.7,50,8.7C27.2,8.7,8.7,27.1,8.7,49.9
		C8.6,72.7,27.1,91.3,50,91.3z"/>
	<path class="st0" d="M41.8,50c0-4.8,0-9.6,0-14.4c0-1.1,0.2-2.1,1.3-2.7c1.1-0.6,2.1-0.2,3,0.5C52.8,38.2,59.4,43,66,47.8
		c1.9,1.4,1.9,3.2,0,4.5c-6.6,4.8-13.3,9.6-19.9,14.5c-0.9,0.7-1.8,1-2.9,0.5c-1.1-0.5-1.4-1.5-1.4-2.6C41.8,59.7,41.8,54.9,41.8,50
		z"/>
</g>
</svg>
