<?xml version="1.0" encoding="utf-8"?>
<!-- Generator: Adobe Illustrator 27.3.1, SVG Export Plug-In . SVG Version: 6.00 Build 0)  -->
<svg version="1.1" id="Layer_1" xmlns="http://www.w3.org/2000/svg" xmlns:xlink="http://www.w3.org/1999/xlink" x="0px" y="0px"
	 viewBox="0 0 64.3 64.3" style="enable-background:new 0 0 64.3 64.3;" xml:space="preserve">
<style type="text/css">
	.st0{fill:#FFFFFF;}
</style>
<path class="st0" d="M32.2,0.5c17.5,0,31.7,14.2,31.6,31.7c0,17.5-14.2,31.7-31.7,31.6c-17.5,0-31.7-14.2-31.6-31.7
	C0.6,14.6,14.7,0.4,32.2,0.5z M29.8,27.2c1.5-0.9,2.9-1.7,4.3-2.5c0.2-0.1,0.2-0.4,0.3-0.6c0-1.1,0-2.1,0-3.2c0-1.4-0.6-2.4-1.8-3.1
	c-2.9-1.7-5.8-3.3-8.6-5.1c-1.4-0.8-2.6-0.8-4,0c-3,1.8-6,3.6-9.1,5.3c-1.1,0.6-1.6,1.5-1.6,2.8c0,3.5,0,7,0,10.5
	c0,1.4,0.6,2.4,1.8,3.1c2.9,1.6,5.7,3.2,8.5,5c1.5,0.9,2.9,0.9,4.4,0c5.5-3.3,11.1-6.5,16.7-9.7c1.1-0.7,2.3-0.6,3.4,0
	c1.6,0.9,3.1,1.8,4.7,2.7c1.1,0.6,1.6,1.6,1.6,2.9c0,1.8,0,3.7,0,5.5c0,1.3-0.5,2.2-1.6,2.9c-1.5,0.9-3.1,1.8-4.6,2.7
	c-1.1,0.6-2.2,0.7-3.2,0c-1.7-0.9-3.3-1.9-5-2.9c-0.9-0.5-1.4-1.4-1.4-2.5s0-2.1,0-3.2c0-0.2,0-0.4-0.1-0.6
	c-1.5,0.9-2.9,1.6-4.2,2.5C30,39.8,30,40.2,30,40.4c0,1,0,2,0,3c0,1.4,0.6,2.4,1.8,3.1c3,1.7,6,3.4,8.9,5.2c1.3,0.8,2.5,0.7,3.8,0
	c3-1.7,5.9-3.5,8.9-5.2c1.2-0.7,1.8-1.7,1.7-3c0-3.6,0-7.1,0-10.7c0-1.4-0.6-2.3-1.8-3c-3-1.8-6.1-3.5-9.1-5.3
	c-1.1-0.7-2.2-0.6-3.4,0c-5.7,3.4-11.5,6.7-17.2,10.1c-1.2,0.7-2.3,0.7-3.5,0c-1.5-0.9-3.1-1.9-4.6-2.8c-1.1-0.6-1.6-1.6-1.6-2.9
	c0-1.8,0-3.7,0-5.5c0-1.3,0.6-2.3,1.7-2.9c1.5-0.9,3.1-1.8,4.6-2.7c1.2-0.7,2.3-0.7,3.4,0c1.5,0.9,3.1,1.9,4.6,2.8
	c1.1,0.7,1.7,1.6,1.6,2.9C29.8,24.7,29.8,25.8,29.8,27.2z"/>
</svg>
