<?xml version="1.0" encoding="UTF-8"?><svg xmlns="http://www.w3.org/2000/svg" viewBox="0 0 125 140"><defs><style>.d{fill:#fff;}.e{fill:none;}</style></defs><g id="a"/><g id="b"><g id="c"><rect class="e" width="125" height="140"/><g><g><path class="d" d="M5.49,105.01l2.88-26.69,5.48,.27,3.79,13.03,2.95-12.94,5.76-.18,4.05,26.6-6.56-.09-1.08-11.05-5.39,11.42-4.49-11.7-1.36,11.33H5.49Z"/><path class="d" d="M35.88,102.15l-.4,2.86h-6.03l3.79-26.69,7.86,.27,6.18,26.16-6.14,.26-.57-2.69-4.69-.16Zm3.52-5.3l-1.65-7.75-1.12,7.81,2.77-.05Z"/><path class="d" d="M61.11,78.51l4.4,4.49,.09,15.91-4.03,5.57-13.71,.4,.09-26.18,13.16-.2Zm-7.09,6.4l-.09,13.18,5.83-.18-.37-13.27-5.37,.27Z"/><path class="d" d="M73.13,94.36l-.09,3.45,8.89,.27,.26,6.75-15-.51,.09-25.81,14.83,.16,.07,6.31-8.78-.44-.11,3.76,6.95-.27-.29,6.27-6.82,.07Z"/><g><path class="d" d="M93.02,99.15l.11,5.96-3.4-.11-.05-14.52,8.32-.08-.14,3.74-4.93-.05,.03,1.63,3.8-.04,.16,3.32-3.9,.15Z"/><path class="d" d="M101.27,105.04l-2.44-2.49-.05-8.82,2.24-3.09,5.39-.14,2.44,2.49,.05,8.82-2.24,3.09-5.39,.14Zm.95-3.65l3.44-.14-.19-7.11-3.44,.14,.19,7.11Z"/><path class="d" d="M117.07,90.28l2.44,2.49-.15,4.35-1.8,2.24,1.76,5.83-3.73-.06-1.44-5.1-1.05,.04-.04,5.03-3.33-.08,.05-14.52,7.3-.22Zm-3.93,3.55l-.02,2.83,3-.09v-2.89l-2.98,.15Z"/></g><path class="d" d="M11.34,134.99l-4.03-5.57,.09-15.91,4.4-4.49,13.18,.26,.07,6.31-11.53-.44-.37,13.27,5.94,.18,.07-3.79-3.35-.11,.02-5.98,9.37-.31v17.3l-13.86-.71Z"/><path class="d" d="M31.56,132.66l-.4,2.86h-6.03l3.79-26.69,7.86,.27,6.18,26.16-6.14,.26-.57-2.69-4.69-.16Zm3.52-5.3l-1.65-7.75-1.12,7.81,2.77-.05Z"/><path class="d" d="M41.71,135.52l2.88-26.69,5.48,.27,3.79,13.03,2.95-12.94,5.76-.18,4.05,26.6-6.56-.09-1.08-11.05-5.39,11.42-4.49-11.7-1.36,11.33h-6.03Z"/><path class="d" d="M73.43,124.87l-.09,3.45,8.89,.27,.26,6.75-15-.51,.09-25.81,14.83,.16,.07,6.31-8.78-.44-.11,3.76,6.95-.27-.29,6.27-6.82,.07Z"/><path class="d" d="M97.15,108.81l4.4,4.49-.27,7.85-3.24,4.03,3.17,10.52-6.73-.11-2.6-9.2-1.89,.07-.07,9.07-6.01-.15,.09-26.18,13.16-.4Zm-7.09,6.4l-.04,5.1,5.41-.16v-5.21l-5.37,.27Z"/><path class="d" d="M103.23,115.02l4.03-5.57,12.25-.44-.26,6.75-10.17,.27,.13,1.65,10.3,6.23-.05,7.02-4.4,4.49-11.71-.26-.07-6.31,10.06,.44,.11-2.13-10.21-5.7v-6.45Z"/></g><g><path class="d" d="M39.81,47.03v-12.33s2.74,3.39,5.35,2c2.6-1.4,5.73-18.48,5.73-18.48,0,0,1.1,.72,3.62,0,1.8,4.09,5.51,15.9,3.46,32.03-2.54,.33-5.49-.12-5.49-.12,0,0,1.05-12.65,.33-15.78-1.56,5.05-5.29,7.34-8.66,6.62,.36,3.13,.87,8.02,.87,8.02,0,0-2.35-.09-5.21-1.94Z"/><path class="d" d="M55.43,17.61s7.15,17.95,3.35,32.76c3.16,.64,11.19-.26,16.91-2.03-2.49-2.84-5-5.91-5-5.91,0,0,2.08,.54,4.69-.95,.14-2.35-.41-4.33-1.15-5.69-.38,.55-3.27,1.59-5.6-.92-1.01-4.08-.79-5.41-.79-5.41,0,0,1.25-2.87,9.38,1.69,8.12,4.56,8.93,6.61,10.76,.28,1.83-6.33-.79-18.49,8.78-18.73,9.57-.24,12-5.8,11.64-7.17-1.14,1-6.09,7.41-11.08,1.22-4.99-6.2-9.73-.58-13.14,7.78-3.41,8.36-5.01,13.93-10.17,4.68-5.17-9.25-5.87-9.98-9.44-12.08-2.55,6.15-7.61,9.66-9.14,10.48Z"/><path class="d" d="M39.81,48.3s-23.49-9.06-19.92,.18c3.79,9.84,16.34,13.67,19.92,13.54,1.65-1.35,1.92-5.14,1.92-5.14l-7.28-2.08,11.78,.32c1.66,.04,3.31,.25,4.9,.7,3.26,.91,6.49,2.85-3.45,6.3,11.37,.45,43.32-2.62,53.43-12.01,9.79-9.09-7.45-5.17-21.53-1.24-6.27,1.69-26.13,5.21-39.78-.56Z"/></g></g></g></g></svg>