<?xml version="1.0" encoding="UTF-8"?><svg id="katman_1" xmlns="http://www.w3.org/2000/svg" viewBox="0 0 138.21 95.66"><defs><style>.cls-1{fill:#fff;}.cls-2{fill:#fdbe1c;}</style></defs><path class="cls-2" d="m75.23,6.29c2.42,1.15,4.85,2.28,7.26,3.45,7.49,3.65,14.98,7.32,22.46,10.98,2.96,1.45,5.86,3.05,8.9,4.3,1.83.75,2.68,1.95,3.15,3.73.77,2.96,1.65,5.9,2.47,8.85,1.47,5.26,2.92,10.53,4.41,15.79.74,2.63,1.56,5.24,2.32,7.86,1.03,3.57,2.06,7.14,3.06,10.72.09.31-.05.67-.08,1.01-.97,0-1.95-.03-2.91.03-3.2.19-6.4.43-9.6.61-2.09.12-4.19.14-6.29.25-3.27.18-6.54.41-9.81.62-1.19.08-2.37.17-3.56.24-3.09.2-6.17.42-9.26.6-2.06.12-4.12.15-6.18.27-3.27.19-6.54.41-9.8.62-1.11.07-2.23.16-3.34.24-3.12.21-6.25.44-9.37.61-.58.03-1.23-.11-1.75-.36-4.21-2.03-8.39-4.1-12.58-6.17-9.03-4.46-18.06-8.92-27.08-13.4-.57-.28-1.05-.72-1.58-1.09.37-.08.74-.2,1.12-.22,3.63-.23,7.25-.44,10.88-.67.89-.06,1.79-.12,2.68-.25.36-.05.7-.29,1.04-.44.6.09,1.2.26,1.79.24,2.38-.1,4.75-.27,7.12-.42,3.41-.21,6.82-.45,10.24-.65,2.85-.17,5.7-.28,8.54-.46.31-.02.6-.27.9-.41-.2-.22-.36-.51-.61-.64-1.83-.92-3.69-1.8-5.53-2.71-5.27-2.58-10.54-5.16-15.81-7.75-4.36-2.14-8.72-4.27-13.07-6.42-1.94-.96-3.86-1.96-5.79-2.94,1.19-1.1,2.34-2.24,3.56-3.28,5.4-4.61,10.82-9.19,16.27-13.75.34-.28,1.07-.47,1.42-.3,8.8,4.29,17.57,8.63,26.36,12.94.95.47,1.99.77,2.99,1.15.51.32,1.01.68,1.55.95,2.93,1.49,5.84,3,8.81,4.41.83.4,1.57,1.34,2.72.84-.36-1.28-.7-2.51-1.04-3.74-1.06-3.76-2.11-7.53-3.17-11.29-1.08-3.84-2.18-7.68-3.25-11.53-.23-.81-.37-1.64-.55-2.47Z"/><path class="cls-1" d="m16.08,56.06c.52.37,1.01.81,1.58,1.09,9.02,4.48,18.05,8.94,27.08,13.4,4.19,2.07,8.38,4.14,12.58,6.17.52.25,1.17.39,1.75.36,3.13-.16,6.25-.4,9.37-.61,1.11-.08,2.23-.16,3.34-.24,3.27-.21,6.53-.44,9.8-.62,2.06-.12,4.12-.15,6.18-.27,3.09-.18,6.17-.4,9.26-.6,1.19-.08,2.37-.17,3.56-.24,3.27-.21,6.54-.44,9.81-.62,2.09-.12,4.19-.14,6.29-.25,3.2-.18,6.4-.42,9.6-.61.97-.06,1.94-.02,2.91-.03-1.47,2.69-2.94,5.38-4.41,8.07-.6,1.09-1.23,2.17-1.79,3.28-.34.68-.72,1.02-1.56,1.04-3.03.08-6.05.24-9.07.42-3.41.2-6.82.43-10.22.66-3.12.21-6.24.45-9.36.64-2.88.17-5.76.26-8.63.45-2.65.17-5.29.44-7.94.63-1.51.11-3.03.15-4.54.23-3.96.22-7.92.44-11.87.66-2.59.14-5.17.32-7.76.4-.64.02-1.36-.15-1.93-.43-8.84-4.37-17.66-8.78-26.49-13.17-4.52-2.24-9.05-4.45-13.58-6.68-.35-.17-.75-.33-1-.6-.17-.18-.26-.64-.15-.85,1.86-3.37,3.76-6.72,5.64-10.08.11-.19.26-.39.27-.58.02-.89.51-1.11,1.29-.99Z"/><path class="cls-1" d="m19.57,32.34c1.93.98,3.85,1.98,5.79,2.94,4.35,2.15,8.71,4.28,13.07,6.42,5.27,2.58,10.54,5.17,15.81,7.75,1.84.9,3.7,1.78,5.53,2.71.25.12.41.42.61.64-.3.14-.59.39-.9.41-2.85.17-5.69.29-8.54.46-3.41.2-6.82.43-10.24.65-2.37.15-4.75.31-7.12.42-.59.03-1.19-.15-1.79-.24-1.75-.93-3.48-1.9-5.25-2.78-4.4-2.18-8.8-4.34-13.23-6.46-.72-.35-.91-.65-.51-1.37,2.06-3.71,4.09-7.44,6.15-11.15.1-.18.4-.26.61-.39Z"/><path class="cls-1" d="m75.23,6.29c.18.82.32,1.66.55,2.47,1.07,3.85,2.17,7.69,3.25,11.53,1.06,3.76,2.11,7.52,3.17,11.29.34,1.23.68,2.45,1.04,3.74-1.15.5-1.89-.45-2.72-.84-2.97-1.41-5.88-2.92-8.81-4.41-.54-.27-1.03-.63-1.55-.95-.3-1.48-.6-2.97-.9-4.45-.35-1.73-.74-3.46-1-5.2-.07-.48.13-1.06.36-1.52,1.45-2.8,2.95-5.58,4.41-8.38.5-.95.92-1.95,1.37-2.93.17-.38.31-.78.82-.34Z"/></svg>