<?xml version="1.0" encoding="UTF-8"?><svg id="katman_1" xmlns="http://www.w3.org/2000/svg" viewBox="0 0 241.07 100"><defs><style>.cls-1{fill:#fff;}.cls-2{fill:#16ff99;}.cls-3{fill:#00ef8b;}</style></defs><path class="cls-1" d="m137.7,49.9h-6.4v24h-9v-24h-4.7v-7.7h4.7v-3c0-7.8,4.8-11.8,12.2-11.8,1.1,0,2.3.1,3.4.4v9c-1-.4-2-.6-3.1-.6-1.8-.1-3.4,1.2-3.5,3v2.9h6.4v7.8Zm13.5,24.1h-9.1V28.1h9.1v45.9Z"/><path class="cls-1" d="m171.4,40.2c9.5,0,17.3,7.7,17.3,17.2s-7.7,17.3-17.2,17.3-17.3-7.7-17.3-17.2v-.1c-.1-9.4,7.4-17.1,16.8-17.2h.4Zm0,25.7c4.6,0,8-3.9,8-8.4.2-4.4-3.2-8.2-7.6-8.4h-.4c-4.6.2-8.3,4.1-8.1,8.7.2,4.4,3.7,7.9,8.1,8.1Z"/><path class="cls-1" d="m198.2,40.9l5.9,22,5.9-17.5-1.6-4.5h9l7.7,22,5.7-22h9.3l-9.8,33.1h-9.4l-6.6-18.1-6.1,18.1h-9.5l-10-33.1h9.5Z"/><circle class="cls-3" cx="50" cy="50" r="50"/><rect class="cls-1" x="57.8" y="42.2" width="14.1" height="14.1"/><path class="cls-1" d="m43.7,61.6c0,2.9-2.4,5.3-5.3,5.3s-5.3-2.4-5.3-5.3,2.4-5.3,5.3-5.3h5.3v-14.1h-5.3c-10.7,0-19.4,8.7-19.4,19.4s8.7,19.4,19.4,19.4,19.4-8.7,19.4-19.4h0v-5.3h-14.1v5.3Z"/><path class="cls-1" d="m63.1,35.2h15.9v-14.2h-15.9c-10.7,0-19.4,8.7-19.4,19.4v1.8h14.1v-1.8c0-2.9,2.4-5.2,5.3-5.2Z"/><polygon class="cls-2" points="43.7 56.3 57.8 56.3 57.8 56.3 57.8 42.2 57.8 42.2 43.7 42.2 43.7 56.3"/></svg>