<?xml version="1.0" encoding="UTF-8"?><svg id="Layer_1" xmlns="http://www.w3.org/2000/svg" viewBox="0 0 100 100"><defs><style>.cls-1{fill:#fff;}</style></defs><path class="cls-1" d="m28.5,99.63v-17.39H7.11v-1.09c0-20.74,0-41.48-.01-62.22,0-.74.21-1.26.73-1.78C13.27,11.74,18.69,6.31,24.11.89c.22-.22.42-.48.63-.72,22.63,0,45.26,0,67.88,0,.02.35.07.71.07,1.06,0,15.95,0,31.91.02,47.86,0,.74-.21,1.26-.74,1.78-10.24,10.21-20.46,20.43-30.67,30.67-.5.5-.98.71-1.69.71-4.09-.03-8.19,0-12.28-.03-.85,0-1.43.26-2.02.86-5.26,5.31-10.56,10.58-15.84,15.87-.23.23-.44.47-.65.71-.1,0-.21,0-.31-.01Zm.05-92.26v53.48h16.06v12.41c4.06-4.07,7.95-7.99,11.88-11.87.32-.32.88-.54,1.33-.55,4.19-.04,8.38-.04,12.58-.01.63,0,1.08-.17,1.53-.62,4.33-4.36,8.67-8.7,13.03-13.03.44-.44.65-.88.65-1.52-.02-12.45-.01-24.89-.01-37.34,0-.31,0-.63,0-.95H28.56Z"/><path class="cls-1" d="m67.77,41.13v-21.28h7.06v21.28h-7.06Z"/><path class="cls-1" d="m55.17,41.13h-6.98v-21.3h6.98v21.3Z"/></svg>