<?xml version="1.0" encoding="utf-8"?>
<!-- Generator: Adobe Illustrator 27.0.1, SVG Export Plug-In . SVG Version: 6.00 Build 0)  -->
<svg version="1.1" id="Layer_1" xmlns="http://www.w3.org/2000/svg" xmlns:xlink="http://www.w3.org/1999/xlink" x="0px" y="0px"
	 viewBox="0 0 50 41.1" style="enable-background:new 0 0 50 41.1;" xml:space="preserve">
<style type="text/css">
	.st0{fill:#FFFFFF;}
</style>
<path class="st0" d="M0,36.5c5.6,0.5,10.5-0.8,15.1-4.3c-3.1-0.2-5.5-1.3-7.5-3.5c-0.9-1-1.6-2.2-2.1-3.6c1.5,0.2,3,0.2,4.5-0.2
	c-5.6-1.4-8.2-6.3-8.1-10.1c0.7,0.3,1.4,0.6,2.2,0.8c0.7,0.2,1.5,0.3,2.3,0.3c-2.4-1.9-3.9-4.3-4.3-7.3C1.8,6.3,2.3,4.1,3.4,2.3
	C9,8.8,16,12.4,24.6,13c-0.3-1.4-0.3-2.7-0.1-4c0.5-3.8,3.6-7.3,7.3-8.3c3.8-1,7.2-0.1,10,2.6c0.1,0.1,0.4,0.2,0.6,0.2
	c2-0.4,3.9-1.1,5.7-2.1c0.1-0.1,0.3-0.1,0.5-0.2c-0.8,2.4-2.2,4.2-4.2,5.5c1.9-0.2,3.7-0.7,5.5-1.5c0,0,0.1,0.1,0.1,0.1
	c-0.8,1-1.6,2-2.5,2.9c-0.7,0.7-1.5,1.3-2.3,2c-0.2,0.2-0.3,0.4-0.3,0.6c0,10.6-4.2,19.1-12.8,25.3c-3.6,2.6-7.8,4-12.2,4.6
	c-4.2,0.5-8.3,0.3-12.4-0.9c-2.6-0.7-5-1.8-7.2-3.2C0.2,36.7,0.1,36.6,0,36.5z"/>
</svg>
