<?xml version="1.0" encoding="utf-8"?>
<!-- Generator: Adobe Illustrator 27.0.1, SVG Export Plug-In . SVG Version: 6.00 Build 0)  -->
<svg version="1.1" id="Layer_1" xmlns="http://www.w3.org/2000/svg" xmlns:xlink="http://www.w3.org/1999/xlink" x="0px" y="0px"
	 viewBox="0 0 29.5 269.6" style="enable-background:new 0 0 29.5 269.6;" xml:space="preserve">
<style type="text/css">
	.st0{fill:#542D4F;}
	.st1{fill:#2C7C64;}
	.st2{fill:#513351;}
	.st3{fill:#54274C;}
	.st4{fill:#532F50;}
	.st5{fill:#955088;}
	.st6{fill:#542C4F;}
	.st7{fill:#552C50;}
	.st8{fill:#984E89;}
	.st9{fill:#8D477E;}
	.st10{fill:#874C7D;}
	.st11{fill:#53254A;}
	.st12{fill:#503250;}
	.st13{fill:#4C334E;}
	.st14{fill:#523051;}
	.st15{fill:#522C4E;}
	.st16{fill:#35685F;}
	.st17{fill:#8C457D;}
	.st18{fill:#3F4C54;}
	.st19{fill:#5F5A6E;}
	.st20{fill:#8A457B;}
	.st21{fill:#7A537A;}
	.st22{fill:#5E4C67;}
	.st23{fill:#7F4073;}
	.st24{fill:#774570;}
	.st25{fill:#66335C;}
	.st26{fill:#52284B;}
	.st27{fill:#77597C;}
	.st28{fill:#44505A;}
	.st29{fill:#715676;}
	.st30{fill:#66325C;}
	.st31{fill:#4A374F;}
	.st32{fill:#47344B;}
	.st33{fill:#723867;}
	.st34{fill:#316057;}
	.st35{fill:#66355C;}
	.st36{fill:#604161;}
	.st37{fill:#6F3463;}
	.st38{fill:#3F5E5E;}
	.st39{fill:#724B71;}
	.st40{fill:#904F84;}
	.st41{fill:#52264A;}
	.st42{fill:#47324A;}
	.st43{fill:#653A60;}
	.st44{fill:#45384C;}
	.st45{fill:#39635E;}
	.st46{fill:#435059;}
	.st47{fill:#733867;}
	.st48{fill:#327262;}
	.st49{fill:#70436B;}
	.st50{fill:#2D7F67;}
	.st51{fill:#4C3D54;}
	.st52{fill:#336E61;}
	.st53{fill:#3F565B;}
	.st54{fill:#804A79;}
	.st55{fill:#494456;}
	.st56{fill:#288466;}
	.st57{fill:#4D3A53;}
	.st58{fill:#4B3F54;}
	.st59{fill:#336E60;}
	.st60{fill:#2B7C64;}
	.st61{fill:#572E52;}
	.st62{fill:#552B4F;}
	.st63{fill:#474D5A;}
	.st64{fill:#4E3A53;}
	.st65{fill:#4F3953;}
	.st66{fill:#5D2550;}
	.st67{fill:#566B73;}
	.st68{fill:#8D437C;}
	.st69{fill:#59274F;}
	.st70{fill:#4A4055;}
	.st71{fill:#2D7A64;}
	.st72{fill:#41525A;}
	.st73{fill:#5C2952;}
	.st74{fill:#4A4658;}
	.st75{fill:#2D7E67;}
	.st76{fill:#484B59;}
	.st77{fill:#695C76;}
	.st78{fill:#785077;}
	.st79{fill:#553052;}
	.st80{fill:#703665;}
	.st81{fill:#7B3D6F;}
	.st82{fill:#552A4C;}
	.st83{fill:#7B3C6E;}
	.st84{fill:#522F50;}
	.st85{fill:#542D50;}
	.st86{fill:#455B61;}
	.st87{fill:#3E5E5F;}
	.st88{fill:#503D57;}
	.st89{fill:#523151;}
	.st90{fill:#307362;}
	.st91{fill:#2C7D65;}
	.st92{fill:#37675F;}
	.st93{fill:#2F7763;}
</style>
<g>
	<rect x="-120" y="120" transform="matrix(-1.836970e-16 1 -1 -1.836970e-16 149.5656 120.0184)" width="269.6" height="29.5"/>
	<path d="M0,214.8C0,230,0,245.2,0,260.3c0,1.2,0,2.4,0,3.5c0.2,3.1,1,4.6,3.1,5.1h4.1c1.8-0.2,3.7-0.5,5.5-0.6
		c2.5,0.2,4.9-0.5,7.3-0.7c7-0.6,7.7-1.5,7.8-8.7c0.4-24.7,0.2-49.5,0.7-74.2c1.1-57.3-0.1-114.6,0.9-171.9
		c0.1-4.3,0.1-8.6,0.2-12.8H0.9C0.8,71.6,0.4,143.2,0,214.8z"/>
	<g>
		<path d="M6.5,269.1c0.5,0,0.9-0.1,1.4-0.1l-4.1,0C4.5,269.1,5.4,269.1,6.5,269.1z"/>
		<path class="st0" d="M11.9,128.1c0.1-1.6-1.1-2.1-2.2-2.3c-3.6-0.5-4.3-2.6-4.1-5.8c0.5-7.8-0.5-15.7,0.7-23.5
			c0.2-0.2,0.4-0.3,0.5-0.5c0.7-0.2,1.4-0.1,1.8,0.6c1.3,3,0.7,6-0.2,9.3c0.5-1.4,0.7-2.7,2.2-2.4c0.6,0.1,0.8,0.7,0.6,1.3
			c0.5-0.4,0-0.9,0.2-1.4c0.2-1,0.4-2.3,1.5-2.5c1.5-0.2,1.8,1.3,2.1,2.3c0.8,2.2,0.6,4.6,0.6,6.9c0,1.3,0.1,2.6,0.6,3.9
			c0.7,1.7,1.1,3.6,1.2,5.5c0.1,1.4,0,2.9,0,4.3c-0.1,1.8,0.2,3.6-0.7,5.2c-0.7,0.8-1.4,1.6-2.6,0.7c-1.2-3.1-0.3-6,0.1-8.7
			c-1.4,2.9,0.2,6.7-1.4,9.9c0,0.7-0.2,1.3-1,1.6c-0.4-0.3-0.7-0.7-0.8-1.2C10.8,130.2,11,129.1,11.9,128.1z"/>
		<path class="st1" d="M7.6,168.8c0-0.2,0.1-0.5,0.1-0.7c-0.1-2.2,0.1-4.3,1.2-6.2c2.8-2.5,4.3-6.2,7.1-8.8c1.8-0.9,2.1-4.5,5.3-3.1
			c1.6,6.4,0.4,12.9,0.8,19.3c0.1,2.2,0.1,4.4,0,6.6c-0.1,1.4,0,3-1.7,3.7c-3-3.4-1.2-7.5-1.6-11.3c0-0.9-0.1-1.8-0.3-2.7
			c-0.7-1.9,1.4-4-0.3-5.8c-1.5,1.1-2,2.7-2.2,4.4c-2.1,3.3-2.7,7.4-5,10.5c2.4-1.5,2.5,0.2,2.8,2c0.6,2.8-0.5,5.8,1.2,8.4
			c-1.6,2.7-3.4,4.4-6.1,1.1c-1.4-4.5-2-9.1-0.6-13.8C8.6,171,6.4,170.2,7.6,168.8z"/>
		<path class="st2" d="M7.1,58.3c0-1.8,0-3.5,0.1-5.3c2-2.4,2.3-0.1,3.1,1.1c0.2,0.3,0.4,0.6,0.6,0.9c2.4,1.1,3.3-1.5,5.1-2.1
			c0.7-0.3,1.3,0,1.6,0.6c2.3,6.3,1,12.7,0.9,19.1c0,1.3,0.2-0.3,0.6-0.1c2.4,1,2,3.2,2.2,5.1c-0.7,1.9-2,3.2-3.9,2.6
			c-1.7-0.5-1-2.5-1.2-3.9c-0.9-6.1-0.1-12.3-0.5-17.1c-0.7,7.5,1.2,16.3,0.3,25.1c-0.3,0.5-0.7,0.7-1.3,0.7
			c-1.8-1.6-1.4-3.8-1.4-5.8c-0.1-5.4-0.9-10.7-0.8-15.1c0.4,1.5,0.3,3.8,0,6.1c-0.8,2.6,0,6.2-4.1,6.8c-0.2-0.2-0.5-0.4-0.6-0.7
			c-0.7-1.8-0.4-3.5,0.7-5c1.1-1.5,0.6-1.7-0.7-2.8c-1.1-0.9,0-3.4-0.5-5.1C6.6,61.7,7.2,60,7.1,58.3z"/>
		<path class="st3" d="M8.9,255.6c-3,0.1-3.5-1.7-3.5-4.2c0-8.4,0.1-16.7,0.8-25c0.4-0.3,0.9-0.3,1.3,0.1c1.6,1.7,1.7,3.8,1.3,5.9
			c-1.1,2.4,0.3,4.8,0,7.4c0.4-1.6-0.3-3.1,0.3-4.5c2.7-2.6,2.3,1.5,3.6,1.7c1.1,1,1.6,2.2,1.7,3.7c0,1-0.1,1.9-0.7,2.7
			c-0.5,1-3.2,0.2-2.1,2.9c0.7,1.8,0.6,4.2-1.5,6.2c-1.1-1.5-0.9-2.7-0.5-3.9C8.2,250.6,11.2,253.4,8.9,255.6z"/>
		<path class="st4" d="M9.4,161.8C9.2,164,9,166.2,7.7,168c-1.1-0.8-0.8-1.8-0.7-2.8c0.4-4.1,0.3-8.3,0.5-12.4
			c0-3.8,0.2-7.7-0.1-11.5c-0.3-3.6,1.2-4.8,4.5-4.4c3.1,3,0.6,6.6,0.9,9.9c-0.8,2.3-0.4,4.7-0.5,7C12.4,156.9,11.9,159.7,9.4,161.8
			z"/>
		<path class="st5" d="M23.1,39c0,3.2,0,6.3,0,9.5c-1.1,3.5-0.1,7.1-0.5,10.6c-0.1,1,0.8,2.8-1.5,2.6c-2.1-3.9-0.9-8.2-1.1-12.3
			c-0.2-10.6,0.3-21.3-0.4-31.9c-0.2-0.8-0.2-1.5-0.2-2.3c0.5-2.4,0.4-4.8,0.6-7.2c0.1-0.7,0.3-1.4,0.8-2c0.7-0.4,1.4-0.4,2.1,0
			l-0.1,0.1c1.1,6.1,0.4,12.3,0.5,18.4C23.4,29.4,23.8,34.2,23.1,39z"/>
		<path class="st6" d="M7,218.4c-1.6-1.1-0.9-2.7-0.9-4.1c0-8.7-0.2-17.4,0.7-26c0.4-0.3,0.8-0.3,1.2,0.1c0.3,0.4,0.5,0.8,0.6,1.2
			c0.3,1.9,0.5,3.8-0.7,5.5c0.9-0.2,1.1-1.9,2.3-1.4c0.9,0.4,1.1,1.4,1,2.3c-0.5,3,0.3,6.1-1.5,9c-1.5,2.3-0.8,5.1-0.3,7.7
			c0.3,1,0.6,2,0.8,3.1c0.1,0.6,0,1.3-0.3,1.8C9.1,218.3,7.8,217.5,7,218.4z"/>
		<path class="st7" d="M12,146.7c-0.6-3.3,1.1-6.5,0-9.8c0.2-0.1,0.5-0.1,0.7,0c0.4-0.2,0.8-0.3,1.2-0.1c0.9,0.5,1.7,1.2,2.2,2.2
			c0.9,2.7,0.4,5.5,0.5,8.6c1.3-0.9,2.2-2.8,4.1-2c0.8,0.7,0.9,1.5,0.7,2.4c-0.2,0.7-0.8,1.1-1.4,1.4c-0.3,2.2-1.9,3.3-3.5,4.5
			C12.9,153.1,11.9,151.5,12,146.7z"/>
		<path class="st8" d="M20.8,148.4c-0.1-0.9-0.1-1.7-0.2-2.6c-1.4-2.1-1.3-4.4-0.7-6.7c0.4-0.9,0.9-1.7,1.9-1.5
			c1.6,0.3,1.2,1.8,1.2,2.9c0.1,10.1,0.2,20.3,0.1,30.4c0,4.7,0.5,9.4-0.3,14c0,4.4,0,8.7,0,13.1c-2.1-0.2-2-1.9-2.1-3.3
			c-0.2-2.2-0.1-4.4-0.1-6.6c1-11.6,0.7-23.3,0.7-34.9C21.3,151.6,21.4,150,20.8,148.4z"/>
		<path class="st9" d="M21.3,61.8c1.8-2.5,0.5-5.3,0.9-8c0.3-1.8-0.7-3.8,0.9-5.3c0.1,11.5,0.1,23,0.2,34.6c0,1.9-0.3,3.6-2.7,3.5
			c-0.8-0.5-1.5-1.2-1.1-2.3c0.7-2.7,1.6-5.4,1.4-8.4C20.4,71.2,18.7,66.4,21.3,61.8z"/>
		<path class="st10" d="M22.8,184.9c-0.1-14.2-0.2-28.5-0.3-42.7c0-1.2,0.3-2.6-0.3-3.4c-1-1.3-1.2,0.1-1.5,0.8
			c-1.9,0.7-3.7,0.3-5.3-0.9c-1-0.1-1.8-0.4-1.6-1.6c1.1-1,2.2-0.6,3.4-0.2c6.6,0.1,6-1.1,6,6.2c0,12.4,0,24.7,0,37.1
			C23.3,181.8,23.7,183.4,22.8,184.9z"/>
		<path class="st11" d="M7.1,58.3c0.3,2.6,0,5.7,1.2,7.8C10.4,70,8,73.3,8.2,76.9c2,2.5,0.9,5.4,1.4,8.2c-0.1,1.4-1.5,1.6-2.2,2.5
			c-0.2-0.2-0.6-0.4-0.6-0.5C6.4,77.4,5.8,67.8,7.1,58.3z"/>
		<path class="st12" d="M22.9,6c-0.6,0.1-1.2,0.2-1.8,0.2c-2.1,1.8-4.8,0.4-7,1.6c-1.9,2.9-0.8,5.8,0.4,8.5c0.7,1.6,1.6,3,1,4.9
			c-1.4,2.5-2.6,2.5-3.4-0.3c-0.4-1.2-0.8-2.4-1.3-3.6c-2.3-2.7-2.6-6.1-3.1-9.4C7.8,6.7,7.7,5.3,9.4,5.4C13.9,5.4,18.5,4.5,22.9,6z
			"/>
		<path class="st13" d="M7.2,38.9c0.1-7.6,0.1-15.2,0.2-22.8c2.4,1,2,3.3,2.3,5.1c0.4,1.7,0.6,3.4,2.1,4.6c0.5,1.5-0.2,2.9-0.1,4.4
			c-0.2,2.4-1,4.7-2.1,6.8C9,37.9,8.6,39,7.2,38.9z"/>
		<path class="st14" d="M8.9,255.6c0-2.6,0-5.3,0-8.1c1.7,0.9,0.3,2.6,1.8,3.8c0-2.1,0.3-4-0.1-5.7c-0.6-2.7,1.3-2.3,2.7-2.5
			c2.1,2.8,1.1,5.9,1,8.9c-0.1,0.7-0.3,1.4-0.6,2.1c-0.5,1-0.4,2.5-2.2,2.3C10.6,256.4,9.6,256.4,8.9,255.6z"/>
		<path class="st15" d="M11.4,25.6c-2.8,0.9-2.5-1.4-2.6-2.7c-0.2-2.3-0.8-4.6-1.5-6.8c-0.7-2.8,0.7-5.4,0.4-8.2
			c1.2,2.9,2.4,5.9,3.6,8.8C12.3,19.7,13.2,22.6,11.4,25.6z"/>
		<path class="st16" d="M7.2,38.9c0.5-0.6,1.1-1.2,1.6-1.8c1.4,0.5,2.7,1,3.1,2.6c0.1,1.2-0.7,2.1-1.1,3.2c-0.3,0.7-0.7,1.3,0.4,2.1
			c2.7,2,2.3,5.4-0.5,7.5c-1.2-0.4-2.4-0.6-3.5-1.3l-0.1-0.4l0-0.4c1-0.9,1.1-1.8,0-2.7C7.2,44.8,7.2,41.8,7.2,38.9z"/>
		<path class="st17" d="M21.9,188.2c0.5,3.2-1,6.7,1,9.7c0,5.9,0,11.8,0,17.7c-1.3,0.3-2-0.3-2.5-1.4c-0.8-2.3-0.5-4.7-0.6-7
			c0.3-6.2-1.1-12.5,0.6-18.6C20.8,188.1,21.3,188,21.9,188.2z"/>
		<path class="st18" d="M7.6,168.8c1.7,1.8,2,3.7,1.1,6.2c-0.9,2.6-0.5,5.5,1.1,8.1c0.4,0.6-0.2,1.7-0.3,2.5
			c-0.2,0.2-0.4,0.3-0.6,0.3c-0.2,0-0.3,0-0.3-0.1c-0.4-0.6-1.1-0.8-1.7-1.1C7.1,179.4,5.9,174,7.6,168.8z"/>
		<path class="st19" d="M22.9,234.2c0,6.5,0,12.9,0,19.4c-0.6,0.3-1.1,0.1-1.6-0.3c-0.3-0.3-0.6-0.6-0.8-0.9c-0.5-0.9-0.8-1.9-0.8-3
			c0-3.2,0-6.4,0.8-9.5C21.5,238.1,19.8,235.2,22.9,234.2z"/>
		<path class="st20" d="M23.1,39c-0.1-11-0.2-21.9-0.3-32.9c1.1,0.7,0.8,1.8,0.8,2.8C23.3,19,24.2,29,23.1,39z"/>
		<path class="st21" d="M22.3,95.4c0.1,0.5,0.1,1,0.2,1.6c0.7,3.5,0.2,7.1,0.3,10.7c0,0.5-0.2,0.9-0.6,1.3c-0.8,0.1-1.3-0.2-1.8-0.8
			c-0.7-1.1-0.4-2.2-0.2-3.3c0.7-3.7-0.4-6.1-4.3-6.9c-0.4-0.2-0.7-0.5-1-0.9c-0.1-0.5-0.1-0.9,0-1.3c0.3-0.4,0.6-0.7,1.1-0.7
			C18.2,95.2,20.3,94.5,22.3,95.4z"/>
		<path class="st22" d="M22.4,108.6c0-3.9,0.1-7.8,0.1-11.7c1.7,2.2,0.8,4.8,0.8,7.1c0.1,6.2-0.1,12.5-0.1,18.7
			c-0.3,0.3-0.6,0.5-1,0.6c-0.4,0-0.8-0.1-1.2-0.2c-0.5-0.3-0.8-0.8-1-1.5c-0.1-0.6,0.1-1.2,0.4-1.7c0.3-0.3,0.5-0.6,0.8-0.9
			C21.9,115.7,20.1,111.9,22.4,108.6z"/>
		<path class="st23" d="M22.2,259.9c1.1,4.9-3,1.7-4.3,2.7c0-1.9-3.6-0.5-2.7-3.1c1.6-1.4,3.5-2.1,5.7-2.1
			C22.2,257.7,23,258.4,22.2,259.9z"/>
		<path class="st24" d="M7,226.4c-0.3,0-0.6,0-0.9-0.1c5.6-1.8,11.1-1.6,16.7,0c-2.9,2.3-6.4,0.5-9.5,1.7
			C11,228.5,8.8,228.3,7,226.4z"/>
		<path class="st25" d="M22.5,122.8c0.2,0,0.5,0,0.7,0c0.1,1.3,0.2,2.6,0.2,4c0,6.3-1.7,7.4-7.9,4.9c0.1-0.2,0.2-0.3,0.4-0.5
			c1-0.6,2.1-1,3.3-0.9c0.9,0.1,1.7,0.1,1.9-1c0.2-1,0.3-1.9,0.4-2.9C21.4,125.1,21.5,123.8,22.5,122.8z"/>
		<path class="st26" d="M5.4,262.6c-1.2-6.7,4.3-3.6,6.9-4.7c0.6,0.4,0.7,0.9,0.5,1.6c-0.6,1.2-2.2,0.5-2.8,1.6
			c-0.3,0.3-0.6,0.5-0.9,0.7C8,262.3,6.8,263,5.4,262.6z"/>
		<path class="st27" d="M13.2,227.2c3.1-1.9,6.4-0.5,9.7-0.9c0,0.6,0,1.2,0,1.8c-0.4,0.7-0.9,1.4-1.8,1.4c-2-0.2-3.9-0.7-5.9-0.9
			C14.3,228.3,13.6,227.9,13.2,227.2z"/>
		<path class="st28" d="M12.9,131c-0.3-3.6,0-7.2,1.6-10.7c0,3.2,0,6.4,0,9.5c0.3,0.4,0.2,0.7-0.1,1.1C13.9,131,13.4,131,12.9,131z"
			/>
		<path class="st0" d="M22.3,95.4c-2.3,0-4.7,0-7,0.1c-2.7,2.3-5.7,0.3-8.6,0.7c-0.1,0.1-0.3,0.2-0.4,0.3c-0.8-1.4,0-1.9,1.2-1.9
			c4.9,0,9.8,0.1,14.7,0.2c0.1,0,0.2,0.2,0.2,0.3C22.5,95.1,22.4,95.3,22.3,95.4z"/>
		<path class="st29" d="M21.1,228.9c0.6-0.3,1.2-0.6,1.8-0.9c0,2.1,0,4.1,0,6.2c-1.9,1.7,0.3,4.5-1.7,6.2
			C19.2,236.6,19.2,232.8,21.1,228.9z"/>
		<path class="st30" d="M7.3,87.5c0-1.1,0.6-1.8,1.7-1.8c0.3-0.3,0.6-0.5,1-0.7c1.6-0.3,3.2,0.1,4.8,0.3c1.2,0.2,2.5,0.1,3.3,1.4
			C14.6,88.1,10.9,87.5,7.3,87.5z"/>
		<path class="st31" d="M7.5,152.8c2.1,4.2-0.2,8.3-0.5,12.4C7,161,6.2,156.9,7.5,152.8z"/>
		<path class="st32" d="M16.1,92.5c-0.3,0-0.6,0.2-0.8,0.1c-1.7-0.3-4.6,1.1-4.7-1c-0.1-2.2,2.9-1.3,4.6-1.4c0.5,0.3,1,0.6,1.2,1.3
			C16.6,91.9,16.4,92.2,16.1,92.5z"/>
		<path class="st33" d="M7,218.4c0.6-1,1.7-0.8,2.6-0.9c1-1.1,2.2-1.8,3.7-1.7c0.4,0,0.8,0.1,1.1,0.2c0.5,0.1,1.1,0.3,1.6,0.5
			c0.7,0.2,1.4,0.3,2.1,0.7c0.1,0.1,0.2,0.3,0.3,0.4C14.7,218.9,10.9,218.5,7,218.4z"/>
		<path class="st2" d="M11.9,128.1c0,1.2,0,2.4,0,3.6c-1.5,1.1-2.9,1.2-4.1-0.5c-0.4-1.1-0.3-2.1,0.5-3
			C9.5,128.1,10.7,128.1,11.9,128.1z"/>
		<path class="st34" d="M15.8,221.1c2.4-0.2,5-0.9,6.5,2.2c-2.5-0.2-4.8-0.4-7.2-0.6C14.4,221.8,15.2,221.5,15.8,221.1z"/>
		<path class="st35" d="M8.4,130.8c0.9,1.3,2.3,0.7,3.5,0.8c0,0.3,0,0.7,0,1c-2.2,0.3-4.7,2.6-6.3-0.9C6.4,130.9,7,129.8,8.4,130.8z
			"/>
		<path class="st36" d="M15.1,259.9c1.1,1.8,2.6-0.2,3.8,0.4c1.3,1.6-2.2,0.8-1,2.4c-2,1.9-2.9-1.2-4.5-1c-0.3,0.3-0.6,0.3-0.9,0.2
			c-0.2-0.3-0.3-0.6-0.3-0.9c0.2-0.3,0.4-0.5,0.7-0.7c0.4-0.3,0.9-0.6,1.4-0.7C14.6,259.6,14.9,259.7,15.1,259.9z"/>
		<path class="st37" d="M22.2,259.9c-0.1-1.1-0.6-1.8-1.8-1.8c-0.4-1.9-1.1-3.8,0.8-5.3c0.5,0.3,1.1,0.6,1.6,0.8
			C22.8,255.8,23.9,258,22.2,259.9z"/>
		<path class="st38" d="M16.1,92.5c0-0.2,0-0.4,0-0.6c0.6-1,2-0.9,2.6-1.8c1.4-0.2,3,0.1,2.9,1.6c-0.1,2.1-2,0.7-3,0.9
			C17.9,92.9,17,92.6,16.1,92.5z"/>
		<path class="st39" d="M18.1,86.7c-1.2-0.3-2.5-0.7-3.7-1c-0.3-0.3-0.3-0.5,0-0.8c0.3,0,0.6,0,0.9,0c0.3-0.3,0.6-0.5,1-0.7
			c0.8-0.3,1.6-0.2,2.5,0c0.4,0.2,0.7,0.4,1,0.7c0.3,0.6,0.6,1.2,0.9,1.8C19.7,86.6,18.9,86.7,18.1,86.7z"/>
		<path class="st40" d="M21.1,214.8c0.6,0.3,1.2,0.6,1.8,0.9c-0.3,3.4-2.8,1.6-4.4,1.9c0,0,0-0.1,0-0.1c-0.6-0.5-0.6-1.1-0.3-1.8
			C19,214.8,19.9,214.2,21.1,214.8z"/>
		<path class="st41" d="M8.4,130.8c-0.9,0.3-1.8,0.6-2.7,0.9c0.7-1.4-1.8-5.1,2.7-3.6C8.4,129,8.4,129.9,8.4,130.8z"/>
		<path class="st42" d="M15.8,221.1c-0.3,0.5-0.5,1.1-0.8,1.6c-1.5,0-3.1,0-4.9,0C11.8,220.6,13.9,221.1,15.8,221.1z"/>
		<path class="st43" d="M12.5,261.7c0.3,0,0.6,0,0.9,0c-1.2,1.3-2.6,2.1-4.5,1.7c-0.8-0.8-0.6-1.7,0-2.6c0.3,0,0.6,0,0.9,0
			C10.9,260.6,11.8,260.9,12.5,261.7z"/>
		<path class="st44" d="M13.3,260.8c-0.3,0-0.6,0-0.9,0c-0.3-0.3-0.3-0.6,0-0.9c0-0.7-0.1-1.3-0.1-2c-0.3-0.5-0.5-1-0.8-1.5
			c1.1-0.6,0.9-1.7,1-2.7C16,255.7,14.3,258.3,13.3,260.8z"/>
		<path class="st45" d="M7.2,51.2c1.2,0.1,2.6-0.4,3.5,0.9c0.6,1.2,0,2-0.9,2.6c-1.1-0.3-0.6-3-2.7-1.7C7.2,52.4,7.2,51.8,7.2,51.2z
			"/>
		<path class="st46" d="M7.2,47.7c0.9,0.1,2.3-0.3,2.2,1.1c0,1.1-1.2,1.4-2.2,1.5C7.2,49.5,7.2,48.6,7.2,47.7z"/>
		<path class="st2" d="M6.9,184.8c1-0.5,1.8-0.7,1.8,0.9c0.9,1.3,0.4,2.1-0.9,2.7c-0.3,0-0.6,0-0.9,0C6.8,187.1,6.9,186,6.9,184.8z"
			/>
		<path class="st47" d="M8.9,260.8c0,0.9,0,1.7,0,2.6c-1.2,0.1-2.7,0.8-3.5-0.8C6.6,262,7.8,261.4,8.9,260.8z"/>
		<path class="st48" d="M18.8,90.1c-0.1,1.8-1.3,1.8-2.6,1.8c-0.3-0.6-0.6-1.1-0.9-1.7C16.5,90.2,17.6,90.1,18.8,90.1z"/>
		<path class="st49" d="M14.4,130.9c0-0.4,0.1-0.7,0.1-1.1c0.6-0.3,1.1-0.6,1.7-0.9c0.2-0.1,0.3-0.2,0.5-0.3
			c0.2,0.1,0.4,0.2,0.6,0.2c0.2,0.3,0.3,0.7,0.4,1.1c-0.2,1.3-1.6,1-2.2,1.6c0,0,0,0.1,0,0.1C15.1,131.5,14.8,131.2,14.4,130.9z"/>
		<path class="st4" d="M17.3,136.9c-1.1,0.1-2.3,0.2-3.4,0.2c-0.4-0.1-0.8-0.1-1.3-0.2C14.2,136,15.7,135.9,17.3,136.9z"/>
		<path class="st50" d="M15.3,97.3c6.5,0.3,7.4,1.9,5.4,10.5c0.5,0.7,0.8,1.6,0.8,2.4c0,1.8,0.7,3.8-1.2,5.2
			c-2.1,1.5-3.4-0.7-4.9-1.3c-1.2-1-0.7-2.3-0.8-3.6c0.9-2.7,0.4-5.5,0-8.2C14.3,100.5,13.7,98.7,15.3,97.3z"/>
		<path class="st51" d="M15.3,97.3c-0.5,4.4,1,8.9-0.8,13.2c-0.2-3,0.5-6.1-1.3-8.9c-1.2,1.6-1.5,3.4-1.9,5.4
			c-0.2-0.9-0.5-1.9-0.7-2.8c-1.8,0.2-1,2.2-2.3,3.3c0-4,0-7.5,0-11C9,95.6,9.9,96,10.8,96c1.4,0.6,3.2-0.1,4.5,1.2L15.3,97.3z"/>
		<path class="st52" d="M15.3,114c0.3-0.1,0.5-0.4,0.8-0.3c4.5,0.3,4.5,0.3,4.5-5.5c0-0.1,0-0.3,0-0.4c0.3,0.3,0.6,0.6,0.9,0.9
			c0.7,3.8,0.8,7.6,0,11.5c-0.3,0-0.6,0-0.8,0c-1.7,1.1-2.9-0.8-4.4-0.9C16,117.5,15.7,115.8,15.3,114z"/>
		<path class="st53" d="M16.3,119.3c2.2-3.5,2.7,1.5,4.4,0.9c0,0.6,0,1.2,0,1.7c-0.3,0.4-0.5,1-1,1.2c-0.7,0.2-1.3,0.6-1.9,1
			c-0.6,0.1-1.1,0.1-1.5-0.4C16.3,122.2,16.3,120.7,16.3,119.3z"/>
		<path class="st54" d="M10.8,96.4c-0.9,0-1.7,0-2.6,0.1c-0.5-0.1-1-0.1-1.5-0.2c2.7-1.6,5.7-0.4,8.6-0.7c0,0.3,0,0.6,0,0.8
			C13.8,97,12.3,97,10.8,96.4z"/>
		<path class="st55" d="M16.3,123.7c0.6,0,1.2,0,1.8,0c0.3,0.3,0.5,0.7,0.5,1.1c-0.1,1.5-0.2,3-1.4,4.1c-0.3,0-0.6,0-0.9,0.1
			C16.3,127.2,16.3,125.5,16.3,123.7z"/>
		<path class="st56" d="M14.9,184.8c-1.8-0.2-4.2,0.6-1.8-2.9c0.9-1.3-0.7-4.6-0.2-7c-1.8,0-1.5,1.9-4,2.4c2.6-4.9,3.5-9.8,6.6-13.7
			c0-2.2,1.9-3.5,2.7-5.3c0.8-0.2,1.6-0.7,1.8,0.8c0.2,2.2-0.4,4.2-0.9,6.3c-0.3,0.9-0.1,1.5,0.9,1.8c0,4.1,0.1,8.3,0.1,12.4
			c0.3,0.3,0.3,0.7,0.2,1.1c-1.1,1.6-2.3,3.2-3.8,4.5C15.9,185.3,15.3,185.3,14.9,184.8z"/>
		<path class="st57" d="M14.9,184.8c0.5-0.1,1.1-0.1,1.6-0.2c3.7,3.9,2.4,8.5,1.6,12.9c-0.3,0.5-0.7,0.7-1.2,0.7
			c-2-2.5-1.1-5.5-1.6-7.9c-0.4,2.4,1.2,5.3,0.2,8.1c-2.7,0.1-2.7,0-3.4-2.7c-0.5-1.9,0-4.2-2.1-5.4c-0.8-0.2-1.5-0.5-2.1-1.1
			c0-0.3,0-0.6,0-0.9c0.3-0.9,0.6-1.8,0.9-2.7c0.3,0,0.6,0,0.9,0C11.9,189.3,13.1,185.4,14.9,184.8z"/>
		<path class="st58" d="M12,146.7c0.6,3,1.4,5.8,4.5,7.1c-2.8,2.3-3.3,6.6-7.1,8c1.6-3.2,1.9-6.6,1.7-10.1
			C11.1,150,10.5,148.2,12,146.7z"/>
		<path class="st10" d="M20.1,180.3c0-0.3,0-0.5-0.1-0.8c1.5-2,0.8-4.2,0.7-6.3c-0.4-7.9,0.9-15.9-0.8-23.8c0.3-0.3,0.5-0.6,0.8-0.9
			c1.5,1.3,0.9,3,0.9,4.6c0.1,11.8,0.1,23.5,0.2,35.3c-0.3,0-0.6,0-0.9,0C19.1,185.8,19.7,183,20.1,180.3z"/>
		<path class="st59" d="M18.2,158.2c-0.1,2.1-1.7,3.6-2.7,5.3C14.5,160.7,16.7,159.6,18.2,158.2z"/>
		<path class="st60" d="M20,167.1c-0.9,0-1.5,2-2.4,0.8c-0.7-1.1,0.4-2,1.5-2.6C19.8,165.7,20,166.3,20,167.1z"/>
		<path class="st56" d="M9.8,54.8c0.3-0.9,0.6-1.8,0.9-2.6c3.3-1.3-1.1-4.6,2.4-5.8c-1.8-0.7-2.7,1.3-3.7,0
			c-0.8-1.1-0.4-2.2,0.1-3.2c0.6-1.1,1.3-2.2,2-3.3c-0.3-2.9,1.1-5.2,2.8-7.4c1.5-2.2,3.7-4,3.1-7.3c-0.4-1.9,1.4-2.7,3.3-2.2
			c0,2.6,0,5.2,0,7.8c0.1,1.9-2.1,3.8,0,5.8c-0.2,4.2,0.4,8.4-0.3,12.6c-0.5,2-1.5,3.5-3.6,4c-0.3,0.3-0.6,0.6-0.9,0.8
			C13.8,53.7,12.3,57.2,9.8,54.8L9.8,54.8z"/>
		<path class="st61" d="M16.9,53c0.9-1.2,1.8-2.4,2.7-3.6c0.5-0.5,1.1-0.5,1.6,0c0.1,4.1,0.1,8.2,0.2,12.4c0,5-0.1,10-0.1,15
			c-0.1,0.3-0.3,0.4-0.4,0.3c-0.1-0.1-0.2-0.2-0.2-0.3c-0.4-1.2-0.9-2.4-1.3-3.7c-0.3,0.7-0.5,1.3-1.1,2.6
			C16.6,67.8,18.6,60.3,16.9,53z"/>
		<path class="st62" d="M14.4,84.9c0,0.3,0,0.5,0,0.8c-1.5,1-3-0.3-4.5,0c-1-1.4-0.8-3-0.3-4.5c1-3.4,1.4-7,2-10.5
			c0-2.9,0-5.8,0-8.7C13.9,69.5,14.5,77.1,14.4,84.9z"/>
		<path class="st63" d="M20.5,76.8c0.2,0,0.4,0,0.6,0c-0.2,2.7,1.5,5.8-1.5,8c-0.3,0-0.6-0.1-0.9-0.1c-0.9-1.1-1.8-1-2.6,0.1
			c-0.3,0-0.6,0-0.9,0c0-8.8-0.1-17.6-0.1-26.4c1.1,7,0.5,14.1,2.3,21.2C18.7,79.1,20.3,78.9,20.5,76.8z"/>
		<path class="st64" d="M11.6,70.7c0.6,5.1-0.3,10.1-1.7,15c-0.3,0-0.6,0-0.9,0c-1.5-2.8-0.7-5.9-0.9-8.8
			C10.7,75.6,10.4,72.7,11.6,70.7z"/>
		<path class="st45" d="M9.8,54.8c2.1,0.4,3.9-1.6,6.1-0.9c-1.2,0.9-2.4,2-3.7,2.8C10,58,9.8,56.4,9.8,54.8z"/>
		<path class="st65" d="M21.3,252.8c-0.9,1.7,0.7,3.7-0.8,5.3c-1.8,0.6-3.5,1.2-5.3,1.8c-0.3,0-0.6,0-0.9,0
			c-1.1-2.2,0.1-4.8-0.9-7.1c0-3.2,0-6.5,0-9.7c0-0.9,0-1.8,0-2.6c1.1-2.9-1.1-5.6-0.5-7.6c-0.3-1.4-1.1-0.7-0.6-0.9
			c0.2-0.1,0.3,0,0.4,0.2c0.6,2.1,0.4,4-1.1,5.7c-1.6-0.2,0.1-2.6-1.8-2.6c-2,0.1-2.5-0.9-1.8-2.6c0.3-2.1-0.4-4.1-0.9-6.1
			c2,0.4,4,1.1,6.2,0.8c0.6,0.3,1.2,0.5,1.8,0.8c2.4,3.8,1.1,8,1.1,12c-0.4,1.5-0.4,3,0.1,4.6c0.8,2.4,1,4.9,1.2,7.4
			c0,0.3-0.2,0.5-0.3,0.8c0,0.5,0.1,0.5,0.3,0.1c0.2-0.2,0.5-0.4,0.8-0.5C19.3,252.2,20.3,251.9,21.3,252.8L21.3,252.8z"/>
		<path class="st14" d="M7.9,232.5c0,1.3,0.6,2.2,1.8,2.6c-0.3,2.1,0.9,4.6-1.8,7.2C8.8,238.5,5.7,235.7,7.9,232.5z"/>
		<path class="st14" d="M11.5,237.8c-0.2-2.2,0.7-4.2,1.3-6.7c1.4,3.3,2.2,6.3,0.5,9.3C13.3,239.2,13.3,237.9,11.5,237.8z"/>
		<path class="st7" d="M15,21.2c-0.3-4-3.5-7.1-3.2-11.4c0.1-1.5-0.3-2.6,1.5-2.8c1.2-0.6,2.3-0.6,3.1,0.7c0.9,3.6,0.9,7.1,0,10.7
			c-0.1,0.6,0.8-0.1,0.2,0c0.1-2.3,1.4-3.3,3.6-3.4c0,0.6,0.1,1.2,0.1,1.8c0.6,0.8,0.4,1.7,0.3,2.6c-0.7,2.1-1.9,3.6-4.2,4.1
			C15,23.2,14.1,22.8,15,21.2z"/>
		<path class="st66" d="M20.2,15c-1.3,1.5-3.2,2.4-4.4,4.3c0-3.8,0-7.6,0-11.4C17.6,6.7,19.3,6.6,21,8C20.7,10.3,21.9,12.8,20.2,15z
			"/>
		<path class="st67" d="M20.2,19.4c0-0.9,0-1.8,0.1-2.6c1.1,0.9,0.8,2.1,0.8,3.3c0,9.8,0,19.6,0,29.4c-0.5,0-1,0-1.6,0
			c1.7-4.6,0.4-9.4,0.7-14.1c-0.9-1.2-0.5-2.4,0-3.5c0-3.2,0-6.5,0-9.7C19.6,21.2,19.7,20.3,20.2,19.4z"/>
		<path class="st68" d="M21,8c-1.7,0-3.5-0.1-5.2-0.2C15.2,6.9,14.2,7,13.3,7c2.5-1.7,5.2-0.5,7.8-0.7C21.1,6.8,21,7.4,21,8z"/>
		<path class="st2" d="M7.8,189.2c0.9,0,1.8,0,2.6,0c2.8,4.5,2,9.5,1.8,14.5c-2.3,2.7-1.7,6.5-3.5,9.4c-1.3-3.2-1.6-6.3,0.4-9.4
			c1.8-2.8,0.2-6.2,1.3-9.1c-2-0.9-1.2,1.8-2.7,1.6C7.8,193.8,7.8,191.5,7.8,189.2z"/>
		<path class="st69" d="M14,216.5c-1.5,0.3-2.9,0.6-4.4,0.9c0-0.6,0-1.2,0-1.7c0-0.2,0-0.4,0-0.6c0.2-1.2,0.7-2.2,1-3.4
			c0.1-0.4,0.2-0.8,0.3-1.3c0.1-0.9,0.2-1.8,0.6-2.6c0.6-1.3,1.6-1.6,2.1-0.2C14.6,210.6,16.2,213.5,14,216.5z"/>
		<path class="st51" d="M8.7,213.1c0.1-3.2-0.8-6.7,2.6-8.9c1.3,2.6,0.4,5.3,0,8l0,0c-1,1-1.1,2.4-1.7,3.5l0,0
			C8.6,215.1,8.8,214,8.7,213.1z"/>
		<path class="st66" d="M15.5,138.8c1.8,0,3.6-0.2,5.3,0.9c0,2.1-0.1,4.1-0.1,6.2c-2.4,0.6-3,2.9-5.1,4.6
			C15.5,146.5,15.5,142.6,15.5,138.8z"/>
		<path class="st70" d="M15,21.2c0,1.1,0.6,1.7,1.8,1.8c0.6,1.5-0.6,2.2-1.3,3.2c-1.6,1.3-2,4.2-4.9,3.9c0.3-1.5,0.6-3,0.8-4.5
			c0-2.9,0-5.9,0-8.8c1.5,1.2,1.5,3,1.9,4.7C13.7,23.1,14.3,21.1,15,21.2z"/>
		<path class="st71" d="M10.6,30.1c2.1-0.9,2.4-3.5,4.3-4.5c2.4,0.3,2.7,1.8,2,3.7c-0.5,1.2-1.1,2.4-1.9,3.4
			c-1.2,2.4-2.3,4.7-3.5,7.1c-0.6-1.2-2.8-0.7-2.7-2.7C9.4,34.7,10,32.4,10.6,30.1z"/>
		<path class="st72" d="M13.3,252.8c1.8,2.2,0.5,4.7,0.9,7.1c-0.3,0.3-0.6,0.6-0.9,0.9c-0.3-2.4,0.8-4.9-0.8-7.1
			C12.8,253.4,13,253.1,13.3,252.8z"/>
		<path class="st73" d="M20.1,180.3c1.5,2.5,0.4,5.3,0.8,8c0,6.5,0,13-0.1,19.4c-0.4,0.2-0.8,0.2-1.1-0.2c-3.9-2.5-4.5-4.6-2.3-9.6
			c-0.2-4.5,0.6-9-1-13.4C16.9,182.5,18.5,181.4,20.1,180.3z"/>
		<path class="st74" d="M20.2,207.7c0.2,0,0.5,0,0.7,0c0.1,2.4,0.1,4.7,0.2,7.1c-0.9,0.3-1.7,0.6-2.6,1c-3.7-3.8-0.7,2.8-2.6,1.7
			c-0.3-0.3-0.6-0.6-0.9-0.9c-0.8-4.2-1-8.5-1.4-12.8c-0.2-1.7-0.1-3.5,1.3-4.8c0-3.2,0-6.4,0-9.6c0.2,0,0.5,0,0.7-0.1
			c0.4,2.9,0.7,5.9,1.1,8.8c1,2.3,0.4,4.6,0.4,6.9C17,207.3,17.9,208.1,20.2,207.7z"/>
		<path class="st75" d="M15,241.3c0-4.4,0-8.9,0-13.3c2.2-0.6,4.2,0.1,6.1,1c0,3.8,0.1,7.7,0.1,11.5c-0.3,3.2-0.5,6.5-0.8,9.7
			c-1.4,0.9-2.1,0-2.7-1.1c-0.5-1.4-0.8-2.9-1.2-4.3C16.9,243.2,14.4,242.9,15,241.3z"/>
		<path class="st76" d="M18.6,248.4c0,1.2,0.7,1.7,1.8,1.8c0.3,0.9,0.6,1.7,0.8,2.6c-1.2,0.1-2.3,0.9-3.5,0
			C17.5,251.2,15.6,249.4,18.6,248.4z"/>
		<path class="st77" d="M21.5,120.1c0-3.8,0-7.6,0-11.5c0.3,0,0.6,0,0.9,0c0,3.8-0.1,7.6-0.1,11.4c0,0.1-0.2,0.2-0.3,0.2
			C21.8,120.3,21.7,120.2,21.5,120.1z"/>
		<path class="st78" d="M10.8,96.4c1.5,0,3,0,4.4,0c0,0.3,0,0.6,0,0.8C13.8,97,12.1,97.7,10.8,96.4z"/>
		<path class="st79" d="M17.2,128.9c-0.1-1.5,0-3,0.8-4.3c2.3,1.1,1.1-1.3,1.7-1.8c0.3-0.3,0.6-0.6,0.9-0.9c0.3,0.3,0.6,0.6,0.9,0.9
			c0.9,1.3,0.3,2.8,0.4,4.1C21,129,19.4,129.7,17.2,128.9L17.2,128.9z"/>
		<path class="st80" d="M21.6,127.2c0-1.5,0-2.9,0-4.4c0.3,0,0.6,0,0.9,0c0,1.5,0,3,0,4.4c-0.2,0.2-0.4,0.2-0.6,0.2
			C21.7,127.4,21.6,127.3,21.6,127.2z"/>
		<path class="st81" d="M21.6,127.2c0.3,0,0.6,0,0.9,0c-0.3,0.9-0.6,1.7-0.9,2.6c-0.5,0.5-1.1,0.7-1.8,0.7c-0.8-0.3-1.8,0-2.5-0.6
			c0-0.3,0-0.7,0-1C18.7,128.4,20.1,127.8,21.6,127.2z"/>
		<path class="st82" d="M17.2,130c0.8,0,1.7,0,2.5-0.1c0.3,0.8,0.1,1.1-0.7,0.9c-1.1,0.5-2.3,1-3.6,0.8
			C16,131.1,16.6,130.6,17.2,130z"/>
		<path class="st83" d="M19,130.8c0.2-0.3,0.5-0.6,0.7-0.9c0.6,0,1.2,0,1.8,0c0.1,0.5,0.3,1.4,0.1,1.5
			C20.7,131.8,19.8,131.8,19,130.8z"/>
		<path class="st84" d="M12.5,259.9c0,0.3,0,0.6,0,0.9c0,0.3,0,0.6,0.1,0.9c-1,0-2.1,0.2-2.7-0.9c0-0.5-0.3-1.3-0.1-1.5
			C10.8,258.7,11.6,259.6,12.5,259.9z"/>
		<path class="st85" d="M14.8,198.9c0,5.9,0.1,11.8,0.1,17.6c-0.3,0-0.6,0-0.9,0c0.3-2.9-0.7-5.7-1.2-8.8c-1.3,1.4,0.1,3.5-1.5,4.5
			c0-2.7,0-5.3,0-8c-0.4-5,0.9-10.1-0.9-15c1.4-0.6,1.4,0.1,1.9,1.3C13.3,193.2,11.8,196.8,14.8,198.9z"/>
		<path class="st86" d="M15.8,217.4c0-1.7,0-3.4,0-5.2c2.1,0.4,2.7,1.7,2.7,3.5c0,0.6,0,1.1,0,1.7C17.6,217.4,16.7,217.4,15.8,217.4
			z"/>
		<path class="st87" d="M16.1,84.8c0.1-1-0.3-2.6,1.5-2.4c1.4,0.1,1.1,1.4,1.2,2.3C17.9,84.8,17,84.8,16.1,84.8z"/>
		<path class="st88" d="M19.8,122.8c0.2,0.4,0.4,0.8,0.6,1.1c0.5,1.2,0.4,2.5-0.9,2.8c-1.8,0.4,0-2.1-1.4-2.2c0-0.3,0-0.6,0-0.9
			C18,122.2,18.8,122.4,19.8,122.8z"/>
		<path class="st89" d="M20.2,207.7c-0.8,0.8-1.7,1.6-3.5,3.3c0-5.1,0-9.1-0.1-13.1c0.3,0,0.6,0,0.9,0c0,2.6,0,5.2,0,7.9
			c1.5-0.5,0.4-2.7,2.2-2.8C20.6,204.6,20,206.2,20.2,207.7z"/>
		<path class="st90" d="M15,32.7c0.1-2.4,3.2-4.8-0.1-7.1c0.6-0.9,1.2-1.7,1.8-2.6c1.2-1.2,2.3-2.4,3.5-3.5c0,0.9,0,1.8,0,2.7
			c-1,1.5-2.8,2.2-1.4,4.9C19.5,28.2,17.1,31.2,15,32.7z"/>
		<path class="st91" d="M20.3,31.8c0,1.2,0,2.4,0,3.5c-0.7,0.4-1.4,0.8-2.4,1.4C17.5,34.3,19.3,33.2,20.3,31.8z"/>
		<path class="st92" d="M18.6,248.4c-1.5,1.2-0.6,2.9-0.8,4.4c0,0,0,0,0,0c-0.2,0.2-0.4,0.3-0.6,0.2c-0.2-0.1-0.3-0.1-0.3-0.2
			c-0.6-2.7-1.1-5.3-1.7-8c0.6-1,1.3-1.9,2.6-0.9C18,245.5,18.3,246.9,18.6,248.4z"/>
		<path class="st93" d="M17.7,244c-0.9,0.3-1.7,0.6-2.6,0.9c0.1-1.2-1.5-2.3-0.1-3.6C15.6,242.5,17.9,242,17.7,244z"/>
		<path class="st76" d="M16.8,252.8c0.3,0,0.6,0,0.9,0c-0.1,1.1,0.3,2.4-1.2,2.9C15.6,254.7,15.8,253.7,16.8,252.8z"/>
		<path class="st2" d="M9.6,215.7c-0.1-1.5,0.2-2.9,1.7-3.5C11.2,213.6,10.8,214.8,9.6,215.7z"/>
	</g>
</g>
</svg>
