<?xml version="1.0" encoding="UTF-8"?><svg id="Layer_1" xmlns="http://www.w3.org/2000/svg" xmlns:xlink="http://www.w3.org/1999/xlink" viewBox="0 0 619.63 373.09"><defs><style>.cls-1{fill:url(#linear-gradient-2);}.cls-2{fill:#51221b;}.cls-3{fill:url(#linear-gradient-6);}.cls-4{fill:#fbd176;}.cls-5{fill:url(#linear-gradient-5);}.cls-6{fill:#fff;opacity:.15;}.cls-7{fill:url(#linear-gradient-7);}.cls-8{fill:url(#linear-gradient-3);}.cls-9{fill:url(#linear-gradient);}.cls-10{fill:#2e003d;}.cls-11{fill:url(#linear-gradient-4);}.cls-12{fill:url(#linear-gradient-8);}</style><linearGradient id="linear-gradient" x1="52.55" y1="215.59" x2="52.55" y2="74.13" gradientUnits="userSpaceOnUse"><stop offset="0" stop-color="#f0ad4a"/><stop offset="1" stop-color="#e19044"/></linearGradient><linearGradient id="linear-gradient-2" x1="128.57" y1="217.87" x2="128.57" y2="135.33" xlink:href="#linear-gradient"/><linearGradient id="linear-gradient-3" x1="198.29" y1="218.32" x2="198.29" y2="137.15" xlink:href="#linear-gradient"/><linearGradient id="linear-gradient-4" x1="270.28" y1="221.36" x2="270.28" y2="133.85" xlink:href="#linear-gradient"/><linearGradient id="linear-gradient-5" x1="345.16" y1="217.87" x2="345.16" y2="138.66" xlink:href="#linear-gradient"/><linearGradient id="linear-gradient-6" x1="425.51" y1="223.18" x2="425.51" y2="139.42" xlink:href="#linear-gradient"/><linearGradient id="linear-gradient-7" x1="578.83" y1="219.99" x2="578.83" y2="134.72" xlink:href="#linear-gradient"/><linearGradient id="linear-gradient-8" x1="515.23" y1="290.91" x2="515.23" y2="139.12" xlink:href="#linear-gradient"/></defs><path class="cls-6" d="m477.04,18.39c-3.37,7.44-5.72,13.26-8.6,18.8-2.46,4.73-5.41,9.23-8.35,13.69-4.55,6.89-9.31,13.64-13.91,20.49-2.17,3.24-3.5,7.53-6.43,9.68-7.56,5.55-11.52,12.24-13.54,21.63-1.39,6.49-6.11,13.67-11.49,17.55-7.68,5.54-11.49,12.68-15.83,20.47-4.89,8.78-12.54,15.97-17.88,24.55-7.51,12.06-15.35,23.61-27.12,31.97-1.18.84-2.39,1.92-3.02,3.18-5.88,11.82-13.07,22.52-24.5,29.75-4.19,18.84-23.12,27.9-30,45.12-1.45,3.62-5.56,6.92-9.25,8.74-9.03,4.47-14.63,11.33-17.3,20.79-2.12,7.48-6.12,12.6-13.75,15.86-4.98,2.13-10.39,6.57-12.54,11.36-5.72,12.73-14.67,21.73-26.3,28.8-4.96,3.02-9.38,6.94-16.63,12.38,1.83-5.06,2.27-7.55,3.53-9.52,2.9-4.55,5.73-9.27,9.4-13.16,15.29-16.19,28.2-33.91,37.35-54.31,1.35-3.02,3.71-5.81,6.18-8.08,9.85-9.07,18.14-18.7,20.05-32.91.55-4.09,4.77-8.93,8.62-11.09,8.39-4.71,12.86-11.68,15.98-20.24.98-2.68,2.61-5.51,4.74-7.33,9.75-8.35,16.92-18.46,23.3-29.57,6.04-10.52,12.52-21.32,21.05-29.72,8.12-8.01,11.23-20.47,22.8-25.13,5.93-14.33,23.76-18.64,28.37-34.89,1.7-5.99,10.25-9.92,15.38-15.09,4.06-4.09,7.73-8.57,11.46-12.98,6.1-7.21,12.05-14.55,18.17-21.74,1.56-1.82,4.66-2.99,5.16-4.95,3.21-12.53,14.46-16.5,24.89-24.08Z"/><path class="cls-6" d="m285.39,127.71c-2.71-11.01,1.65-20.12,12.54-26.91,3.92-2.44,6.23-7.42,9.36-11.18,4.38-5.25,8.75-10.51,13.27-15.64,3.56-4.04,7.65-7.64,10.98-11.86,9.02-11.41,16.98-23.79,26.85-34.39,9.61-10.32,21.06-18.91,32.68-27.74-8.3,16.79-10.74,36.05-23.82,50.76-4.47,5.03-7.42,11.47-10.74,17.45-6.13,11.03-11.89,22.27-18.12,33.24-1.1,1.94-4.18,2.68-5.57,4.55-5.35,7.16-12.78,12.12-15.92,21.83-2.66,8.24-9.96,16.19-17.27,21.37-7.12,5.05-11.14,10.75-15.05,18.22-5.09,9.74-11.72,18.42-20.71,26.08-11.32,9.64-19.74,22.91-28.48,35.28-16.35,23.12-38.69,40.12-59.4,61.17,2.7-10.89,16.29-35.43,22.76-42.66,3.25-3.63,6.22-7.53,9.1-11.46,6.01-8.23,11.85-16.59,17.81-24.86,1.72-2.38,4.57-4.38,5.28-6.99,5.42-19.83,21.8-32.1,32.64-48.17,2.95-4.38,5.15-9.3,8.37-13.44,3.77-4.84,8.28-9.09,13.45-14.65Z"/><path class="cls-6" d="m309.83,342.4c3.01-6.47,5.73-13.09,9.09-19.36,8.21-15.36,16.71-30.56,25.1-45.82,1.4-2.54,2.19-6.29,4.33-7.41,9.97-5.18,13.85-14.44,17.8-23.92,1.09-2.61,2.75-5.98,5.02-6.94,11.13-4.7,15.7-13.98,19.02-24.58.67-2.13,2.79-3.9,4.49-5.58,4.42-4.37,9.38-8.25,13.39-12.95,10.44-12.25,20.02-25.24,30.83-37.13,7.17-7.89,16.06-14.2,23.81-21.59,6.17-5.89,11.78-12.36,19.49-20.53-.24,4.48.19,6.17-.46,7.12-13.91,20.43-22.66,44.18-40.12,62.31-.34.35-.77.69-.95,1.12-8.04,19.5-25.69,32-36.21,49.69-.25.42-.9.76-.89,1.14.23,15.98-14.93,21.99-22.07,33.22-13.27,20.87-29.52,39.66-49.76,54.66-7.12,5.28-12.94,12.31-19.36,18.54-.86-.66-1.71-1.31-2.57-1.97Z"/><path class="cls-6" d="m161.91,197.04c7.01-9.24,13.62-18.82,21.11-27.64,17.92-21.08,29.98-45.78,43.93-69.33,2.61-4.41,6.95-7.76,10.12-11.88,3.81-4.94,7.37-10.1,10.76-15.34,2.37-3.67,3.41-8.59,6.49-11.33,17.13-15.24,32.74-32.36,52.8-44.1,1.38-.81,2.79-1.59,5.98-3.41-39.42,72.16-88.09,133.66-149.2,185.07-.66-.68-1.33-1.37-1.99-2.05Z"/><path class="cls-10" d="m333.93,251.32c.09.04.18.18.23.36l.05.36.23.77c.04.18.14.46.32.64l.23.55c.14.14.27.18.41.18s.23-.05.36-.05c.14-.04.77-.41,1.09-.41.09,0,.14,0,.14.04,0,.14-.05.18-.36.41-.14.23-.32.41-.64.59-.23.23-.46.5-.77.73-.59.5-1,1.05-1.23,1.59-.14.27-.23.55-.23.86v.18c0,.18.04.41.09.64.23-.5.55-.96.86-1.37.32-.36.59-.68.82-1.05.77-.77,1.59-1.59,2.14-1.46-.96.46-1.73,1.32-2.46,2.37-.68,1.05-1.23,2.19-1.64,3.41-.32.96-.36,1.96-.5,3-.05.32-.05.68-.05,1,0,.68.05,1.27.18,1.87.05.36.14.68.27,1,.18.55.27,1.05.59,1.46.23.41.5.68.73.91s.41.46.73.59c.27.18.59.32.91.36.36.14.73.18,1.23.23.41-.14.82-.09,1.32-.14.32-.05.5-.09.73-.23.14,0,.18-.05.5-.09l.14-.09c.41-.09.73-.27,1.05-.55.41-.23.73-.5,1.05-.82.59-.68,1.09-1.37,1.59-2.41.68-1.59,1-3.32,1-5.1v-.68c-.05-.82-.18-1.64-.41-2.46l-.09-.32c-.32-.86-.82-1.55-1.32-2.23l-.59-.59c-.14-.14-.23-.23-.36-.27l-.27-.23-.59-.27-.46-.05c-.18,0-.32.05-.64.09-.27,0-.59.04-1,.14l-1.09.32c-.77.04-.27-.18-.27-.32.04-.04.04-.14.04-.32-.04-.14-.14-.23-.18-.27-.18-.32-.36-.41-.68-.64-.36-.14-.55-.27-.55-.36-.04-.14-.09-.23-.23-.36v-.18c0-.14.05-.27.09-.32.14-.14.32-.23.64-.46.23-.14.5-.23.5-.36v-.32c-.05-.14-.23-.27-.46-.36l-1-.5c-.09-.05-.14-.14-.14-.32l-.05-.46s-.05-.14-.14-.18c.55-.14,1.23-.23,2.09-.46l1.5-.36h1.91c.59,0,1.18.14,1.68.27.68.14,1.27.5,1.78.82l.73.36.64.59c.5.36.87.64,1.27,1.05.68.77,1.32,1.68,1.82,2.64.36.77.82,1.64,1.05,2.41l.14.41c.27.96.46,1.91.55,2.96.05.55.09,1.14.09,1.68l-.04,1.18c-.14,1.64-.41,3.32-.96,4.82-.59,1.68-1.27,3.1-2.41,4.55-.5.73-1.14,1.41-1.82,2s-1.5,1.09-2.37,1.55c-.5.23-.91.46-1.46.59l-.5.18-.64.14c-.82.23-1.68.36-2.64.41-.14.05-.32.05-.59.05-.41,0-.82-.05-1.27-.14l-.14-.05h-.27c-.77-.04-1.46-.32-2.32-.64-.68-.32-1.41-.64-2.14-1.14-.68-.55-1.18-1.14-1.68-1.73-.5-.55-.91-1.28-1.27-1.96s-.59-1.27-.82-2c-.41-1.32-.64-2.64-.68-4.05l-.05-.91c0-1.05.09-2,.23-3.05.27-1.32.64-2.59,1.09-3.82.5-1.23,1.14-2.37,1.87-3.6.77-1.05,1.73-2.18,2.82-3.05l.23-.14c.36,0,.59.09.73.32Z"/><path class="cls-10" d="m361.83,248c0-.23-3.23-.09-3.41-.64,0-.05,1.46-.09,2.73-.09,6.96,0,13.15,1.68,15.84,8.97v.46c0,.5-.04.91-.09,1.41l-.32,1.14-.05.18c-.32.96-.73,1.87-1.27,2.69-.5.87-1.14,1.55-1.91,2.05-.68.64-1.5,1.18-2.37,1.59-.55.32-1.09.55-1.64.73.32.91.64,1.78.96,2.55.5,1.14.86,2.32,1.41,3.55.5,1.05,1,2.23,1.68,3.28l1.41,2.18c-.09-.14-.18-.18-.32-.18-.5,0-1.23.68-1.46.91-.18.14-.36.32-.68.36-.18,0-.41-.09-.55-.09l-.14.04c-.5.14-.64.46-.96.77-.32.23-.55.23-.77.41-.87-1.46-1.64-2.82-2.5-4.42-.73-1.41-1.32-2.64-1.91-4.05-.5-1.14-.91-2.28-1.23-3.5l-.14-.5-3.1.14v6.14c.14.73.18,1.41.18,2.09-.27-.14-.18-.5-.5-.5-.5,0-1.14.32-1.37.46-.23.04-.36.09-.5.09-.09,0-.18-.05-.32-.09-.18-.14-.46-.5-.64-.55l-.23-.04c-.36,0-.64.36-.96.59l-.32.09-.41-.05c-.09,0-.14,0-.14.05v-26.67c.23-.09.46-.14.68-.14.68,0,1.32.23,1.91.23h.23c.32,0,.46-.05.46-.09v-.36c0-.14-.09-.27-.32-.41-.32-.18-.91-.23-.91-.36,0-.05.14-.09.41-.14.32-.14.96-.09,1.5-.09.23.05.55.05.77.05h.32c.36,0,.91,0,.91-.23Zm9.51,7.42c-.09-.32-.27-.64-.5-.86s-.55-.46-.96-.68c-.41-.32-.82-.5-1.41-.68-.5-.18-1.05-.36-1.64-.5-1.18-.27-2.41-.46-3.73-.55-.68-.14-1.32-.09-1.91-.14l.09.86v6.28c0,1.27-.04,2.59-.09,3.82h.59c.96,0,1.91-.09,2.82-.23.86-.14,1.68-.36,2.46-.59.77-.32,1.37-.64,2.05-1,1-.68,1.68-1.5,2.05-2.55,0,0,.05-.09.09-.27l.04-.23.05-.14c0-.09,0-.18.04-.23.05-.32.09-.55.09-.86v-.41c0-.36-.05-.73-.14-1.05Z"/><path class="cls-10" d="m385.95,249.09c.36,0,1.59-1.18,1.82-.59.18.59-.05,1.59.09,2.18.18.55.46.59.77.91.04-1.41-.23-2.55.27-3.28,0,1.41.23,2.78.18,4.28-.05,2.32,0,4.46-.05,6.78-.04,2.37-.27,4.69-.41,7.1-.23,2.19-.36,4.37-.36,6.6,0,1.59.04,3,0,4.6-.64-1.09-2-.18-2.14-.18-.32.05-.64.14-.96,0-.23-.18-.41-.64-.73-.68-.5-.14-.91.23-1.41.55-.32.23-.68-.05-1.05.14.04-3.05.18-5.96.32-8.88.14-2.55.14-4.96.27-7.51.14-4.05.41-8.1.36-12.11v-.04c.96-.41,2.05.14,3,.14Z"/><path class="cls-10" d="m416.62,275.4c.05.68.09,1.37.09,2.09-.27,0-.23-.32-.55-.32-.55,0-1.27.23-1.46.27h-.73c-.32-.14-.41-.32-.64-.32h-.23c-.41,0-.68.18-1.05.32l-.96.05v-1.73c-.55.14-.64.36-1.18.55-.77.18-1.55.41-2.32.55-.77.14-1.55.23-2.46.23s-1.73-.09-2.59-.27c-.87-.32-1.73-.5-2.59-1-.73-.36-1.41-.96-1.96-1.46-.68-.59-1.05-1.18-1.55-1.87-.36-.68-.73-1.32-1.05-2-.23-.73-.36-1.37-.55-2.09-.32-1.32-.36-2.59-.5-3.91,0-.5.05-.96.18-1.46v-2.32c.14-1.05.23-1.96.55-3,.18-1.05.5-2.14,1-3.19.18-.5.41-1.05.77-1.55.23-.55.59-1,1.09-1.5.36-.5.86-1,1.37-1.37.55-.5,1.14-.73,1.82-1.09.59-.23,1.18-.46,1.87-.59.64-.09,1.27-.14,1.91-.14,1.23,0,2.37.14,3.41.46,1.09.32,2.05.73,3,1.14.96.41,1.87.91,2.82,1.41.05.05.05.18.05.32,0,.41-.27.64-.59.96s-.77.59-.96.91c-.14.23-.32.32-.36.46-.04.05-.04.14-.04.27,0,.09.04.23.18.46.23.23.5.5.64.68.04.05.09.14.09.27-.05,0-.18-.09-.41-.23-.5-.14-1.09-.5-1.68-.87-.59-.32-1.18-.59-1.68-.73-.32-.04-.5-.09-.64-.09l-.32.05-.55.18c.5.18.91.36,1.32.55l1.05.46c.87.41,2.28,1.14,2.28,1.64-1.05-.68-2.09-1.23-3.14-1.64-.55-.18-1.05-.46-1.55-.59l-1.59-.41c-.36-.14-.82-.09-1.18-.09-.32,0-.64,0-.87.05-.32.04-.5.09-.82.23l-.64.46c-.32.23-.46.36-.59.59-.23.23-.36.59-.55.91-.32.59-.59,1.32-.82,2.18-.27.87-.46,1.82-.59,2.78-.14.91-.14,1.82-.18,2.87,0,.96.05,1.87.14,2.69.14.86.36,1.68.68,2.37s.59,1.09,1.09,1.59c.41.36,1,.73,1.55.86.46.14,1,.18,1.59.18h.64c.68-.05,1.46-.18,2.32-.5,1.14-.27,1.78-.73,2.87-1.37l.27-.05v-3.82h-4.19c-.04-.09-.04-.23-.04-.41,0-.23,0-.36.04-.46v-2.37c0-.23,0-.41-.04-.55-.05-.14-.18-.18-.18-.32,0-.05.05-.09.09-.14.05-.04.09-.09.18-.09h.23c.09,0,.14,0,.18-.05.14-.14.09-.5.23-.68-.32,0-.55-.14-.91-.27.41,0,.77-.18,1.18-.23h1.82c.68,0,1.32.14,2,.18l1.23.05c.18,0,.41,0,.59-.05.5-.05.86-.14,1.23-.14-.14,0-.14.23-.14.55,0,.59.09,1.27.09,1.46v.59l.27-.09c.14-.14.14-.32.27-.32.04,0,.09.05.18.14.05.14.09.23.09.36l-.04.55c0,.14.04.18.04.23.14.32.46.32.68.5,0-.68.14-1.09.32-1.78l.18,2.32v2.78c0,1.23-.09,2.37-.14,3.78,0,.14,0,.27.05.27.23.14.27.23.32.36.14.18.18.36.36.36l-.73.5v2.5Z"/><path class="cls-10" d="m425.86,249.09c.36,0,1.59-1.18,1.82-.59.18.59-.05,1.59.09,2.18.18.55.46.59.77.91.04-1.41-.23-2.55.27-3.28,0,1.41.23,2.78.18,4.28-.05,2.32,0,4.46-.05,6.78-.04,2.37-.27,4.69-.41,7.1-.23,2.19-.36,4.37-.36,6.6,0,1.59.04,3,0,4.6-.64-1.09-2-.18-2.14-.18-.32.05-.64.14-.96,0-.23-.18-.41-.64-.73-.68-.5-.14-.91.23-1.41.55-.32.23-.68-.05-1.05.14.04-3.05.18-5.96.32-8.88.14-2.55.14-4.96.27-7.51.14-4.05.41-8.1.36-12.11v-.04c.96-.41,2.05.14,3,.14Z"/><path class="cls-10" d="m456.4,248.5c.14,0,.23,1.09.23,2.5,0,2.78-.27,6.78-.27,7.24-.18,2.55-.46,5.01-.68,7.56-.18,2.14-.32,4.1-.32,6.24v5.55c-.41,0-.18-.59-.55-.59-.18,0-.32.05-.46.09-1.09.32-1,.46-1.64.46-.18,0-.32,0-.41-.05-.32-.18-.41-.55-.73-.68h-.18c-.5,0-.82.46-1.23.68l-1.05.09v-1.09c-.96-2.14-2.64-5.01-3.96-6.96l-4.19-6.19c-.04.55.23,4.28.23,4.83-.09,1.82,0,2.91,0,4.6v1.68c.18,1.59.23,3.14.23,4.83-.32,0-.32-.59-.64-.59-.68,0-1.41.5-1.55.55s-.32.05-.55.05c-.14,0-.27,0-.32-.05-.32-.18-.46-.59-.77-.64l-.18-.05c-.41,0-.77.36-1.18.68-.05.05-.14.05-.23.05l-.5-.05c-.14,0-.09.09-.27.09v-29.95c.27-.09.55-.14.77-.14.77,0,1.5.32,2.18.32l.59.04c.23,0,.46-.09.59-.27.32-.23.36-.68.5-.68.04,0,.09.09.18.32l.09,2.23c.14.59.41.64.73.82.05-1.32-.36-2.64.27-3.37,0,1.5.27,2.91.27,4.55v.36c.18.18.41.05.73.18-.5-1.05-.64-2-.64-2.69-.14-.36,2.69,4.32,5.28,8.69,1.14,1.87,2.69,3.5,3.23,5.69.04-1.77.14-4.42.27-5.51l.18-6.46c.04-2.14.23-4.23.23-6.42.32-.14.41-.23.64-.23.14,0,.36.05.59.09l.14.05c.5.14,1.05.23,1.46.23l.59.05c.27,0,.5-.09.64-.27.23-.32.27-.73.41-.73.04,0,.14.09.18.27.05.23.09.41.09.73l-.04,1.05c0,.27,0,.46.04.59.14.59.5.64.68.96.09-.86.18-1.32.27-1.32Z"/><path class="cls-10" d="m475.79,247.96c-.05.18-.14.36-.27.55l-.41.55c-.14.18-.32.27-.32.5l-.23.5c0,.14.05.36.46.5.18.14.68.27.86.41.14.09.18.14.18.18l-.59-.09c-.5,0-1.18-.09-1.87-.14l-.96-.05-.82.05c-.5.05-.59.23-.73.41-.04.14-.09.18-.23.32.32-.14.77-.09,1.18-.14h1.09c.5,0,1.41.05,2.32.36l.18.18c-.96-.23-1.82-.27-2.69-.27h-.64c-.5.04-.91.14-1.23.27-.41.05-.73.18-1.09.32l-.59.41c-.14.14-1.23,1.68-1.37,2.23-.04.09-.04.27-.04.5,0,.41.04.73.18,1,.09.41.36.96.82,1.64.5.59,1,1.18,1.68,1.91.41.27.77.59,1.09.91l1.41,1.32,2,1.91c.73.87,1.5,1.59,2.18,2.46.59.86,1.14,1.78,1.64,2.69.18.5.36,1,.59,1.46.14.55.23,1.09.23,1.64s-.09,1.18-.23,1.87l-.05.14c-.32.5-.5,1.05-1,1.55-.5.55-.96.96-1.55,1.37-.04.05-.14.18-.27.18-.14.04-.14.14-.27.14-.18.14-.27.23-.46.27-.36.18-.73.36-1.09.41-.96.5-1.87.68-2.73.82-.91.18-1.73.27-2.59.41s-1.64.14-2.59.27h-2.28c0-.64,1.05-.36.91-.77-.05-.14-.46-.41-.59-.59-.27-.14-.41-.23-.41-.32-.14-.18-.18-.32-.18-.41,0-.14.05-.23.14-.32l.64-.27s.18-.05.36-.18l.23-.18c0-.14-.23-.32-.46-.46-.32-.18-.68-.32-.86-.5-.14-.14-.14-.41-.14-.46l.05-.14c0-.09-.05-.18-.18-.27h2c.68-.04,1.27-.09,1.96-.09.68-.14,1.32-.23,1.87-.36s1.14-.14,1.5-.32l1.14-.59.32-.36c.14-.14.18-.36.18-.68v-.23c0-.23-.04-.41-.09-.73-.14-.59-.5-1.27-1.05-2-.5-.73-1.05-1.46-1.73-2.18-.68-.68-2.59-2.32-2.73-2.59l-.82-.68c-.5-.36-.96-.77-1.18-1-.68-.68-1.37-1.23-2.05-2.09-.68-.77-1.23-1.64-1.68-2.59l-.5-1.46c-.05-.5-.18-1-.18-1.5.05-.55.09-1.05.23-1.55l.55-1.46c.14-.55,1.73-2.37,1.91-2.55.5-.5.91-.82,1.59-1.18.5-.32,1.09-.59,1.82-.86.68-.23,1.37-.46,2.14-.59.41-.14.86-.14,1.37-.27h1.59c1.05,0,2.09.09,3,.23l.18.09c.18.14.23.41.23.59Z"/><path class="cls-2" d="m159.6,134.85c-1.62-.67-3.38-.74-4.99-.27-1.5.02-2.92.41-4.17,1.12-1.26-.73-2.69-1.13-4.19-1.13s-2.88.44-4.02.96c-2-1.34-4.56-1.65-6.88-.76-2.89,1.12-4.8,3.9-4.8,7v1.06s0,.1,0,.15c.15,7.58.15,22.76.15,30.26l-.29,4.46c-.01.16-.02.32-.02.48v12.9c0,2.47,0,4.1-.13,5.94-.04,0-.07-.01-.11-.02-.35-.05-.66-.09-.95-.12-.07,0-.14-.02-.2-.02-.22-.1-.43-.18-.62-.26-.06-.07-.13-.13-.2-.19-.02-.03-.05-.07-.07-.1-.22-.58-.45-1.08-.65-1.51-.09-.19-.18-.39-.28-.61-.06-.14-.12-.27-.19-.4l-.09-.18-.2-2.76s0-.1-.01-.14l-.07-.81c-.16-1.73-.65-7.01-.65-8.53v-3.04c0-1.35,0-2.88.11-4.33.86-6.07,1.41-10.76,1.83-15.62l.73-7.49c.42-2.82.4-5.3.37-7.71,0-.56-.01-1.14-.01-1.73,0-2.6-1.35-5.01-3.56-6.38-1.7-1.05-3.73-1.37-5.64-.93-.71-.22-1.47-.35-2.25-.35-2.47,0-5.51,1.23-7.11,4.59-1.63-.63-3.17-.94-4.57-.94-2.06,0-4.03.6-5.73,1.72,1.44-4.1,2.88-8.46,4.38-13.2.72-2.28.31-4.77-1.1-6.7-1.19-1.63-2.98-2.69-4.94-2.99-.77-.29-2.03-.69-3.69-.69-.47,0-.94.04-1.4.13-1.79-1.9-4.38-2.86-7.7-2.86-.2,0-.39,0-.58.02-1.2-1.27-2.59-1.86-3.75-2.12-2.52-.58-5.21.2-7.04,2.02-.81.81-1.43,1.79-1.8,2.87-.94,2.74-1.79,5.48-2.61,8.14-.67,2.18-1.37,4.43-2.11,6.65-1.72,5.15-3.75,10.06-5.91,15.26-.76,1.84-1.52,3.68-2.26,5.5-.56,1.35-1.11,2.69-1.68,4.02-1.04-2.34-2.18-4.66-3.45-6.94-.75-2.57-1.52-5.2-2.22-7.78-.69-2.82-1.56-5.32-2.4-7.74-.59-1.68-1.14-3.27-1.6-4.89-.75-2.61-2.84-4.59-5.43-5.23-3.51-7.16-7.49-13.96-11.4-20.62-4.27-7.29-8.3-14.17-11.73-21.43-1.24-2.64-3.28-3.86-5.08-4.94-.76-.45-1.61-.97-2.73-1.73-2.62-1.79-6.09-1.74-8.65.13-2.57,1.87-3.68,5.15-2.78,8.2.96,3.22,1.85,6.14,2.72,8.96,1.74,5.65,3.25,10.53,4.43,15.4.88,3.61,1.54,7.28,2.25,11.16,1.07,5.87,2.18,11.93,4.07,17.9,2.63,8.31,5.8,16.65,8.62,24.04l3.95,15.34s.02.06.02.09c2.4,8.84,4.43,15.98,6.42,22.46,2.78,9.9,5.56,18.59,8.5,26.58.75,2.03,2.34,3.64,4.36,4.41.87.33,1.77.5,2.68.5,1.21,0,2.42-.29,3.51-.87l2.58-1.37c.6-.32,1.15-.71,1.64-1.18.35.05.71.08,1.07.08,2.74,0,4.73-.98,5.95-1.69.23.01.47.02.72.02.93,0,2.68,0,4.56-.94,2.08-1.03,3.56-2.97,4.01-5.25l.1-.5c.1-.48.2-.97.27-1.5,1.17-5.36,2.66-10.71,4.68-16.78,2.51-7.19,4.7-13.3,6.9-19.19,1.63-4.32,3.27-8.51,5.01-12.96,1.43-3.66,2.91-7.44,4.37-11.25l1.05-2.69c.2-.49.39-.98.59-1.48-.12,1.29-.26,2.58-.43,3.84-.39,2.4-.69,5.98-.98,9.44-.2,2.34-.38,4.55-.55,5.85,0,.06-.02.12-.02.18-.31,2.98-.65,7.94-.65,11.26v9.26c0,2.48.65,5.06,1.43,7.93.09.33.17.64.25.91.18,1.02.43,2.18.99,3.49l.29,1.16c.13.53.32,1.04.57,1.53l.1.19c.07.22.14.43.21.63.41,1.22.9,2.7,1.85,4.3.68,1.58,1.62,3.53,3.02,5.56,1.35,2.08,3.08,4.08,5.32,6.11,1.99,1.79,4.35,3.39,6.82,4.62.11.06.23.11.35.16,2.82,1.23,5.63,2.05,8.57,2.48,1.42.34,2.57.52,3.82.67.31.04.62.06.93.06h.81c.48.1.97.15,1.47.15h.91c2.15,0,5-.11,8.19-.9.97-.16,1.91-.37,2.9-.6l.86-.19c.34-.08.68-.18,1.01-.3,1.32-.5,2.76-1.09,4.4-2.07,1.9-.94,3.44-2.27,4.7-3.38,1.22-1.04,2.73-2.34,4.13-4.21.03-.05.07-.09.1-.14.7-.98,1.27-1.91,1.81-2.8.18-.3.37-.61.57-.92.26-.42.49-.87.66-1.34.07-.18.18-.43.32-.72.4-.86.94-2.03,1.31-3.6.62-2.33,1.11-4.28,1.59-6.71.1-.48.15-.98.15-1.47v-1.36c.05-.24.09-.48.11-.73l.03-.25c.15-1.16.3-2.35.31-3.69l.14-3.03c0-.1,0-.2,0-.3l.15-19.18c0-2.6.04-5.27.08-7.86.04-2.64.08-5.36.08-8.07v-15.78c0-3.03-1.83-5.77-4.63-6.93Z"/><path class="cls-2" d="m619.19,177.7c-1.72-13.8-6.98-24.68-15.63-32.34-9.1-8.06-21.56-12.15-37.03-12.15-.19,0-.37,0-.56.02-1.79.13-3.13.23-4.13.3-1.3.09-2.01.14-2.54.2-2.98.31-4.99,1.78-6.13,3.63l-.32.05c-.25.04-.5.1-.74.16l-1.67.45c-1.94.53-3.53,1.79-4.5,3.44-1.14.21-2.14.56-3.16,1-2.92,1.25-4.74,4.21-4.53,7.38l1.01,15.58c-2.23-6.26-4.95-11.07-9.92-15.43-12.62-11.49-25.07-12.38-41.27-12.38-2.11,0-4.49.04-6.39.1-.99.03-1.8.07-2.4.11-5.55.38-7.16,3.99-7.63,6.09-.28.31-.51.63-.71.95-1.1.15-2.19.44-3.25.86-2.85,1.14-4.72,3.9-4.72,6.97v51.69c-1.22-1.39-2.49-2.96-3.94-4.9-.11-.15-.23-.3-.35-.44-.2-.23-.4-.47-.59-.74,0-.05.02-.09.03-.14.04-.21.08-.43.1-.64.22-1.94.21-3.76-.01-5.55-.04-.3-.09-.6-.17-.89l-.15-.61c-.73-2.92-3.13-5.11-6.08-5.58-.19-.59-.36-1.16-.52-1.72-.44-1.47-.89-2.99-1.59-4.74,0-.02-.02-.04-.03-.07l-3.5-8.53c-1.42-3.4-2-6.1-2.88-10.2-.32-1.51-.69-3.23-1.15-5.16-.01-.06-.03-.12-.04-.17-.5-1.92-1.03-3.63-1.49-5.14-.59-1.9-1.1-3.55-1.46-5.28-.62-2.99-2.99-5.3-6-5.85-1.59-.29-3.19-.06-4.59.61-.71-.19-1.41-.28-2.07-.28-1.2,0-2.46.29-3.61.91-1.26-.86-2.78-1.36-4.43-1.36-1.2,0-3.74.3-5.7,2.62-.02,0-.03,0-.05-.01-.53-.12-1.17-.27-1.91-.38-.07-.02-.13-.03-.19-.04-.65-.15-1.64-.37-2.91-.37-4,0-6.86.42-8.52,1.25-2.48,1.24-4.07,3.75-4.14,6.52-.14,5.58-.43,10.13-1.4,15.56-.01.07-.02.13-.03.2-.6,3.98-1.42,8.03-2.29,12.31l-.54,2.67c-.1.48-.15.98-.15,1.47v.02s-.01.06-.02.09c-.67,3.48-1.43,7.03-2.17,10.46-.75,3.51-1.54,7.14-2.23,10.79-.02.12-.04.23-.06.35-.23,1.58-.46,3.19-.7,4.81-.24-.4-.5-.77-.8-1.11,0-.16.02-.31.02-.46.1-1.96.17-3.5.17-5.96v-10.17c0-.18,0-.37-.02-.55l-.46-6.22c-.22-3.06-2.27-5.61-5.08-6.56.02-.15.05-.32.1-.53.72-3.58-1.25-7.15-4.65-8.47-.92-.35-1.87-.53-2.8-.5-.07-1.37-.42-2.61-1.04-3.7,3.03-2.33,4.69-5.5,4.69-8.98,0-.9-.16-1.79-.48-2.64l-.46-1.21c-.6-1.59-1.71-2.93-3.16-3.8-3.43-2.06-6.94-3.72-9.75-5.05-.15-.07-.3-.14-.46-.2-6.26-2.47-11.09-2.95-17.32-2.95-1.09,0-6.07.1-8.82.56-2.53.42-4.73,1.22-6.56,1.95-.19.08-.39.16-.57.26-.4.2-.84.39-1.27.59-1.62.73-3.6,1.61-5.44,3.1-2.21,1.46-3.84,3.29-5.04,4.82-.18.18-.51.47-.75.68-1.17,1.03-2.7,2.39-3.78,4.39-1.12,1.57-1.98,3.27-2.68,5.26-.08.19-.16.38-.24.57-1.41-5.94-4.53-12.32-10.12-16.61-1.85-1.5-3.77-2.77-6.17-4.08-2.3-1.44-4.52-2.44-6.75-3.05-3.95-1.73-7.86-2.22-11.03-2.62-.36-.05-.72-.09-1.08-.14-6.15-.87-12.76-.56-17.86.83-4.3.59-9.57,1.89-11.98,2.6-2.58.76-4.51,2.82-5.16,5.36-1.11.32-2.21.79-3.27,1.4-2.34,1.34-3.78,3.82-3.78,6.52v10.17c0,.17,0,.33.02.5.04.58.08,1.13.11,1.64.09,1.2.16,2.18.17,2.91l-.58,7.41c-.02.2-.02.39-.02.59v25.13c-.13-.25-.28-.49-.44-.72-1.4-2.02-3.71-3.23-6.17-3.23-2.97,0-5.95.16-9.13.5-.23.02-.46.06-.68.1l-.29.06c-1.59.1-3.43.1-5.37.1h-2.12c-.87,0-1.73,0-2.59-.01-1.03,0-2.06,0-3.1-.01v-16.1l1.94-21.05c.05-.59.04-1.18-.05-1.76l-1.97-13.66c-.43-3-2.63-5.45-5.57-6.2-1.35-.34-2.73-.3-4,.08-.77-.22-1.53-.31-2.25-.31-1.23,0-3.78.32-5.81,2.63-.31-.05-.66-.13-1.01-.2-1.35-.27-3.03-.62-5.02-.62-1.59,0-3.3.29-4.95.84-3.06,1.02-5.13,3.89-5.13,7.12v58.2c-2.02,1.53-3.19,3.78-3.19,6.29,0,2.11.77,3.96,2.29,5.54.01.18.03.35.06.53.08.53.08,1.31.08,2.12,0,2.77,0,5.9,1.34,9.11,1.17,2.81,3.92,4.62,6.92,4.62.21,0,.42,0,.63-.03l23.37-1.97s.06,0,.09,0c4.42-.43,4.46-.43,8.8-.57h16.72c2.04,0,4-.83,5.41-2.3.38-.39.7-.82.98-1.27.02.65.05,1.31.07,1.96.08,2.2,1.12,4.25,2.85,5.62,1.34,1.06,2.98,1.62,4.65,1.62.49,0,.98-.05,1.47-.15l3.03-.61c.69-.14,1.35-.37,1.97-.69.03.01.05.02.08.03.56.27,1.8.8,3.45.8.41,0,.83-.03,1.23-.1l1.82-.3c.64-.11,1.26-.3,1.84-.56.67.29,1.32.46,1.91.56,2.32.39,4.69-.34,6.4-1.96s2.55-3.95,2.29-6.29c-.38-3.36-.64-13.68-.68-20.45,3.69-.58,8.16-1.41,12.27-2.32,2.87-.62,16.66-4.67,21.23-7.87,2.68-1.88,4.98-4.27,6.86-7.05,0,.2-.02.4-.02.61,0,.31.02.62.06.93.14,1.1.25,2.19.36,3.35.25,2.55.51,5.18,1.1,8.02.02.1.04.19.07.29.47,1.88.96,3.83,1.63,6,.12.39.28.78.46,1.15l2.73,5.46c.31.61.7,1.18,1.16,1.69.27.3.52.61.78.92,1.22,1.48,2.89,3.52,6.41,5.96.08.06.17.12.26.17,1.74,1.11,3.54,2.25,5.72,3.43,2.2,1.23,4.23,1.9,5.87,2.44.7.23,1.36.45,1.94.68.45.18.93.32,1.41.41,2.2.41,5.16.89,8.51.89,2.91,0,5.38-.34,7.67-.69.14-.02.29-.05.43-.08,1.21-.26,2.43-.55,3.61-.84.19.22.39.43.6.64,1.4,1.32,3.24,2.04,5.15,2.04.15,0,.29,0,.44-.01l2.58-.15c.19-.01.39-.03.58-.06,1.68-.23,2.8-.43,3.55-.57.95.42,1.98.63,3.02.63h1.82c.62,0,1.23-.08,1.83-.23.23-.06.46-.11.69-.16,1.15.43,2.21.53,2.94.53,3.42,0,6.3-2.29,7.2-5.41.57,2.19,1.54,4.49,3.12,6.82,1.25,1.85,3.28,3.03,5.5,3.25.56.05,1.11.04,1.66-.03,1.24.17,2.54.02,3.75-.42,1.76.79,3.33.79,4.1.79h1.21c.82,0,1.55-.12,2.2-.3.79.34,1.65.55,2.55.6.14,0,.28.01.42.01,3.8,0,7.03-2.86,7.45-6.67.25-2.27.42-4.48.57-6.63.14-1.86.28-3.77.48-5.73l.07-.51c.68-.03,1.42-.03,2.19-.03.4,0,.8-.03,1.2-.1,3.25-.53,5.54-.58,8.18-.65.65-.02,1.3-.03,1.99-.05.14.19.27.38.39.55.33.53.67,1.15,1.04,1.8,2.03,3.61,4.8,8.55,11.66,13.22,2.3,1.57,5.27,1.73,7.73.43,1.88-.99,3.22-2.72,3.75-4.73.12-.29.32-.73.48-1.07.65-.7,1.26-1.57,1.72-2.66,1.35-.63,2.72-1.68,3.92-3.42.37-.45.68-.93.94-1.45.11-.05.23-.1.34-.15v4.26c0,4.14,3.36,7.5,7.5,7.5.31,0,.61-.02.91-.06h.08c.97.12,1.95.04,2.89-.23l1.06-.3c.33-.1.66-.21.98-.35.22.1.44.18.66.26l.13.05c.57.21,1.75.64,3.3.64,1.16,0,2.09-.21,2.7-.35.13-.03.27-.06.43-.09.51-.1,1-.25,1.48-.46,2.31,1.12,5.03.98,7.22-.37,2.21-1.37,3.56-3.78,3.56-6.38,0-2.76-.19-5.21-.61-7.64v-.27c3.6,7.68,7.52,15.46,13.16,22.49.56.96,1.13,1.93,1.71,2.91.39.65.86,1.23,1.41,1.72,5.8,13.28,14.22,24.6,22.38,35.56,5.04,6.77,9.8,13.17,14.01,20.02,1.53,2.49,3.69,3.48,5.59,4.36.8.37,1.71.79,2.9,1.42,1.11.59,2.33.89,3.53.89,1.83,0,3.64-.67,5.06-1.96,2.35-2.14,3.09-5.52,1.86-8.45-1.3-3.1-2.51-5.9-3.69-8.6-2.35-5.43-4.38-10.12-6.08-14.83-1.27-3.5-2.33-7.07-3.46-10.85-1.71-5.71-3.47-11.62-6-17.35-3.59-8.13-7.67-16.08-11.62-23.77-2.66-5.18-5.41-10.54-7.94-15.83-.56-1.16-1.06-2.37-1.54-3.63,6.14-4.72,11.37-12.79,13.54-20.82l.88,13.56s0,.08,0,.13c.73,8.92,1.76,17.71,2.75,26.21l.16,1.36c.23,1.99,1.25,3.81,2.84,5.05.69.54,1.46.94,2.27,1.21-.02,1.07.18,2.14.63,3.16,1.2,2.75,3.91,4.5,6.87,4.49.21,0,.42,0,.63-.03l14.57-1.21c.31-.03.62-.07.92-.13l18.06-3.79c.94-.2,1.83-.57,2.62-1.1.57-.38,1.38-.8,2.25-1.25,1.04-.54,2.21-1.15,3.37-1.89,2.39-1.34,4.46-3.03,6.13-4.4l.22-.18c.28-.23.54-.47.78-.74,1.78-1.94,3.19-3.54,4.71-5.96,1.49-1.68,2.31-3.27,2.93-4.48.21-.41.39-.76.56-1.03l.25-.38c.21-.31.39-.64.55-.98,1.41-3.01,1.85-5.15,2.34-7.57,1.2-4.69,1.82-9.17,1.85-13.33.16-1.88.33-4.39-.06-7.35Zm-354.45-10.44c.98-.24,1.9-.46,2.71-.59,1.65-.19,3.3-.33,4.37-.1.33.07.66.12,1,.14,1.5.11,2.92.22,4.21.46.19.09.42.19.65.3-.16.61-.6,1.08-.8,1.2-.94.48-4.07,1.8-12.11,3.23.02-1.18.01-2.56-.03-4.65Zm113.38,33.39c.3.04.6.09.89.17-.29-.07-.59-.13-.89-.17Zm-38.64-18.29v7.36c-.15.88-.15,1.63-.15,2.14,0,.82,0,2.53.94,4.41.15.3.32.58.5.86-.17-.03-.35-.06-.52-.09-.13-.06-.31-.16-.46-.26-1.44-1.68-2.3-3.59-2.3-10.07,0-2.48,0-4.11.31-5.66.13-.64.25-1.29.36-1.94.18-1.01.35-1.98.56-2.8.01.42.06.83.14,1.23-.09.47-.14.95-.14,1.44,0,.71.11,2.01.76,3.4Zm.84-10.92c.1-.21.21-.43.32-.66.08-.16.16-.33.23-.5.33-.28.98-.58,1.67-.75-.86.48-1.61,1.13-2.22,1.91Zm155.53,5.92l.12-8.38c6.9.51,7.07.6,9.34,1.71.55.27,1.2.59,1.99.96.07.47.03,1.33-.52,2.26-1.13,1.9-3.77,3.03-7.44,3.16-.03,0-.07,0-.1,0-1.16.06-2.29.17-3.39.28Zm-18.13,47.74c.17-.63.27-1.29.27-1.97,0,.69-.1,1.35-.27,1.97Zm106.19-38.27c-.1,1.69-.45,3.23-.81,4.86-.09.39-.17.78-.25,1.15-.08.15-.2.35-.29.51-.21.36-.45.78-.69,1.26-.06.09-.13.19-.19.29-.07.11-.17.26-.26.4-.96.6-2.49,1.28-4.5,1.93,0-.04,0-.07,0-.11-.12-1.73-.23-3.51-.47-5.41l-1.81-24.85c3.22.48,4.33,1.25,4.7,1.78.49.71,1.28,2.82,1.76,4.08.44,1.17.86,2.28,1.33,3.29l.85,3.08.44,4.69c.11,1.18.21,2.29.22,3.05Z"/><path class="cls-9" d="m94.06,117.27c-1.06.45-2.28.91-3.34.91-.46,0-.76-.15-1.21-.3-.46-.45-.61-2.12-1.37-2.73-.46-.76-1.67-.76-2.43-.76s-2.12.45-3.79.45c-1.82-.15-1.97-3.03-2.28-2.73-1.67,4.86-3.03,9.71-4.7,14.72-2.43,7.28-5.46,14.11-8.35,21.24-3.02,7.35-6.18,14.42-8.96,21.87-2.85-8.46-5.61-16.96-10.06-24.71-.86-2.94-1.72-5.89-2.53-8.84-1.06-4.4-2.73-8.19-3.95-12.44-1.21,2.12.91,5.92,1.67,9.71-.31-.19-.65-.25-1.01-.37-6.87-19.88-19.9-36.63-28.8-55.48-.45-.95-1.93-1.41-5.26-3.68,2.91,9.8,5.42,17.18,7.25,24.72,2.3,9.47,3.26,19.32,6.18,28.57,2.56,8.11,5.59,16.06,8.63,24.02l4.05,15.75c1.97,7.28,4.1,14.87,6.37,22.31,2.43,8.65,5.16,17.45,8.35,26.1l2.58-1.37c1.06-1.21,1.82-2.88,3.49-3.04l2.73,1.06c1.06,0,1.82-.45,2.58-.91.15,0,.61-.76,1.37-1.21,1.06.15,1.67.45,2.73.45.46,0,.91,0,1.21-.15.15-.76.3-1.37.3-1.67,1.37-6.37,3.03-12.14,5.01-18.06,2.28-6.52,4.55-12.9,6.98-19.42,3.03-8.04,6.22-15.93,9.41-24.28l1.06-2.73c3.49-8.65,6.52-17.45,9.41-26.55-1.06,0-1.52-.61-2.58-.61l-.76.15Z"/><path class="cls-1" d="m154.75,136.08c-.46,0-.76.15-1.06.61-1.21,1.67-2.28,4.4-3.64,4.4-.3,0-.46,0-.61-.15-1.06-.45-1.21-3.49-2.28-4.25-.3-.45-.61-.61-.91-.61-.15,0-.76.15-1.52.61-.76,0-3.19,3.49-4.86,3.49-1.06,0-.3-2.73-1.82-4.4v1.06c.15,7.74.15,23.21.15,30.65l-.3,4.7v12.9c0,2.58,0,4.4-.15,6.53,0,1.21-.15,1.97-.3,2.88-.3.91-.61,1.37-.91,1.97-.3.76-.76,1.06-1.21,1.52l-1.67.76c-.61.3-1.37.45-2.43.61l-2.12-.91c-1.06-.15-1.67-.15-2.58-.45-.91-.46-1.52-.61-2.28-.91-.46-.45-.91-.61-1.21-1.21-.76-.61-.91-1.21-1.67-1.97-.15-.91-.61-1.67-1.06-2.73l-.76-1.52-.3-4.25c-.15-1.67-.76-7.89-.76-10.01v-3.04c0-1.52,0-3.34.15-5.16.76-5.31,1.37-10.17,1.82-15.48l.76-7.74c.46-2.88.3-5.46.3-8.5-1.52.76-.61,8.34-3.19,24.12-.61-1.67-1.37-1.97-1.37-5.46v-.91c0-1.97.46-4.86.61-7.74.15-1.97.46-4.1.46-5.92,0-1.06,0-1.82-.15-2.28l-.3-1.97c-.15,0-.3.15-.46.61-.15,1.06-.61,3.04-1.06,4.1-.46,1.67-1.21,1.82-1.82,1.82s-1.21-.46-1.67-.46c-1.67-.15-2.73-1.21-4.4-1.82-1.06-.45-1.82-.61-2.28-.61-.76,0-1.52.3-2.12.91l-.3.45c-.15,3.19-.46,6.68-.91,10.17-.61,3.64-1.06,11.68-1.52,15.17-.3,2.88-.61,7.59-.61,10.47v9.26c0,2.12,1.06,5.46,1.52,7.28.15.91.3,1.67.76,2.58l.46,1.82.3.61c.61,1.67.91,3.03,1.82,4.4.76,1.82,1.52,3.34,2.58,4.86,1.06,1.67,2.43,3.19,4.1,4.7,1.52,1.37,3.34,2.58,5.16,3.49,2.43,1.06,4.7,1.67,6.98,1.97,1.21.3,2.12.45,3.34.61h1.52l.76.15h.91c2.28,0,4.4-.15,6.68-.76,1.06-.15,2.28-.45,3.64-.76,1.21-.46,2.28-.91,3.49-1.67,1.06-.45,2.12-1.37,3.34-2.43,1.06-.91,2.12-1.82,3.03-3.04.76-1.06,1.37-2.12,2.12-3.34.46-1.21,1.06-2.12,1.37-3.49.61-2.28,1.06-4.1,1.52-6.37v-2.12c0-.61.15-.61.15-.76.15-1.21.3-2.28.3-3.34l.15-3.19.15-19.12c0-5.31.15-10.62.15-15.93v-15.78c-.3.3-.61.45-.91.45-.46,0-.61-.15-1.06-.15Z"/><path class="cls-8" d="m224.69,195.41c-2.73,0-5.46.15-8.35.46l-.76.15c-1.97.15-4.1.15-6.37.15h-2.12c-4.4,0-8.65-.15-12.9.3-.46-2.28-.3-4.7-.3-7.13v-17.15l1.97-21.39-1.97-13.66c-1.37,1.82-.76,6.07-.76,10.47-1.06-1.06-1.97-1.06-2.43-2.73l-.15-1.52.15-3.19c0-.91-.15-1.67-.46-2.28-.15-.46-.3-.76-.76-.76s-.61,1.21-1.06,1.97c-.46.61-1.06.91-1.82.91l-2.12-.15c-2.28,0-4.4-.91-6.83-.91-.76,0-1.67.15-2.58.45v59.63l-.46,3.94c-1.06,0-1.52,0-2.28.45-.3.15-.46.3-.46.45,0,.46,1.06.91,1.52,1.37.76.61.76,1.52.76,2.58v1.06c.15,1.06.15,2.12.15,3.19,0,2.28,0,4.4.76,6.22l23.37-1.97q4.7-.46,9.41-.61h16.84l-.15-3.79c-.46-1.21-1.06-2.58-1.06-3.79v-.61c0-1.06.91-1.52,1.06-2.28l.15-1.67-.15-1.37c-.15-.76-1.06-3.19-1.06-4.86,0-1.37.76-.76,1.21-1.97Z"/><path class="cls-11" d="m294.03,142.61c-1.67-1.37-3.34-2.43-5.31-3.49-1.67-1.06-3.49-1.97-5.46-2.43-3.49-1.67-7.13-1.97-10.62-2.43-5.31-.76-11.23-.45-15.33.76-3.64.46-8.8,1.67-11.38,2.43,2.88,1.21,5.61-.15,8.5-.61,2.58-.61,5.77-1.52,9.56-1.67-1.67.76-1.67,1.67-4.55,2.73-1.67.45-3.95.76-5.77,1.21-2.28.45-4.55.61-5.77,1.06-.76.45-1.21.61-1.21.76,0,.45,2.12.3,3.79.45.15.15.46.46.91.61-1.82,2.58-5.46,1.06-7.89.76l-1.52-.15c-.76,0-1.82.3-2.88.91v10.17c.15,2.28.3,3.94.3,5.31l-.61,7.74v31.26c-.46,1.67-.46,8.95-.46,10.62,0,4.25.15,8.5.3,12.75l3.03-.61c1.37-1.21,2.43-2.28,3.64-2.28,1.06.15,1.82,1.52,2.58,1.97.46.15.61.3.76.3l1.82-.3c.15-.45,1.67-1.37,3.34-1.82.15-.15.61-.15,1.06-.15,1.06,0,.91,1.82,1.82,1.97-.61-5.31-.91-24.88-.61-27.92,1.37,0,9.86-1.21,18.06-3.03,3.49-.76,15.48-4.55,18.51-6.68,7.13-5.01,9.56-13.96,9.56-21.85,0-6.22-2.58-14.11-8.19-18.36Zm-13.66,26.7c-4.1,2.12-12.44,3.95-23.21,5.31v-6.37c.15-2.43.15-3.94,0-10.17,0-1.37,0-2.28-.15-2.73,3.34-.61,6.52-1.67,9.41-2.12,2.58-.3,4.86-.45,6.98,0,1.97.15,3.95.3,5.92.76.76.3,3.34,1.52,4.1,1.97,1.37,1.82,1.82,3.64,1.82,5.46-.15,3.49-2.28,6.53-4.86,7.89Z"/><path class="cls-5" d="m379,204.06c-.61,0-.76-.45-1.06-1.06,0-.3-.15-.45-.76-.91-.15,0-.15-.45-.15-.76.15-3.79.3-5.31.3-8.65v-10.17l-.46-6.22c-.46,1.82-.76,2.88-.76,4.86-.76-.61-1.52-.61-1.97-1.37,0-.15-.15-.3-.15-.61l.15-1.52c0-.3-.15-.61-.3-.91-.15-.3-.3-.46-.46-.46-.3,0-.3.61-.76.91l-.76.15v-1.52l-.15-5.61c0-.76,0-1.52.3-3.04-.91,1.52-1.97,1.82-3.34,1.97-.46.15-1.06.15-1.67.15l-5.77-.15-6.22.15h-5.92c-.91.15-1.82.76-2.88.76.91.3,1.52.45,2.28.45-.3.61-.15,1.37-.46,1.82h-.91c-.3,0-.46.15-.61.3l-.3.3c0,.45.46.45.61.76.15.45.15.76.15,1.37v9.56c-.15.3-.15.76-.15,1.21s0,.76.15,1.06h11.53v7.89l-.76.15c-2.58,1.52-5.16,1.82-8.04,2.58-2.43.91-4.1,1.06-5.61,1.21h-1.67c-1.37,0-2.73-.15-4.1-.45-1.21-.3-2.73-1.21-3.64-1.97-3.64-3.94-4.7-7.89-4.7-15.63,0-2.73,0-4.86.46-7.13.46-2.28.76-4.7,1.52-6.83.46-2.12,1.21-3.79,1.97-5.31,1.37-3.94,7.74-6.52,12.44-5.16,1.82.76,3.34,1.21,5.31,1.97,3.64,1.37,7.13,3.19,10.47,6.22,1.21-2.73-4.25-4.1-6.52-5.77l-4.25-1.82c-1.37,0-3.34-1.67-4.7-2.12.61-.15.91-.45,1.97-.61.15,0,.3-.15.76-.15.61,0,1.37.15,2.28.45,1.67.46,3.64,1.37,5.61,2.58,1.97,1.06,3.95,2.28,5.61,2.73.76.3,1.21.46,1.52.46,0-.3,0-.46-.15-.61l-2.43-2.28c-.46-.46-.61-1.06-.61-1.67,0-.45,0-.76.15-.91l1.37-1.21c.61-1.21,2.12-2.28,3.34-3.34,1.06-.76,1.97-1.82,1.97-3.19l-.46-1.21c-3.03-1.82-6.22-3.34-9.1-4.7-5.01-1.97-8.8-2.43-14.57-2.43-1.67,0-5.77.15-7.59.45-1.82.3-3.49.91-5.01,1.52-1.82.91-4.1,1.67-5.61,3.04-1.52.91-2.73,2.28-3.79,3.64-1.21,1.37-3.19,2.58-3.79,4.1-1.06,1.37-1.67,2.73-2.12,4.1-1.37,3.04-2.28,5.92-2.73,8.65-.91,2.88-1.21,5.46-1.37,8.19v6.37c-.46,1.21-.61,2.43-.61,3.79.46,3.64.61,7.13,1.37,10.77.46,1.82.91,3.64,1.52,5.61l2.73,5.46c1.52,1.67,2.43,3.34,5.92,5.77,1.67,1.06,3.34,2.12,5.31,3.19,2.43,1.37,4.7,1.82,6.98,2.73,2.43.45,4.7.76,7.13.76s4.55-.3,6.52-.61c2.12-.45,4.4-1.06,6.37-1.52,1.37-.61,3.03-1.06,4.55-1.52v4.7l2.58-.15c3.34-.46,4.1-.76,5.16-.76h.76c.46,0,.76.3,1.67.76h1.82c.61-.15,2.58-.61,4.1-.61.76,0,.61.76,1.37.76,0-1.97,0-3.94-.15-5.61v-6.83l1.97-1.37Z"/><path class="cls-3" d="m450.31,194.05c0-.76.15-1.82.46-3.34.15-1.37.15-2.58,0-3.79l-.15-.61c-1.37-.15-2.73-.15-3.94-.3l-1.82-4.25c-.76-2.28-1.21-4.25-2.12-6.53l-3.49-8.5c-2.28-5.46-2.73-9.41-4.4-16.54-1.06-4.1-2.28-7.13-3.03-10.77-1.06,1.67-.15,4.1.46,7.59-.76-.45-2.28.3-2.88-1.06l-2.28-5.31c-.15-.45-.3-.76-.61-.76-.46,0-.15,1.37-.61,1.82-.46,1.37-1.67.91-2.73,1.37l-4.1.15c0-1.21,0-1.97-.15-3.04,0-.45-.15-.76-.46-.76-.15,0-.46,1.37-1.06,1.97-.46.46-.91.61-1.37.61l-3.03.15c-1.06,0-2.28-.46-3.49-.61-.76-.15-1.21-.3-1.82-.3s-4.55.15-5.16.45c-.15,5.92-.46,10.77-1.52,16.69-.76,5.01-1.82,10.01-2.88,15.32,0,.61,0,1.06-.15,1.52-1.37,7.13-3.03,14.11-4.4,21.24-.61,4.25-1.21,8.5-1.97,12.9-.61,4.25-1.06,8.5,2.12,13.2.15-.15.3-.3.61-.3l1.37.3c.15,0,.46-.15.61-.3,1.06-.61,1.97-1.52,3.03-1.52l.61.15c.61.15.91,1.21,1.52,1.82.3.15.61.15,1.06.15h1.21c.46,0,1.52-.76,2.88-1.21l.91-.15c.91,0,1.37.61,1.37,1.67.46-4.1.61-8.04,1.06-12.44l.91-6.37,4.7-.61c1.37-.15,2.73-.15,4.1-.15,5.61-.91,8.8-.61,13.5-.91.46,0,.91-.15,1.37-.15,1.06,1.36,2.28,2.88,3.19,4.25,2.28,3.64,3.95,8.34,10.62,12.9,0-.45,1.37-3.19,1.52-3.64.61-.45.91-.76,1.06-1.21,0-.45.15-1.06.3-2.12,0-.45.3-1.06.76-1.52.15-.15.3-.15.61-.15l1.37.15c1.21,0,1.52-1.06,1.97-1.52,0-.46.15-.76.46-1.06,0-.46.46-1.21.91-1.82.46-.61.91-.91,1.06-1.06.15-.15.3-.15.61-.15s.61.15.91.45c-2.43-2.43-4.55-5.01-6.83-8.04-1.06-1.21-1.97-2.58-2.73-3.94Zm-32.17-6.22l-4.7.61.91-5.31c1.21-5.46,1.82-11.08,4.1-24.28,2.12,8.19,2.58,10.32,7.74,23.67l1.52,4.25c-3.49.3-5.77.61-9.56,1.06Z"/><path class="cls-7" d="m611.75,172.65c-2.88-23.22-17.15-37.93-45.22-37.93-6.07.45-6.98.45-6.98.61s1.52.15,3.34.3c3.49.15,6.37.15,11.08.76-1.06.46-1.21.91-2.28,1.06-.46.3-1.67.61-3.64.76l-1.21.15h-4.7c-2.88.15-4.55,0-6.22.15l-1.82.3-1.67.45c0,.46,3.03.46,4.1,1.06,1.21.46,1.52,1.06,1.67,1.52,0,.3-.15.61-.3,1.06l-1.97.15-7.43-.3c-1.06,0-1.67.15-2.73.61l2.73,42.03c.76,9.26,1.82,18.21,2.88,27.31l3.49-.45c.46-.3,1.06-.76,1.52-1.21v.91c0,.46.3.91.76,1.37s1.97,2.12,2.73,3.34c.15.45.46.61.46,1.06,0,1.21-1.97.61-3.79,2.28l14.57-1.21,18.06-3.79c1.82-1.21,4.1-2.12,5.92-3.34,1.97-1.06,3.79-2.58,5.46-3.94,1.67-1.82,2.88-3.19,4.25-5.46,1.67-1.67,2.12-3.34,3.19-5.01l.3-.46c1.06-2.28,1.37-3.79,1.82-6.07,1.06-4.1,1.67-8.19,1.67-11.99.15-1.82.3-3.79,0-6.07Zm-21.7,16.39c-.46,1.37-1.21,2.28-1.67,3.34-.45.61-1.21,1.97-1.97,2.58-3.19,2.43-9.26,4.4-16.08,5.46l-.46-3.64c-.46-3.49-.46-6.83-.91-10.32l-2.43-33.38c0-.15.3-.15.76-.15,7.28,0,14.87.61,18.21,5.46,1.67,2.43,2.88,6.98,3.94,8.95l1.21,4.4.46,4.86c.15,1.67.3,3.19.3,4.4-.15,3.19-.91,5.77-1.37,8.04Z"/><path class="cls-12" d="m540.8,239.41c-5.91-13.38-13.14-26.18-19.47-39.39-1.57-3.28-2.72-6.76-3.89-10.23.63-.26,1.26-.58,1.89-.89,6.68-3.34,13.5-13.66,14.26-22.61-2.28-7.59-4.4-12.44-9.26-16.69-10.47-9.56-20.33-10.47-36.26-10.47-4.25,0-9.1.15-9.1.3.61,1.82,11.38,1.37,11.38,2.12s-1.82.76-3.03.76h-1.06c-.76,0-1.82,0-2.58-.15-1.82,0-3.95-.15-5.01.3-.91.15-1.37.3-1.37.46,0,.45,1.97.61,3.03,1.21.76.45,1.06.91,1.06,1.37v1.21c0,.15-.46.3-1.52.3h-.76c-1.97,0-4.1-.76-6.37-.76-.76,0-1.52.15-2.28.45v70.4c0-.15.15-.15.46-.15l1.37.15,1.06-.3c1.06-.76,1.97-1.97,3.19-1.97l.76.15c.61.15,1.52,1.37,2.12,1.82.46.15.76.3,1.06.3.46,0,.91-.15,1.67-.3.76-.45,2.88-1.52,4.55-1.52,1.06,0,.76,1.21,1.67,1.67,0-2.28-.15-4.55-.61-6.98v-14.11c3.65,0,6.8-.1,9.47-.29,5.27,10.86,9.66,22.23,17.38,31.68.65,1.11,1.3,2.23,1.97,3.36.19-.16.39-.27.59-.37.18.29.3.66.43.99,8.66,21.2,24.95,37.42,36.72,56.59.55.9,2.07,1.19,5.63,3.09-3.96-9.43-7.27-16.49-9.91-23.78-3.32-9.17-5.35-18.85-9.27-27.72Zm-52.57-60.08l.3-21.55-.3-2.88c1.97.15,4.1,0,6.37.45,12.44.91,10.17.91,16.84,3.94,6.22,3.49,4.7,18.66-11.84,19.27-3.03.15-6.22.76-9.41.76h-1.97Z"/><path class="cls-4" d="m193.13,147.62c0-1.01-.03-2.01-.06-2.98h-2.39l.02.25c.46,1.67,1.37,1.67,2.43,2.73Z"/><path class="cls-4" d="m116.97,153.23v.91c0,3.49.76,3.79,1.37,5.46,1.02-6.25,1.49-11.2,1.79-14.96h-2.47c-.03.29-.06.57-.08.85-.15,2.88-.61,5.77-.61,7.74Z"/><path class="cls-4" d="m432.25,147.01c-.15-.85-.31-1.64-.47-2.37h-2.98l.56,1.31c.61,1.37,2.12.61,2.88,1.06Z"/><path class="cls-4" d="m45.05,136.39c-1.06-4.4-2.73-8.19-3.95-12.44-1.21,2.12.91,5.92,1.67,9.71-.31-.19-.65-.25-1.01-.37-6.87-19.88-19.9-36.63-28.8-55.48-.45-.95-1.93-1.41-5.26-3.68,2.91,9.8,5.42,17.18,7.25,24.72,2.3,9.47,3.26,19.32,6.18,28.57,1.83,5.8,3.91,11.52,6.05,17.22h20.22c-.8-2.74-1.6-5.5-2.36-8.25Z"/><path class="cls-4" d="m45.05,136.39c-1.06-4.4-2.73-8.19-3.95-12.44-1.21,2.12.91,5.92,1.67,9.71-.31-.19-.65-.25-1.01-.37-6.87-19.88-19.9-36.63-28.8-55.48-.45-.95-1.93-1.41-5.26-3.68,2.91,9.8,5.42,17.18,7.25,24.72,2.3,9.47,3.26,19.32,6.18,28.57,1.83,5.8,3.91,11.52,6.05,17.22h20.22c-.8-2.74-1.6-5.5-2.36-8.25Z"/><path class="cls-4" d="m97.4,117.73c-1.06,0-1.52-.61-2.58-.61l-.76.15c-1.06.45-2.28.91-3.34.91-.46,0-.76-.15-1.21-.3-.46-.45-.61-2.12-1.37-2.73-.46-.76-1.67-.76-2.43-.76s-2.12.45-3.79.45c-1.82-.15-1.97-3.03-2.28-2.73-1.67,4.86-3.03,9.71-4.7,14.72-2.04,6.11-4.5,11.9-6.94,17.81h19.85l.14-.36c3.49-8.65,6.52-17.45,9.41-26.55Z"/><path class="cls-4" d="m97.4,117.73c-1.06,0-1.52-.61-2.58-.61l-.76.15c-1.06.45-2.28.91-3.34.91-.46,0-.76-.15-1.21-.3-.46-.45-.61-2.12-1.37-2.73-.46-.76-1.67-.76-2.43-.76s-2.12.45-3.79.45c-1.82-.15-1.97-3.03-2.28-2.73-1.67,4.86-3.03,9.71-4.7,14.72-2.04,6.11-4.5,11.9-6.94,17.81h19.85l.14-.36c3.49-8.65,6.52-17.45,9.41-26.55Z"/><path class="cls-4" d="m155.81,136.24c-.46,0-.61-.15-1.06-.15s-.76.15-1.06.61c-1.21,1.67-2.28,4.4-3.64,4.4-.3,0-.46,0-.61-.15-1.06-.45-1.21-3.49-2.28-4.25-.3-.45-.61-.61-.91-.61-.15,0-.76.15-1.52.61-.76,0-3.19,3.49-4.86,3.49-1.06,0-.3-2.73-1.82-4.4v1.06c.04,2.12.07,4.83.09,7.79h18.57v-8.86c-.3.3-.61.45-.91.45Z"/><path class="cls-4" d="m155.81,136.24c-.46,0-.61-.15-1.06-.15s-.76.15-1.06.61c-1.21,1.67-2.28,4.4-3.64,4.4-.3,0-.46,0-.61-.15-1.06-.45-1.21-3.49-2.28-4.25-.3-.45-.61-.61-.91-.61-.15,0-.76.15-1.52.61-.76,0-3.19,3.49-4.86,3.49-1.06,0-.3-2.73-1.82-4.4v1.06c.04,2.12.07,4.83.09,7.79h18.57v-8.86c-.3.3-.61.45-.91.45Z"/><path class="cls-4" d="m118.03,139.57c0-1.06,0-1.82-.15-2.28l-.3-1.97c-.15,0-.3.15-.46.61-.15,1.06-.61,3.04-1.06,4.1-.46,1.67-1.21,1.82-1.82,1.82s-1.21-.46-1.67-.46c-1.67-.15-2.73-1.21-4.4-1.82-1.06-.45-1.82-.61-2.28-.61-.76,0-1.52.3-2.12.91l-.3.45c-.07,1.38-.17,2.83-.29,4.31h14.48c.16-1.72.38-3.5.38-5.06Z"/><path class="cls-4" d="m118.03,139.57c0-1.06,0-1.82-.15-2.28l-.3-1.97c-.15,0-.3.15-.46.61-.15,1.06-.61,3.04-1.06,4.1-.46,1.67-1.21,1.82-1.82,1.82s-1.21-.46-1.67-.46c-1.67-.15-2.73-1.21-4.4-1.82-1.06-.45-1.82-.61-2.28-.61-.76,0-1.52.3-2.12.91l-.3.45c-.07,1.38-.17,2.83-.29,4.31h14.48c.16-1.72.38-3.5.38-5.06Z"/><path class="cls-4" d="m121.21,143.98c.46-2.88.3-5.46.3-8.5-.92.46-.95,3.41-1.4,9.16h1.03l.07-.66Z"/><path class="cls-4" d="m121.21,143.98c.46-2.88.3-5.46.3-8.5-.92.46-.95,3.41-1.4,9.16h1.03l.07-.66Z"/><path class="cls-4" d="m193.07,144.64h1.91l-1.08-7.49c-1.05,1.4-.93,4.25-.82,7.49Z"/><path class="cls-4" d="m193.07,144.64h1.91l-1.08-7.49c-1.05,1.4-.93,4.25-.82,7.49Z"/><path class="cls-4" d="m190.55,143.37l.15-3.19c0-.91-.15-1.67-.46-2.28-.15-.46-.3-.76-.76-.76s-.61,1.21-1.06,1.97c-.46.61-1.06.91-1.82.91l-2.12-.15c-2.28,0-4.4-.91-6.83-.91-.76,0-1.67.15-2.58.45v5.22h15.6l-.13-1.27Z"/><path class="cls-4" d="m190.55,143.37l.15-3.19c0-.91-.15-1.67-.46-2.28-.15-.46-.3-.76-.76-.76s-.61,1.21-1.06,1.97c-.46.61-1.06.91-1.82.91l-2.12-.15c-2.28,0-4.4-.91-6.83-.91-.76,0-1.67.15-2.58.45v5.22h15.6l-.13-1.27Z"/><path class="cls-4" d="m294.03,142.61c-1.67-1.37-3.34-2.43-5.31-3.49-1.67-1.06-3.49-1.97-5.46-2.43-3.49-1.67-7.13-1.97-10.62-2.43-5.31-.76-11.23-.45-15.33.76-3.64.46-8.8,1.67-11.38,2.43,2.88,1.21,5.61-.15,8.5-.61,2.58-.61,5.77-1.52,9.56-1.67-1.67.76-1.67,1.67-4.55,2.73-1.67.45-3.95.76-5.77,1.21-2.28.45-4.55.61-5.77,1.06-.76.45-1.21.61-1.21.76,0,.45,2.12.3,3.79.45.15.15.46.46.91.61-1.82,2.58-5.46,1.06-7.89.76l-1.52-.15c-.76,0-1.82.3-2.88.91v1.12h57.14c-.68-.74-1.41-1.42-2.21-2.03Z"/><path class="cls-4" d="m294.03,142.61c-1.67-1.37-3.34-2.43-5.31-3.49-1.67-1.06-3.49-1.97-5.46-2.43-3.49-1.67-7.13-1.97-10.62-2.43-5.31-.76-11.23-.45-15.33.76-3.64.46-8.8,1.67-11.38,2.43,2.88,1.21,5.61-.15,8.5-.61,2.58-.61,5.77-1.52,9.56-1.67-1.67.76-1.67,1.67-4.55,2.73-1.67.45-3.95.76-5.77,1.21-2.28.45-4.55.61-5.77,1.06-.76.45-1.21.61-1.21.76,0,.45,2.12.3,3.79.45.15.15.46.46.91.61-1.82,2.58-5.46,1.06-7.89.76l-1.52-.15c-.76,0-1.82.3-2.88.91v1.12h57.14c-.68-.74-1.41-1.42-2.21-2.03Z"/><path class="cls-4" d="m343.95,138.66c-1.67,0-5.77.15-7.59.45-1.82.3-3.49.91-5.01,1.52-1.82.91-4.1,1.67-5.61,3.04-.47.28-.91.61-1.32.97h41.17c-2.4-1.32-4.83-2.48-7.08-3.55-5.01-1.97-8.8-2.43-14.57-2.43Z"/><path class="cls-4" d="m343.95,138.66c-1.67,0-5.77.15-7.59.45-1.82.3-3.49.91-5.01,1.52-1.82.91-4.1,1.67-5.61,3.04-.47.28-.91.61-1.32.97h41.17c-2.4-1.32-4.83-2.48-7.08-3.55-5.01-1.97-8.8-2.43-14.57-2.43Z"/><path class="cls-4" d="m431.79,144.64h1.41c-.53-1.73-1.02-3.39-1.4-5.22-.8,1.26-.48,2.96-.01,5.22Z"/><path class="cls-4" d="m431.79,144.64h1.41c-.53-1.73-1.02-3.39-1.4-5.22-.8,1.26-.48,2.96-.01,5.22Z"/><path class="cls-4" d="m427.09,140.64c-.15-.45-.3-.76-.61-.76-.46,0-.15,1.37-.61,1.82-.46,1.37-1.67.91-2.73,1.37l-4.1.15c0-1.21,0-1.97-.15-3.04,0-.45-.15-.76-.46-.76-.15,0-.46,1.37-1.06,1.97-.46.46-.91.61-1.37.61l-3.03.15c-1.06,0-2.28-.46-3.49-.61-.76-.15-1.21-.3-1.82-.3s-4.55.15-5.16.45c-.03,1.01-.06,1.98-.1,2.94h26.39l-1.72-4Z"/><path class="cls-4" d="m427.09,140.64c-.15-.45-.3-.76-.61-.76-.46,0-.15,1.37-.61,1.82-.46,1.37-1.67.91-2.73,1.37l-4.1.15c0-1.21,0-1.97-.15-3.04,0-.45-.15-.76-.46-.76-.15,0-.46,1.37-1.06,1.97-.46.46-.91.61-1.37.61l-3.03.15c-1.06,0-2.28-.46-3.49-.61-.76-.15-1.21-.3-1.82-.3s-4.55.15-5.16.45c-.03,1.01-.06,1.98-.1,2.94h26.39l-1.72-4Z"/><path class="cls-4" d="m559.55,135.33c0,.15,1.52.15,3.34.3,3.49.15,6.37.15,11.08.76-1.06.46-1.21.91-2.28,1.06-.46.3-1.67.61-3.64.76l-1.21.15h-4.7c-2.88.15-4.55,0-6.22.15l-1.82.3-1.67.45c0,.46,3.03.46,4.1,1.06,1.21.46,1.52,1.06,1.67,1.52,0,.3-.15.61-.3,1.06l-1.97.15-7.43-.3c-1.06,0-1.67.15-2.73.61l.08,1.27h52.35c-7.41-6.36-17.86-9.92-31.65-9.92-6.07.45-6.98.45-6.98.61Z"/><path class="cls-4" d="m559.55,135.33c0,.15,1.52.15,3.34.3,3.49.15,6.37.15,11.08.76-1.06.46-1.21.91-2.28,1.06-.46.3-1.67.61-3.64.76l-1.21.15h-4.7c-2.88.15-4.55,0-6.22.15l-1.82.3-1.67.45c0,.46,3.03.46,4.1,1.06,1.21.46,1.52,1.06,1.67,1.52,0,.3-.15.61-.3,1.06l-1.97.15-7.43-.3c-1.06,0-1.67.15-2.73.61l.08,1.27h52.35c-7.41-6.36-17.86-9.92-31.65-9.92-6.07.45-6.98.45-6.98.61Z"/><path class="cls-4" d="m478.98,139.42c.61,1.82,11.38,1.37,11.38,2.12s-1.82.76-3.03.76h-1.06c-.76,0-1.82,0-2.58-.15-1.82,0-3.95-.15-5.01.3-.91.15-1.37.3-1.37.46,0,.45,1.97.61,3.03,1.21.28.17.5.34.67.51h36.75c-8.3-4.95-17.1-5.52-29.68-5.52-4.25,0-9.1.15-9.1.3Z"/><path class="cls-4" d="m478.98,139.42c.61,1.82,11.38,1.37,11.38,2.12s-1.82.76-3.03.76h-1.06c-.76,0-1.82,0-2.58-.15-1.82,0-3.95-.15-5.01.3-.91.15-1.37.3-1.37.46,0,.45,1.97.61,3.03,1.21.28.17.5.34.67.51h36.75c-8.3-4.95-17.1-5.52-29.68-5.52-4.25,0-9.1.15-9.1.3Z"/></svg>