<?xml version="1.0" encoding="utf-8"?>
<!-- Generator: Adobe Illustrator 27.3.1, SVG Export Plug-In . SVG Version: 6.00 Build 0)  -->
<svg version="1.1" id="Layer_1" xmlns="http://www.w3.org/2000/svg" xmlns:xlink="http://www.w3.org/1999/xlink" x="0px" y="0px"
	 viewBox="0 0 64.3 44.9" style="enable-background:new 0 0 64.3 44.9;" xml:space="preserve">
<style type="text/css">
	.st0{fill:#FFFFFF;}
</style>
<path class="st0" d="M0.4,32.5c0-6.7,0-13.4,0-20.1c0.1-0.7,0.2-1.3,0.3-2C2.2,4.1,7.3,0,13.8,0C26,0,38.3,0,50.5,0c1,0,2,0.1,3,0.3
	c6.2,1.4,10.3,6.6,10.4,13c0,6.1,0,12.2,0,18.3c0,2.4-0.5,4.6-1.7,6.6c-2.6,4.4-6.6,6.6-11.7,6.7c-12.2,0-24.4,0-36.6,0
	c-0.3,0-0.6,0-0.9,0c-5.7-0.3-10.6-4.3-12.1-9.8C0.7,34.3,0.5,33.4,0.4,32.5z M23.4,22.5c0,2.7,0,5.4,0,8.1c0,1.2,0.4,1.4,1.4,0.9
	c5.5-2.6,11-5.3,16.5-7.9c0.3-0.2,0.8-0.5,0.8-0.8s-0.4-0.7-0.7-0.8c-5.5-2.8-11-5.6-16.6-8.4c-1-0.5-1.4-0.2-1.4,0.9
	C23.4,17.1,23.4,19.8,23.4,22.5z"/>
</svg>
